{"glyphs":{"0":{"ha":1101,"x_min":0,"x_max":1101,"o":"m 553 -26 q 322 44 424 -26 q 163 263 221 115 q 106 638 106 411 q 121 843 106 750 q 165 1010 136 936 q 233 1138 193 1083 q 322 1227 272 1192 q 431 1281 372 1263 q 553 1299 489 1299 q 780 1228 681 1299 q 937 1010 879 1157 q 994 638 994 863 q 980 431 994 524 q 937 264 965 338 q 869 135 908 190 q 781 45 831 81 q 674 -8 732 10 q 553 -26 617 -26 m 551 49 q 653 65 606 49 q 740 113 700 81 q 813 193 781 144 q 867 308 844 242 q 902 456 890 374 q 914 638 914 538 q 868 967 914 836 q 741 1161 822 1097 q 551 1225 660 1225 q 450 1209 499 1225 q 361 1161 401 1193 q 289 1081 321 1129 q 234 967 257 1032 q 200 819 211 901 q 189 638 189 736 q 235 308 189 439 q 363 113 281 178 q 551 49 444 49 m 0 -569 l 1101 -569 l 1101 -583 l 0 -583 l 0 -569 m 0 28 l 1101 28 l 1101 0 l 0 0 l 0 28 m 0 701 l 1101 701 l 1101 694 l 0 694 l 0 701 m 0 1292 l 1101 1292 l 1101 1278 l 0 1278 l 0 1292 z "},"1":{"ha":650,"x_min":0,"x_max":650,"o":"m 351 -19 q 322 -12 331 -19 q 313 7 313 -6 l 313 1189 q 238 1124 278 1156 q 161 1065 199 1092 q 90 1018 124 1038 q 64 1008 76 1008 q 40 1024 51 1008 q 31 1053 28 1043 q 51 1074 33 1063 q 133 1131 92 1100 q 218 1199 175 1161 q 303 1281 261 1236 q 316 1291 310 1288 q 331 1297 322 1294 q 353 1299 339 1299 q 380 1292 372 1299 q 388 1272 388 1285 l 388 7 q 379 -12 388 -6 q 351 -19 371 -19 m 0 -569 l 650 -569 l 650 -583 l 0 -583 l 0 -569 m 0 28 l 650 28 l 650 0 l 0 0 l 0 28 m 0 701 l 650 701 l 650 694 l 0 694 l 0 701 m 0 1292 l 650 1292 l 650 1278 l 0 1278 l 0 1292 z "},"2":{"ha":957,"x_min":0,"x_max":957,"o":"m 107 0 q 85 9 94 0 q 76 31 76 18 q 83 53 75 43 l 331 301 q 444 420 390 361 q 545 537 499 479 q 629 651 592 594 q 694 760 667 707 q 735 867 721 814 q 749 968 749 919 q 714 1117 749 1060 q 615 1200 679 1174 q 464 1226 550 1226 q 301 1194 372 1226 q 167 1106 231 1163 q 142 1092 154 1093 q 115 1103 129 1090 q 102 1130 99 1118 q 113 1151 106 1142 q 200 1224 146 1190 q 324 1278 254 1257 q 469 1299 393 1299 q 610 1278 544 1299 q 724 1218 675 1258 q 799 1117 772 1178 q 826 974 826 1056 q 810 860 826 918 q 765 740 794 801 q 694 618 735 679 q 602 494 653 557 q 494 369 551 432 q 375 244 438 307 l 200 69 l 824 69 q 841 63 835 69 q 847 38 847 56 q 842 9 847 18 q 824 0 836 0 l 107 0 m 0 -569 l 957 -569 l 957 -583 l 0 -583 l 0 -569 m 0 28 l 957 28 l 957 0 l 0 0 l 0 28 m 0 701 l 957 701 l 957 694 l 0 694 l 0 701 m 0 1292 l 957 1292 l 957 1278 l 0 1278 l 0 1292 z "},"3":{"ha":967,"x_min":0,"x_max":967,"o":"m 458 -26 q 322 -7 389 -26 q 191 57 256 13 q 69 174 126 101 q 56 200 58 188 q 69 225 54 213 q 96 238 85 239 q 119 224 107 238 q 224 123 171 163 q 335 65 278 83 q 457 46 393 46 q 590 68 531 46 q 692 131 650 90 q 755 231 733 172 q 776 365 776 290 q 735 515 776 451 q 617 616 693 579 q 439 653 542 653 l 349 653 q 331 661 336 653 q 325 688 325 669 q 331 715 325 707 q 349 722 338 722 l 443 722 q 569 744 517 722 q 656 804 622 767 q 707 889 690 842 q 724 986 724 936 q 701 1094 724 1049 q 640 1169 679 1140 q 553 1213 601 1199 q 451 1228 506 1228 q 343 1214 393 1228 q 248 1174 293 1200 q 158 1111 203 1149 q 133 1098 146 1100 q 106 1108 119 1096 q 92 1137 89 1125 q 104 1157 96 1149 q 194 1229 142 1197 q 313 1280 247 1261 q 451 1299 378 1299 q 588 1280 525 1299 q 700 1222 651 1261 q 776 1124 749 1183 q 803 986 803 1065 q 790 896 803 942 q 750 810 776 850 q 681 738 724 769 q 576 690 638 707 q 733 622 671 669 q 825 508 794 575 q 856 361 856 442 q 830 203 856 274 q 753 81 804 132 q 628 1 701 29 q 458 -26 554 -26 m 0 -569 l 967 -569 l 967 -583 l 0 -583 l 0 -569 m 0 28 l 967 28 l 967 0 l 0 0 l 0 28 m 0 701 l 967 701 l 967 694 l 0 694 l 0 701 m 0 1292 l 967 1292 l 967 1278 l 0 1278 l 0 1292 z "},"4":{"ha":985,"x_min":0,"x_max":985,"o":"m 733 -19 q 706 -12 715 -19 q 696 7 696 -6 l 696 351 l 99 351 q 70 363 81 351 q 67 394 60 375 l 469 1272 q 487 1293 478 1288 q 517 1299 496 1299 q 539 1294 531 1299 q 549 1281 547 1289 q 544 1258 551 1272 l 156 421 l 696 421 l 696 875 q 735 901 696 901 q 763 895 754 901 q 772 875 772 889 l 772 421 l 914 421 q 933 414 926 421 q 940 388 940 407 q 935 360 940 369 q 914 351 929 351 l 772 351 l 772 7 q 733 -19 772 -19 m 0 -569 l 985 -569 l 985 -583 l 0 -583 l 0 -569 m 0 28 l 985 28 l 985 0 l 0 0 l 0 28 m 0 701 l 985 701 l 985 694 l 0 694 l 0 701 m 0 1292 l 985 1292 l 985 1278 l 0 1278 l 0 1292 z "},"5":{"ha":967,"x_min":0,"x_max":967,"o":"m 476 -26 q 374 -14 424 -26 q 276 23 324 -1 q 185 85 228 47 q 107 174 143 122 q 93 199 96 188 q 108 225 90 211 q 133 238 121 238 q 157 224 144 238 q 254 123 206 163 q 358 64 303 83 q 479 44 414 44 q 615 68 557 44 q 712 138 672 92 q 772 249 751 183 q 792 397 792 314 q 770 530 792 469 q 708 634 749 590 q 610 703 667 678 q 479 728 553 728 q 383 716 429 728 q 297 681 336 704 q 225 619 257 657 q 198 606 213 607 q 174 614 183 606 q 164 633 164 622 l 186 1253 q 194 1270 186 1264 q 217 1276 203 1276 l 797 1276 q 815 1269 808 1276 q 821 1244 821 1263 q 815 1216 821 1225 q 797 1207 810 1207 l 256 1207 l 236 713 q 306 757 267 738 q 390 788 344 776 q 482 799 435 799 q 691 747 604 799 q 824 606 778 696 q 871 397 871 515 q 844 218 871 297 q 765 85 817 139 q 640 2 713 31 q 476 -26 567 -26 m 0 -569 l 967 -569 l 967 -583 l 0 -583 l 0 -569 m 0 28 l 967 28 l 967 0 l 0 0 l 0 28 m 0 701 l 967 701 l 967 694 l 0 694 l 0 701 m 0 1292 l 967 1292 l 967 1278 l 0 1278 l 0 1292 z "},"6":{"ha":1040,"x_min":0,"x_max":1040,"o":"m 547 -26 q 322 41 414 -26 q 183 230 231 108 q 136 513 136 351 q 157 758 136 643 q 224 968 178 874 q 341 1133 269 1063 q 513 1244 413 1203 q 747 1297 614 1286 q 790 1294 779 1299 q 803 1269 800 1289 q 799 1243 804 1253 q 776 1232 794 1233 q 553 1183 647 1222 q 393 1077 458 1143 q 289 924 328 1011 q 233 732 250 838 q 215 506 215 626 q 241 306 215 392 q 312 162 267 219 q 417 75 357 104 q 547 46 478 46 q 678 71 621 46 q 776 141 736 96 q 838 251 817 186 q 860 393 860 315 q 822 561 860 490 q 717 670 785 632 q 554 708 649 708 q 458 695 506 708 q 369 658 411 682 q 293 600 328 633 q 233 526 258 567 q 194 440 208 486 l 174 510 q 229 619 192 569 q 318 704 267 668 q 431 760 369 740 q 557 781 492 781 q 717 754 646 781 q 838 677 788 728 q 914 555 888 626 q 940 393 940 483 q 913 222 940 299 q 835 90 886 144 q 711 4 783 35 q 547 -26 639 -26 m 0 -569 l 1040 -569 l 1040 -583 l 0 -583 l 0 -569 m 0 28 l 1040 28 l 1040 0 l 0 0 l 0 28 m 0 701 l 1040 701 l 1040 694 l 0 694 l 0 701 m 0 1292 l 1040 1292 l 1040 1278 l 0 1278 l 0 1292 z "},"7":{"ha":785,"x_min":0,"x_max":785,"o":"m 210 -15 q 188 1 192 -8 q 189 26 183 10 l 664 1207 l 43 1207 q 26 1215 32 1207 q 19 1242 19 1222 q 25 1268 19 1260 q 43 1276 31 1276 l 726 1276 q 750 1265 740 1276 q 753 1236 760 1253 l 261 14 q 243 -17 253 -10 q 210 -15 233 -24 m 0 -569 l 785 -569 l 785 -583 l 0 -583 l 0 -569 m 0 28 l 785 28 l 785 0 l 0 0 l 0 28 m 0 701 l 785 701 l 785 694 l 0 694 l 0 701 m 0 1292 l 785 1292 l 785 1278 l 0 1278 l 0 1292 z "},"8":{"ha":967,"x_min":0,"x_max":967,"o":"m 483 -26 q 317 -3 390 -26 q 191 65 243 21 q 112 174 139 110 q 85 319 85 238 q 103 429 85 375 q 158 532 121 483 q 250 619 194 581 q 382 686 306 658 q 247 765 301 718 q 167 869 193 811 q 140 992 140 926 q 168 1128 140 1069 q 244 1224 196 1186 q 356 1281 293 1263 q 489 1300 419 1300 q 620 1283 558 1300 q 728 1231 682 1267 q 801 1138 775 1194 q 828 1004 828 1082 q 815 917 828 961 q 773 831 801 872 q 699 753 744 789 q 592 692 654 718 q 756 603 690 656 q 852 483 821 550 q 883 340 883 417 q 856 187 883 254 q 777 72 829 119 q 651 -1 725 24 q 483 -26 578 -26 m 486 46 q 618 65 560 46 q 717 122 676 85 q 780 214 758 160 q 801 338 801 268 q 763 477 801 417 q 652 581 724 538 q 481 651 581 625 q 349 600 407 632 q 250 526 290 568 q 188 433 210 485 q 167 322 167 382 q 188 204 167 256 q 251 117 210 153 q 352 64 293 82 q 486 46 411 46 m 496 721 q 638 788 582 744 q 721 888 693 832 q 749 1006 749 944 q 728 1108 749 1065 q 669 1178 707 1151 q 585 1217 632 1206 q 486 1229 538 1229 q 385 1215 433 1229 q 300 1172 338 1201 q 241 1099 263 1143 q 219 993 219 1054 q 249 880 219 933 q 341 786 279 826 q 496 721 403 746 m 0 -569 l 967 -569 l 967 -583 l 0 -583 l 0 -569 m 0 28 l 967 28 l 967 0 l 0 0 l 0 28 m 0 701 l 967 701 l 967 694 l 0 694 l 0 701 m 0 1292 l 967 1292 l 967 1278 l 0 1278 l 0 1292 z "},"9":{"ha":1040,"x_min":0,"x_max":1040,"o":"m 493 1304 q 718 1237 626 1304 q 857 1048 810 1169 q 904 765 904 926 q 883 519 904 635 q 817 310 863 404 q 699 145 771 215 q 526 33 628 75 q 293 -19 425 -8 q 251 -16 261 -21 q 238 8 240 -11 q 240 35 236 26 q 263 46 244 44 q 488 95 393 56 q 647 201 582 135 q 751 353 713 267 q 807 546 790 440 q 824 772 824 651 q 799 972 824 886 q 728 1116 774 1058 q 623 1203 683 1174 q 493 1232 563 1232 q 362 1207 419 1232 q 263 1137 304 1182 q 201 1028 222 1092 q 181 885 181 964 q 217 717 181 788 q 323 608 254 646 q 485 569 392 569 q 582 583 535 569 q 671 620 629 596 q 747 678 713 644 q 807 751 782 711 q 846 838 832 792 l 867 768 q 811 660 849 710 q 722 574 774 610 q 610 517 671 538 q 483 497 550 497 q 324 524 394 497 q 203 601 253 550 q 126 723 153 651 q 99 885 99 794 q 126 1056 99 979 q 205 1188 153 1133 q 329 1274 257 1243 q 493 1304 401 1304 m 0 -569 l 1040 -569 l 1040 -583 l 0 -583 l 0 -569 m 0 28 l 1040 28 l 1040 0 l 0 0 l 0 28 m 0 701 l 1040 701 l 1040 694 l 0 694 l 0 701 m 0 1292 l 1040 1292 l 1040 1278 l 0 1278 l 0 1292 z "},"\r":{"ha":417,"x_min":0,"x_max":0,"o":""}," ":{"ha":417,"x_min":0,"x_max":0,"o":""}," ":{"ha":139,"x_min":0,"x_max":0,"o":""}," ":{"ha":417,"x_min":0,"x_max":0,"o":""},"A":{"ha":1083,"x_min":0,"x_max":1083,"o":"m 71 -18 q 44 -4 50 -14 q 44 22 39 6 l 496 1267 q 511 1292 501 1285 q 542 1299 521 1299 q 572 1292 563 1299 q 586 1267 581 1285 l 1039 22 q 1040 -4 1046 6 q 1011 -18 1033 -14 q 983 -15 992 -21 q 965 14 974 -8 l 832 385 l 251 385 l 117 14 q 101 -15 110 -8 q 71 -18 92 -21 m 276 454 l 806 454 l 542 1186 l 276 454 m 0 -569 l 1083 -569 l 1083 -583 l 0 -583 l 0 -569 m 0 28 l 1083 28 l 1083 0 l 0 0 l 0 28 m 0 701 l 1083 701 l 1083 694 l 0 694 l 0 701 m 0 1292 l 1083 1292 l 1083 1278 l 0 1278 l 0 1292 z "},"B":{"ha":1047,"x_min":0,"x_max":1047,"o":"m 244 0 q 206 26 206 0 l 206 1250 q 246 1276 206 1276 l 544 1276 q 749 1249 665 1276 q 877 1163 833 1222 q 921 1006 921 1104 q 893 876 921 932 q 820 779 865 819 q 724 715 775 739 q 628 683 674 692 l 628 678 q 758 660 696 676 q 869 611 819 644 q 947 524 918 578 q 975 396 975 471 q 953 264 975 325 q 890 155 932 203 q 790 72 849 107 q 659 18 732 36 q 500 0 586 0 l 244 0 m 282 69 l 500 69 q 666 94 593 69 q 790 162 739 118 q 868 265 842 206 q 894 394 894 325 q 868 509 894 463 q 793 585 842 556 q 678 627 744 614 q 531 640 611 640 l 282 640 l 282 69 m 282 710 l 504 710 q 634 730 572 710 q 742 789 696 750 q 816 883 789 828 q 843 1006 843 938 q 808 1124 843 1079 q 706 1188 772 1168 q 544 1207 639 1207 l 282 1207 l 282 710 m 0 -569 l 1047 -569 l 1047 -583 l 0 -583 l 0 -569 m 0 28 l 1047 28 l 1047 0 l 0 0 l 0 28 m 0 701 l 1047 701 l 1047 694 l 0 694 l 0 701 m 0 1292 l 1047 1292 l 1047 1278 l 0 1278 l 0 1292 z "},"C":{"ha":1119,"x_min":0,"x_max":1119,"o":"m 654 -26 q 438 21 533 -26 q 273 156 342 68 q 167 365 204 243 q 131 636 131 488 q 148 824 131 736 q 199 985 165 911 q 281 1117 233 1058 q 390 1215 329 1175 q 522 1277 450 1256 q 672 1299 593 1299 q 801 1283 738 1299 q 921 1233 864 1267 q 1019 1144 978 1200 q 1030 1123 1032 1132 q 1015 1101 1028 1114 q 991 1090 1001 1090 q 968 1104 981 1090 q 883 1172 931 1144 q 783 1212 836 1199 q 672 1225 729 1225 q 546 1207 606 1225 q 435 1153 486 1189 q 342 1067 383 1118 q 272 951 301 1017 q 226 806 242 885 q 211 636 211 728 q 243 392 211 500 q 333 206 275 283 q 472 89 390 129 q 654 49 554 49 q 756 61 708 49 q 846 97 804 74 q 924 153 888 121 q 997 226 961 186 q 1020 240 1010 239 q 1044 228 1031 240 q 1060 207 1058 217 q 1050 185 1061 197 q 931 68 993 115 q 799 -3 868 21 q 654 -26 731 -26 m 0 -569 l 1119 -569 l 1119 -583 l 0 -583 l 0 -569 m 0 28 l 1119 28 l 1119 0 l 0 0 l 0 28 m 0 701 l 1119 701 l 1119 694 l 0 694 l 0 701 m 0 1292 l 1119 1292 l 1119 1278 l 0 1278 l 0 1292 z "},"D":{"ha":1254,"x_min":0,"x_max":1254,"o":"m 244 0 q 206 26 206 0 l 206 1250 q 215 1270 206 1264 q 244 1276 225 1276 l 506 1276 q 756 1240 643 1276 q 952 1131 869 1203 q 1080 952 1035 1058 q 1125 704 1125 846 q 1098 480 1125 586 q 1015 286 1071 374 q 876 134 960 199 q 681 35 793 69 q 425 0 568 0 l 244 0 m 283 72 l 425 72 q 650 103 550 72 q 824 190 750 133 q 946 326 897 247 q 1019 500 994 404 q 1043 704 1043 596 q 1003 928 1043 833 q 890 1083 963 1022 q 719 1174 817 1144 q 506 1204 621 1204 l 283 1204 l 283 72 m 0 -569 l 1254 -569 l 1254 -583 l 0 -583 l 0 -569 m 0 28 l 1254 28 l 1254 0 l 0 0 l 0 28 m 0 701 l 1254 701 l 1254 694 l 0 694 l 0 701 m 0 1292 l 1254 1292 l 1254 1278 l 0 1278 l 0 1292 z "},"E":{"ha":957,"x_min":0,"x_max":957,"o":"m 244 0 q 215 8 225 0 q 206 32 206 15 l 206 1250 q 215 1270 206 1264 q 244 1276 225 1276 l 867 1276 q 884 1269 878 1276 q 890 1242 890 1261 q 884 1215 890 1222 q 867 1207 878 1207 l 282 1207 l 282 710 l 776 710 q 794 702 788 710 q 800 675 800 694 q 794 648 800 656 q 776 640 788 640 l 282 640 l 282 69 l 867 69 q 884 62 878 69 q 890 35 890 54 q 884 8 890 15 q 867 0 878 0 l 244 0 m 0 -569 l 957 -569 l 957 -583 l 0 -583 l 0 -569 m 0 28 l 957 28 l 957 0 l 0 0 l 0 28 m 0 701 l 957 701 l 957 694 l 0 694 l 0 701 m 0 1292 l 957 1292 l 957 1278 l 0 1278 l 0 1292 z "},"F":{"ha":903,"x_min":0,"x_max":903,"o":"m 244 -19 q 206 7 206 -19 l 206 1250 q 215 1270 206 1264 q 244 1276 225 1276 l 849 1276 q 866 1269 860 1276 q 872 1242 872 1261 q 866 1215 872 1222 q 849 1207 860 1207 l 282 1207 l 282 674 l 758 674 q 776 666 769 674 q 782 639 782 658 q 776 612 782 619 q 758 604 769 604 l 282 604 l 282 7 q 273 -13 282 -7 q 244 -19 264 -19 m 0 -569 l 903 -569 l 903 -583 l 0 -583 l 0 -569 m 0 28 l 903 28 l 903 0 l 0 0 l 0 28 m 0 701 l 903 701 l 903 694 l 0 694 l 0 701 m 0 1292 l 903 1292 l 903 1278 l 0 1278 l 0 1292 z "},"G":{"ha":1249,"x_min":0,"x_max":1249,"o":"m 638 -26 q 431 22 524 -26 q 270 156 338 69 q 167 365 203 243 q 131 638 131 488 q 148 824 131 736 q 199 985 165 911 q 281 1117 233 1060 q 390 1215 329 1175 q 522 1277 450 1256 q 672 1299 593 1299 q 798 1283 738 1299 q 912 1233 858 1267 q 1008 1144 965 1200 q 1017 1123 1019 1132 q 1003 1101 1015 1114 q 978 1090 988 1090 q 956 1104 968 1090 q 874 1172 918 1144 q 780 1212 831 1199 q 672 1225 729 1225 q 546 1207 606 1225 q 435 1153 486 1189 q 342 1067 383 1118 q 272 951 301 1017 q 226 807 242 886 q 211 638 211 728 q 242 392 211 500 q 331 206 274 283 q 466 89 388 129 q 638 49 544 49 q 767 67 707 49 q 876 126 826 86 q 960 230 925 165 q 1015 385 996 294 q 1035 599 1035 476 l 679 599 q 662 606 668 599 q 656 633 656 614 q 662 660 656 653 q 679 668 668 668 l 1082 668 q 1106 661 1100 668 q 1113 636 1113 654 q 1078 335 1113 460 q 980 129 1043 210 q 829 11 917 49 q 638 -26 742 -26 m 0 -569 l 1249 -569 l 1249 -583 l 0 -583 l 0 -569 m 0 28 l 1249 28 l 1249 0 l 0 0 l 0 28 m 0 701 l 1249 701 l 1249 694 l 0 694 l 0 701 m 0 1292 l 1249 1292 l 1249 1278 l 0 1278 l 0 1292 z "},"H":{"ha":1282,"x_min":0,"x_max":1282,"o":"m 244 -19 q 206 7 206 -19 l 206 1272 q 215 1292 206 1286 q 244 1299 225 1299 q 282 1272 282 1299 l 282 704 l 1000 704 l 1000 1272 q 1010 1292 1000 1286 q 1039 1299 1019 1299 q 1076 1272 1076 1299 l 1076 7 q 1067 -12 1076 -6 q 1039 -19 1058 -19 q 1000 7 1000 -19 l 1000 635 l 282 635 l 282 7 q 273 -12 282 -6 q 244 -19 264 -19 m 0 -569 l 1282 -569 l 1282 -583 l 0 -583 l 0 -569 m 0 28 l 1282 28 l 1282 0 l 0 0 l 0 28 m 0 701 l 1282 701 l 1282 694 l 0 694 l 0 701 m 0 1292 l 1282 1292 l 1282 1278 l 0 1278 l 0 1292 z "},"I":{"ha":488,"x_min":0,"x_max":488,"o":"m 244 -19 q 215 -12 225 -19 q 206 7 206 -6 l 206 1272 q 215 1292 206 1286 q 243 1299 225 1299 q 272 1292 263 1299 q 282 1272 282 1286 l 282 7 q 273 -12 282 -6 q 244 -19 264 -19 m 0 -569 l 488 -569 l 488 -583 l 0 -583 l 0 -569 m 0 28 l 488 28 l 488 0 l 0 0 l 0 28 m 0 701 l 488 701 l 488 694 l 0 694 l 0 701 m 0 1292 l 488 1292 l 488 1278 l 0 1278 l 0 1292 z "},"J":{"ha":939,"x_min":0,"x_max":939,"o":"m 417 -26 q 262 2 329 -26 q 149 87 194 31 q 81 226 104 143 q 82 253 76 244 q 104 265 88 261 q 131 267 121 271 q 146 244 140 263 q 202 133 169 176 q 287 69 235 89 q 417 49 339 49 q 510 62 468 49 q 585 101 553 75 q 640 168 618 128 q 672 263 661 208 q 683 385 683 317 l 683 1272 q 693 1292 683 1286 q 722 1299 703 1299 q 751 1292 742 1299 q 760 1272 760 1286 l 760 388 q 745 240 760 306 q 701 124 731 174 q 631 40 672 74 q 535 -10 589 7 q 417 -26 482 -26 m 0 -569 l 939 -569 l 939 -583 l 0 -583 l 0 -569 m 0 28 l 939 28 l 939 0 l 0 0 l 0 28 m 0 701 l 939 701 l 939 694 l 0 694 l 0 701 m 0 1292 l 939 1292 l 939 1278 l 0 1278 l 0 1292 z "},"K":{"ha":993,"x_min":0,"x_max":993,"o":"m 244 -19 q 215 -13 225 -19 q 206 7 206 -7 l 206 1272 q 244 1299 206 1299 q 282 1272 282 1299 l 282 701 l 889 1289 q 910 1300 900 1301 q 933 1285 921 1299 q 948 1262 947 1271 q 939 1242 949 1253 l 351 675 q 545 447 446 560 q 749 229 644 333 q 958 38 854 125 q 970 17 969 29 q 954 -11 971 6 q 930 -23 942 -24 q 906 -11 918 -22 q 740 138 824 57 q 575 305 656 218 q 420 479 494 392 q 282 649 346 567 l 282 7 q 273 -13 282 -7 q 244 -19 264 -19 m 0 -569 l 993 -569 l 993 -583 l 0 -583 l 0 -569 m 0 28 l 993 28 l 993 0 l 0 0 l 0 28 m 0 701 l 993 701 l 993 694 l 0 694 l 0 701 m 0 1292 l 993 1292 l 993 1278 l 0 1278 l 0 1292 z "},"L":{"ha":903,"x_min":0,"x_max":903,"o":"m 244 0 q 206 32 206 0 l 206 1272 q 215 1292 206 1286 q 244 1299 225 1299 q 273 1292 264 1299 q 282 1272 282 1286 l 282 69 l 843 69 q 861 62 856 69 q 867 35 867 54 q 861 8 867 15 q 843 0 856 0 l 244 0 m 0 -569 l 903 -569 l 903 -583 l 0 -583 l 0 -569 m 0 28 l 903 28 l 903 0 l 0 0 l 0 28 m 0 701 l 903 701 l 903 694 l 0 694 l 0 701 m 0 1292 l 903 1292 l 903 1278 l 0 1278 l 0 1292 z "},"M":{"ha":1515,"x_min":0,"x_max":1515,"o":"m 244 -19 q 206 7 206 -19 l 206 1272 q 215 1292 206 1286 q 244 1299 225 1299 q 273 1293 264 1299 q 289 1275 282 1288 l 758 451 l 1228 1275 q 1244 1293 1235 1288 q 1272 1299 1253 1299 q 1310 1272 1310 1299 l 1310 7 q 1301 -13 1310 -7 q 1272 -19 1293 -19 q 1235 7 1235 -19 l 1235 1142 l 801 386 q 784 367 793 372 q 758 363 775 363 q 733 367 742 363 q 714 386 724 372 l 282 1142 l 282 7 q 273 -13 282 -7 q 244 -19 264 -19 m 0 -569 l 1515 -569 l 1515 -583 l 0 -583 l 0 -569 m 0 28 l 1515 28 l 1515 0 l 0 0 l 0 28 m 0 701 l 1515 701 l 1515 694 l 0 694 l 0 701 m 0 1292 l 1515 1292 l 1515 1278 l 0 1278 l 0 1292 z "},"N":{"ha":1282,"x_min":0,"x_max":1282,"o":"m 244 -19 q 206 7 206 -19 l 206 1272 q 215 1292 206 1286 q 243 1299 225 1299 q 269 1294 260 1299 q 286 1276 278 1289 l 1000 139 l 1000 1272 q 1010 1292 1000 1286 q 1039 1299 1019 1299 q 1076 1272 1076 1299 l 1076 7 q 1067 -13 1076 -7 q 1040 -19 1057 -19 q 1016 -15 1024 -19 q 1000 3 1008 -10 l 282 1146 l 282 7 q 273 -13 282 -7 q 244 -19 264 -19 m 0 -569 l 1282 -569 l 1282 -583 l 0 -583 l 0 -569 m 0 28 l 1282 28 l 1282 0 l 0 0 l 0 28 m 0 701 l 1282 701 l 1282 694 l 0 694 l 0 701 m 0 1292 l 1282 1292 l 1282 1278 l 0 1278 l 0 1292 z "},"O":{"ha":1336,"x_min":0,"x_max":1336,"o":"m 669 -26 q 451 21 550 -26 q 280 156 351 68 q 169 365 208 243 q 131 638 131 488 q 148 824 131 736 q 199 985 165 911 q 280 1117 232 1058 q 388 1215 328 1175 q 519 1277 449 1256 q 669 1299 590 1299 q 887 1251 789 1299 q 1056 1117 985 1204 q 1167 908 1128 1029 q 1206 638 1206 786 q 1188 450 1206 538 q 1137 288 1169 363 q 1056 156 1104 214 q 949 57 1008 97 q 819 -5 889 17 q 669 -26 749 -26 m 669 49 q 795 67 736 49 q 905 120 854 85 q 996 206 956 156 q 1065 323 1036 257 q 1108 467 1093 389 q 1124 638 1124 546 q 1090 882 1124 774 q 996 1067 1057 990 q 852 1185 935 1144 q 669 1225 769 1225 q 543 1207 603 1225 q 432 1153 483 1189 q 340 1067 381 1118 q 271 951 300 1017 q 226 806 242 885 q 211 638 211 728 q 245 392 211 500 q 340 206 279 283 q 485 89 401 129 q 669 49 569 49 m 0 -569 l 1336 -569 l 1336 -583 l 0 -583 l 0 -569 m 0 28 l 1336 28 l 1336 0 l 0 0 l 0 28 m 0 701 l 1336 701 l 1336 694 l 0 694 l 0 701 m 0 1292 l 1336 1292 l 1336 1278 l 0 1278 l 0 1292 z "},"P":{"ha":1011,"x_min":0,"x_max":1011,"o":"m 244 -19 q 206 7 206 -19 l 206 1250 q 216 1270 206 1264 q 246 1276 226 1276 l 519 1276 q 753 1244 660 1276 q 896 1142 847 1213 q 944 957 944 1072 q 909 788 944 860 q 811 665 874 715 q 665 585 749 615 q 483 543 581 556 q 381 533 432 538 q 282 528 329 529 l 282 7 q 273 -13 282 -7 q 244 -19 264 -19 m 282 597 q 347 599 314 597 q 415 606 381 601 q 483 613 450 610 q 681 667 594 626 q 816 778 767 707 q 865 956 865 850 q 826 1102 865 1047 q 711 1182 788 1157 q 519 1207 635 1207 l 282 1207 l 282 597 m 0 -569 l 1011 -569 l 1011 -583 l 0 -583 l 0 -569 m 0 28 l 1011 28 l 1011 0 l 0 0 l 0 28 m 0 701 l 1011 701 l 1011 694 l 0 694 l 0 701 m 0 1292 l 1011 1292 l 1011 1278 l 0 1278 l 0 1292 z "},"Q":{"ha":1336,"x_min":0,"x_max":1336,"o":"m 1010 -235 q 983 -245 994 -246 q 961 -233 971 -244 l 661 193 q 655 217 653 207 q 672 240 657 228 q 698 251 686 251 q 719 236 710 250 l 1018 -190 q 1024 -214 1026 -203 q 1010 -235 1022 -225 m 669 -26 q 451 21 550 -26 q 280 156 351 68 q 169 365 208 243 q 131 638 131 488 q 148 824 131 736 q 199 985 165 911 q 280 1117 232 1058 q 388 1215 328 1175 q 519 1277 449 1256 q 669 1299 590 1299 q 887 1251 789 1299 q 1056 1117 985 1204 q 1167 908 1128 1029 q 1206 638 1206 786 q 1188 450 1206 538 q 1137 288 1169 363 q 1056 156 1104 214 q 949 57 1008 97 q 819 -5 889 17 q 669 -26 749 -26 m 669 49 q 795 67 736 49 q 905 120 854 85 q 996 206 956 156 q 1065 323 1036 257 q 1108 467 1093 389 q 1124 638 1124 546 q 1090 882 1124 774 q 996 1067 1057 990 q 852 1185 935 1144 q 669 1225 769 1225 q 543 1207 603 1225 q 432 1153 483 1189 q 340 1067 381 1118 q 271 951 300 1017 q 226 806 242 885 q 211 638 211 728 q 245 392 211 500 q 340 206 279 283 q 485 89 401 129 q 669 49 569 49 m 0 -569 l 1336 -569 l 1336 -583 l 0 -583 l 0 -569 m 0 28 l 1336 28 l 1336 0 l 0 0 l 0 28 m 0 701 l 1336 701 l 1336 694 l 0 694 l 0 701 m 0 1292 l 1336 1292 l 1336 1278 l 0 1278 l 0 1292 z "},"R":{"ha":1001,"x_min":0,"x_max":1001,"o":"m 244 -19 q 215 -13 225 -19 q 206 8 206 -7 l 206 1250 q 216 1270 206 1264 q 246 1276 226 1276 l 482 1276 q 716 1247 624 1276 q 855 1153 808 1217 q 901 983 901 1089 q 881 860 901 915 q 822 764 860 806 q 733 692 783 722 q 622 640 682 661 q 497 608 563 619 q 367 590 432 596 q 544 401 451 496 q 735 214 636 306 q 938 38 835 122 q 949 17 949 29 q 933 -11 950 6 q 909 -22 921 -22 q 885 -11 897 -22 q 671 177 776 78 q 467 378 565 276 q 282 581 369 479 l 282 8 q 273 -13 282 -7 q 244 -19 264 -19 m 282 650 q 394 657 338 651 q 503 675 450 663 q 604 705 557 688 q 692 748 651 722 q 761 808 732 774 q 807 885 790 842 q 824 983 824 929 q 787 1112 824 1063 q 676 1184 750 1161 q 488 1207 601 1207 l 282 1207 l 282 650 m 0 -569 l 1001 -569 l 1001 -583 l 0 -583 l 0 -569 m 0 28 l 1001 28 l 1001 0 l 0 0 l 0 28 m 0 701 l 1001 701 l 1001 694 l 0 694 l 0 701 m 0 1292 l 1001 1292 l 1001 1278 l 0 1278 l 0 1292 z "},"S":{"ha":993,"x_min":0,"x_max":993,"o":"m 481 -26 q 381 -18 432 -26 q 283 8 331 -10 q 194 54 236 26 q 121 121 153 82 q 110 144 110 133 q 124 165 111 154 q 147 178 136 178 q 175 161 157 179 q 256 100 210 125 q 360 62 303 75 q 481 49 417 49 q 613 67 554 49 q 714 123 672 86 q 778 213 756 160 q 801 333 801 265 q 778 439 801 396 q 715 513 756 482 q 622 569 674 544 q 511 614 569 593 q 410 655 460 633 q 315 705 360 676 q 237 772 271 733 q 183 864 203 811 q 163 986 163 917 q 190 1117 163 1060 q 266 1216 218 1175 q 377 1278 314 1257 q 513 1299 440 1299 q 651 1278 589 1299 q 763 1226 713 1258 q 853 1157 813 1194 q 865 1135 865 1146 q 853 1114 864 1125 q 828 1100 839 1100 q 803 1111 818 1100 q 719 1170 763 1144 q 624 1210 675 1196 q 513 1225 574 1225 q 401 1208 450 1225 q 316 1160 351 1192 q 262 1085 281 1129 q 243 986 243 1042 q 267 869 243 917 q 333 787 292 821 q 429 728 375 753 q 540 683 483 704 q 662 635 601 661 q 772 569 722 608 q 851 474 822 531 q 881 333 881 417 q 853 185 881 251 q 772 72 825 119 q 644 -1 718 24 q 481 -26 571 -26 m 0 -569 l 993 -569 l 993 -583 l 0 -583 l 0 -569 m 0 28 l 993 28 l 993 0 l 0 0 l 0 28 m 0 701 l 993 701 l 993 694 l 0 694 l 0 701 m 0 1292 l 993 1292 l 993 1278 l 0 1278 l 0 1292 z "},"T":{"ha":997,"x_min":0,"x_max":997,"o":"m 499 -19 q 460 7 460 -19 l 460 1207 l 58 1207 q 41 1215 47 1207 q 35 1242 35 1222 q 41 1269 35 1261 q 58 1276 47 1276 l 939 1276 q 956 1269 950 1276 q 963 1243 963 1263 q 956 1215 963 1224 q 939 1207 950 1207 l 536 1207 l 536 7 q 527 -13 536 -7 q 499 -19 518 -19 m 0 -569 l 997 -569 l 997 -583 l 0 -583 l 0 -569 m 0 28 l 997 28 l 997 0 l 0 0 l 0 28 m 0 701 l 997 701 l 997 694 l 0 694 l 0 701 m 0 1292 l 997 1292 l 997 1278 l 0 1278 l 0 1292 z "},"U":{"ha":1246,"x_min":0,"x_max":1246,"o":"m 625 -26 q 440 1 521 -26 q 305 80 360 28 q 222 210 250 132 q 193 389 193 288 l 193 1272 q 202 1292 193 1286 q 231 1299 211 1299 q 260 1292 251 1299 q 268 1272 268 1286 l 268 386 q 309 200 268 275 q 430 87 350 125 q 625 49 510 49 q 819 87 740 49 q 938 200 897 125 q 978 386 978 275 l 978 1272 q 986 1292 978 1286 q 1014 1299 994 1299 q 1053 1272 1053 1299 l 1053 389 q 1003 161 1053 254 q 860 21 954 68 q 625 -26 765 -26 m 0 -569 l 1246 -569 l 1246 -583 l 0 -583 l 0 -569 m 0 28 l 1246 28 l 1246 0 l 0 0 l 0 28 m 0 701 l 1246 701 l 1246 694 l 0 694 l 0 701 m 0 1292 l 1246 1292 l 1246 1278 l 0 1278 l 0 1292 z "},"V":{"ha":1047,"x_min":0,"x_max":1047,"o":"m 524 -19 q 494 -12 503 -19 q 478 13 485 -6 l 40 1257 q 41 1280 36 1271 q 64 1296 46 1289 q 94 1299 83 1303 q 111 1276 106 1294 l 524 94 l 936 1276 q 953 1299 943 1294 q 982 1296 964 1303 q 1006 1280 1001 1289 q 1006 1257 1011 1271 l 569 13 q 553 -12 563 -6 q 524 -19 544 -19 m 0 -569 l 1047 -569 l 1047 -583 l 0 -583 l 0 -569 m 0 28 l 1047 28 l 1047 0 l 0 0 l 0 28 m 0 701 l 1047 701 l 1047 694 l 0 694 l 0 701 m 0 1292 l 1047 1292 l 1047 1278 l 0 1278 l 0 1292 z "},"W":{"ha":1728,"x_min":0,"x_max":1728,"o":"m 443 -19 q 414 -12 424 -19 q 399 13 404 -4 l 40 1257 q 41 1281 36 1271 q 65 1296 46 1290 q 94 1298 83 1301 q 111 1275 106 1294 l 446 103 l 821 1268 q 835 1292 826 1285 q 863 1299 843 1299 q 894 1292 885 1299 q 907 1268 903 1285 l 1279 103 l 1619 1276 q 1636 1298 1625 1294 q 1664 1296 1647 1301 q 1688 1281 1683 1290 q 1688 1257 1692 1271 l 1326 13 q 1310 -12 1321 -4 q 1279 -19 1300 -19 q 1250 -12 1260 -19 q 1233 13 1240 -4 l 864 1178 l 490 13 q 475 -12 485 -4 q 443 -19 465 -19 m 0 -569 l 1728 -569 l 1728 -583 l 0 -583 l 0 -569 m 0 28 l 1728 28 l 1728 0 l 0 0 l 0 28 m 0 701 l 1728 701 l 1728 694 l 0 694 l 0 701 m 0 1292 l 1728 1292 l 1728 1278 l 0 1278 l 0 1292 z "},"X":{"ha":993,"x_min":0,"x_max":993,"o":"m 907 -11 q 880 -19 892 -19 q 860 -6 868 -19 l 496 588 l 132 -6 q 113 -19 124 -18 q 85 -11 101 -19 q 71 3 75 -3 q 67 17 67 10 q 74 31 68 24 l 456 654 l 92 1249 q 87 1271 83 1261 q 106 1292 90 1281 q 133 1301 122 1301 q 154 1285 144 1300 l 503 714 l 853 1285 q 872 1300 861 1299 q 896 1292 882 1301 q 911 1278 907 1285 q 915 1264 915 1271 q 910 1249 915 1257 l 544 649 l 921 31 q 926 9 929 19 q 907 -11 922 -1 m 0 -569 l 993 -569 l 993 -583 l 0 -583 l 0 -569 m 0 28 l 993 28 l 993 0 l 0 0 l 0 28 m 0 701 l 993 701 l 993 694 l 0 694 l 0 701 m 0 1292 l 993 1292 l 993 1278 l 0 1278 l 0 1292 z "},"Y":{"ha":890,"x_min":0,"x_max":890,"o":"m 439 -19 q 401 7 401 -19 l 401 553 l 21 1253 q 19 1276 14 1267 q 40 1293 24 1285 q 68 1299 58 1301 q 88 1278 78 1296 l 439 628 l 801 1276 q 823 1299 813 1296 q 849 1293 833 1301 q 872 1276 868 1285 q 869 1253 875 1267 l 476 554 l 476 7 q 439 -19 476 -19 m 0 -569 l 890 -569 l 890 -583 l 0 -583 l 0 -569 m 0 28 l 890 28 l 890 0 l 0 0 l 0 28 m 0 701 l 890 701 l 890 694 l 0 694 l 0 701 m 0 1292 l 890 1292 l 890 1278 l 0 1278 l 0 1292 z "},"Z":{"ha":885,"x_min":0,"x_max":885,"o":"m 56 0 q 37 7 44 0 q 28 25 29 14 q 32 46 26 36 l 733 1207 l 99 1207 q 81 1215 88 1207 q 75 1242 75 1222 q 81 1269 75 1261 q 99 1276 88 1276 l 808 1276 q 835 1262 828 1276 q 833 1232 843 1247 l 133 69 l 832 69 q 849 63 843 69 q 856 36 856 56 q 849 8 856 17 q 832 0 843 0 l 56 0 m 0 -569 l 885 -569 l 885 -583 l 0 -583 l 0 -569 m 0 28 l 885 28 l 885 0 l 0 0 l 0 28 m 0 701 l 885 701 l 885 694 l 0 694 l 0 701 m 0 1292 l 885 1292 l 885 1278 l 0 1278 l 0 1292 z "},"Æ":{"ha":1392,"x_min":0,"x_max":1392,"o":"m 1303 0 l 751 0 q 722 8 732 0 q 713 32 713 15 l 713 604 l 407 604 l 103 1 q 81 -18 93 -15 q 51 -14 69 -21 q 33 6 36 -6 q 38 32 29 17 l 656 1246 q 676 1270 665 1264 q 708 1276 686 1276 l 1303 1276 q 1319 1269 1314 1276 q 1325 1242 1325 1261 q 1319 1215 1325 1224 q 1303 1207 1314 1207 l 789 1207 l 789 674 l 1211 674 q 1228 666 1222 674 q 1235 639 1235 658 q 1228 612 1235 619 q 1211 604 1222 604 l 789 604 l 789 69 l 1303 69 q 1319 62 1314 69 q 1325 35 1325 54 q 1319 8 1325 15 q 1303 0 1314 0 m 442 674 l 713 674 l 713 1207 l 442 674 m 0 -569 l 1392 -569 l 1392 -583 l 0 -583 l 0 -569 m 0 28 l 1392 28 l 1392 0 l 0 0 l 0 28 m 0 701 l 1392 701 l 1392 694 l 0 694 l 0 701 m 0 1292 l 1392 1292 l 1392 1278 l 0 1278 l 0 1292 z "},"Ð":{"ha":1254,"x_min":0,"x_max":1254,"o":"m 244 0 q 206 26 206 0 l 206 1250 q 215 1270 206 1264 q 244 1276 225 1276 l 506 1276 q 756 1240 643 1276 q 952 1131 869 1203 q 1080 952 1035 1058 q 1125 704 1125 846 q 1098 480 1125 586 q 1015 286 1071 374 q 876 134 960 199 q 681 35 793 69 q 425 0 568 0 l 244 0 m 283 72 l 425 72 q 650 103 550 72 q 824 190 750 133 q 946 326 897 247 q 1019 500 994 404 q 1043 704 1043 596 q 1003 928 1043 833 q 890 1083 963 1022 q 719 1174 817 1144 q 506 1204 621 1204 l 283 1204 l 283 72 m 74 608 q 53 617 58 608 q 47 639 47 625 q 53 664 47 654 q 74 674 58 674 l 592 674 q 613 664 607 674 q 618 639 618 654 q 613 617 618 625 q 592 608 607 608 l 74 608 m 0 -569 l 1254 -569 l 1254 -583 l 0 -583 l 0 -569 m 0 28 l 1254 28 l 1254 0 l 0 0 l 0 28 m 0 701 l 1254 701 l 1254 694 l 0 694 l 0 701 m 0 1292 l 1254 1292 l 1254 1278 l 0 1278 l 0 1292 z "},"Ĳ":{"ha":1426,"x_min":0,"x_max":1426,"o":"m 244 -19 q 215 -13 225 -19 q 206 7 206 -7 l 206 1272 q 215 1292 206 1286 q 244 1299 225 1299 q 272 1292 263 1299 q 282 1272 282 1286 l 282 7 q 273 -13 282 -7 q 244 -19 264 -19 m 906 -26 q 749 2 817 -26 q 637 87 682 31 q 568 226 592 143 q 570 253 564 244 q 592 265 576 261 q 618 267 608 271 q 635 244 628 263 q 690 133 657 176 q 775 69 724 89 q 906 49 826 49 q 999 62 957 49 q 1073 101 1040 75 q 1128 168 1106 128 q 1161 263 1150 208 q 1172 385 1172 317 l 1172 1272 q 1181 1292 1172 1286 q 1210 1299 1190 1299 q 1239 1292 1231 1299 q 1247 1272 1247 1286 l 1247 388 q 1233 240 1247 306 q 1190 124 1218 174 q 1119 40 1161 74 q 1023 -10 1076 7 q 906 -26 969 -26 m 0 -569 l 1426 -569 l 1426 -583 l 0 -583 l 0 -569 m 0 28 l 1426 28 l 1426 0 l 0 0 l 0 28 m 0 701 l 1426 701 l 1426 694 l 0 694 l 0 701 m 0 1292 l 1426 1292 l 1426 1278 l 0 1278 l 0 1292 z "},"Ŋ":{"ha":1282,"x_min":0,"x_max":1282,"o":"m 1076 -174 q 1057 -283 1076 -237 q 1001 -350 1038 -328 q 910 -372 964 -372 q 814 -343 854 -372 q 756 -272 774 -314 q 754 -250 751 -261 q 771 -231 757 -239 q 797 -225 786 -222 q 817 -240 808 -228 q 841 -275 828 -260 q 872 -298 854 -290 q 911 -306 889 -306 q 968 -290 949 -306 q 994 -244 988 -274 q 1001 -174 1001 -214 l 1001 -3 l 282 1146 l 282 7 q 273 -13 282 -7 q 244 -19 264 -19 q 206 7 206 -19 l 206 1272 q 215 1292 206 1286 q 243 1299 225 1299 q 269 1294 260 1299 q 286 1276 278 1289 l 1000 139 l 1000 1272 q 1010 1292 1000 1286 q 1039 1299 1019 1299 q 1076 1272 1076 1299 l 1076 -174 m 0 -569 l 1282 -569 l 1282 -583 l 0 -583 l 0 -569 m 0 28 l 1282 28 l 1282 0 l 0 0 l 0 28 m 0 701 l 1282 701 l 1282 694 l 0 694 l 0 701 m 0 1292 l 1282 1292 l 1282 1278 l 0 1278 l 0 1292 z "},"Œ":{"ha":1844,"x_min":0,"x_max":1844,"o":"m 649 -26 q 436 21 532 -26 q 272 156 340 68 q 167 365 204 243 q 131 638 131 488 q 147 824 131 736 q 196 985 164 911 q 274 1117 228 1058 q 378 1215 319 1175 q 506 1277 436 1256 q 654 1299 575 1299 q 867 1251 774 1299 q 1027 1117 961 1204 q 1126 908 1093 1029 q 1160 638 1160 786 q 1144 450 1160 538 q 1098 288 1128 363 q 1024 156 1068 214 q 922 57 979 97 q 797 -5 865 17 q 649 -26 729 -26 m 649 49 q 772 67 714 49 q 881 120 831 85 q 969 206 931 156 q 1036 323 1008 257 q 1078 467 1064 389 q 1093 638 1093 546 q 1062 882 1093 774 q 973 1067 1031 990 q 834 1185 915 1144 q 653 1225 753 1225 q 529 1207 588 1225 q 422 1153 471 1189 q 333 1067 372 1118 q 267 951 294 1017 q 226 806 240 885 q 211 638 211 728 q 242 392 211 500 q 332 206 274 283 q 471 89 390 129 q 649 49 551 49 m 1132 0 q 1103 8 1113 0 q 1093 32 1093 15 l 1093 1250 q 1103 1270 1093 1264 q 1132 1276 1113 1276 l 1754 1276 q 1772 1269 1765 1276 q 1778 1242 1778 1261 q 1772 1215 1778 1222 q 1754 1207 1765 1207 l 1169 1207 l 1169 710 l 1664 710 q 1681 702 1675 710 q 1688 675 1688 694 q 1681 648 1688 656 q 1664 640 1675 640 l 1169 640 l 1169 69 l 1754 69 q 1772 62 1765 69 q 1778 35 1778 54 q 1772 8 1778 15 q 1754 0 1765 0 l 1132 0 m 0 -569 l 1844 -569 l 1844 -583 l 0 -583 l 0 -569 m 0 28 l 1844 28 l 1844 0 l 0 0 l 0 28 m 0 701 l 1844 701 l 1844 694 l 0 694 l 0 701 m 0 1292 l 1844 1292 l 1844 1278 l 0 1278 l 0 1292 z "},"Þ":{"ha":1046,"x_min":0,"x_max":1046,"o":"m 244 -19 q 215 -13 225 -19 q 206 7 206 -7 l 206 1272 q 215 1292 206 1286 q 244 1299 225 1299 q 273 1292 264 1299 q 282 1272 282 1286 l 282 1096 l 519 1096 q 753 1064 660 1096 q 896 962 847 1032 q 944 776 944 892 q 909 607 944 679 q 811 485 874 535 q 665 405 749 435 q 483 363 581 375 q 381 353 432 357 q 282 347 329 350 l 282 7 q 273 -13 282 -7 q 244 -19 264 -19 m 282 417 q 347 419 314 418 q 415 424 381 421 q 483 432 450 428 q 681 486 594 446 q 816 598 767 526 q 865 775 865 669 q 826 922 865 867 q 711 1001 788 976 q 519 1026 635 1026 l 282 1026 l 282 417 m 0 -569 l 1046 -569 l 1046 -583 l 0 -583 l 0 -569 m 0 28 l 1046 28 l 1046 0 l 0 0 l 0 28 m 0 701 l 1046 701 l 1046 694 l 0 694 l 0 701 m 0 1292 l 1046 1292 l 1046 1278 l 0 1278 l 0 1292 z "},"ẞ":{"ha":1276,"x_min":0,"x_max":1276,"o":"m 739 -26 q 648 -20 690 -26 q 566 -1 606 -14 q 483 31 526 11 q 461 50 465 39 q 465 79 457 61 q 483 100 472 94 q 513 96 493 106 q 586 69 550 81 q 660 53 622 58 q 739 49 699 49 q 858 68 801 49 q 957 127 914 88 q 1025 224 1000 167 q 1050 357 1050 282 q 1030 472 1050 424 q 975 558 1010 521 q 897 626 940 596 q 809 685 854 657 q 721 742 764 713 q 643 808 678 772 q 588 890 608 843 q 568 997 568 936 q 585 1092 568 1049 q 635 1170 603 1136 q 711 1226 668 1204 q 493 1174 579 1213 q 360 1077 407 1136 q 293 940 313 1018 q 274 771 274 863 l 274 10 q 265 -12 274 -6 q 236 -18 257 -18 q 208 -12 217 -18 q 199 10 199 -6 l 199 768 q 216 947 199 865 q 278 1094 233 1029 q 398 1204 322 1158 q 589 1274 474 1250 q 868 1297 704 1297 l 904 1297 q 927 1290 921 1297 q 933 1263 933 1282 q 927 1235 933 1243 q 904 1228 921 1228 q 794 1211 842 1228 q 713 1165 746 1194 q 663 1094 679 1135 q 646 1006 646 1054 q 667 912 646 951 q 722 841 688 872 q 800 782 757 810 q 889 726 843 754 q 978 666 935 699 q 1056 590 1021 633 q 1110 490 1090 547 q 1131 357 1131 433 q 1099 195 1131 267 q 1014 74 1068 124 q 889 -1 960 25 q 739 -26 818 -26 m 0 -569 l 1276 -569 l 1276 -583 l 0 -583 l 0 -569 m 0 28 l 1276 28 l 1276 0 l 0 0 l 0 28 m 0 701 l 1276 701 l 1276 694 l 0 694 l 0 701 m 0 1292 l 1276 1292 l 1276 1278 l 0 1278 l 0 1292 z "},"a":{"ha":865,"x_min":0,"x_max":865,"o":"m 368 -24 q 231 17 292 -24 q 134 136 169 57 q 99 331 99 215 q 112 460 99 400 q 151 567 125 519 q 217 649 178 615 q 306 702 256 683 q 418 721 357 721 q 511 707 465 721 q 603 665 557 693 l 603 688 q 612 709 603 703 q 640 715 621 715 q 668 709 660 715 q 676 689 676 703 l 676 126 q 683 78 676 97 q 703 51 689 60 q 738 42 717 42 q 765 47 751 42 q 791 62 778 51 q 819 88 804 72 q 835 95 826 96 q 853 85 844 94 q 864 67 863 76 q 860 47 865 57 q 822 10 844 26 q 775 -15 800 -6 q 725 -24 750 -24 q 674 -16 696 -24 q 637 8 653 -8 q 613 47 621 24 q 604 100 606 69 q 603 113 604 106 q 603 128 603 121 q 531 33 571 65 q 448 -12 490 0 q 368 -24 406 -24 m 176 336 q 199 185 176 250 q 267 83 222 119 q 381 46 313 46 q 467 65 425 46 q 545 128 510 83 q 603 251 581 174 l 603 596 q 510 641 554 629 q 419 653 465 653 q 338 640 375 653 q 270 600 300 626 q 219 535 240 574 q 188 447 199 497 q 176 336 176 397 m 0 -569 l 865 -569 l 865 -583 l 0 -583 l 0 -569 m 0 28 l 865 28 l 865 0 l 0 0 l 0 28 m 0 701 l 865 701 l 865 694 l 0 694 l 0 701 m 0 1292 l 865 1292 l 865 1278 l 0 1278 l 0 1292 z "},"b":{"ha":831,"x_min":0,"x_max":831,"o":"m 193 -19 q 165 -13 174 -19 q 157 6 157 -7 l 157 1274 q 166 1294 157 1288 q 194 1300 175 1300 q 221 1294 213 1300 q 229 1272 229 1288 l 229 574 q 303 666 263 635 q 385 709 343 697 q 468 721 428 721 q 658 634 585 721 q 732 369 732 547 q 719 236 732 297 q 679 127 706 175 q 614 46 653 79 q 524 -6 575 13 q 413 -24 474 -24 q 318 -8 363 -24 q 229 38 274 7 l 229 6 q 220 -13 229 -7 q 193 -19 211 -19 m 229 107 q 323 57 278 72 q 415 42 368 42 q 495 55 458 42 q 562 94 532 68 q 612 158 592 119 q 643 249 632 197 q 654 365 654 301 q 632 519 654 454 q 566 617 610 583 q 456 651 522 651 q 368 633 410 651 q 291 574 326 614 q 229 465 256 533 l 229 107 m 0 -569 l 831 -569 l 831 -583 l 0 -583 l 0 -569 m 0 28 l 831 28 l 831 0 l 0 0 l 0 28 m 0 701 l 831 701 l 831 694 l 0 694 l 0 701 m 0 1292 l 831 1292 l 831 1278 l 0 1278 l 0 1292 z "},"c":{"ha":726,"x_min":0,"x_max":726,"o":"m 413 -26 q 247 16 317 -26 q 138 139 176 58 q 99 335 99 219 q 120 490 99 419 q 182 612 142 560 q 281 692 222 664 q 413 721 339 721 q 538 693 476 721 q 640 618 600 665 q 647 597 649 607 q 633 574 646 586 q 610 561 621 561 q 590 569 600 561 q 510 630 550 607 q 407 653 469 653 q 313 632 356 653 q 238 570 269 611 q 191 472 207 529 q 175 340 175 414 q 201 185 175 253 q 281 80 228 118 q 413 42 333 42 q 489 53 456 42 q 551 88 522 64 q 613 149 581 113 q 633 158 622 158 q 656 149 644 157 q 671 130 667 140 q 668 110 675 119 q 593 32 636 63 q 503 -12 550 1 q 413 -26 456 -26 m 0 -569 l 726 -569 l 726 -583 l 0 -583 l 0 -569 m 0 28 l 726 28 l 726 0 l 0 0 l 0 28 m 0 701 l 726 701 l 726 694 l 0 694 l 0 701 m 0 1292 l 726 1292 l 726 1278 l 0 1278 l 0 1292 z "},"d":{"ha":874,"x_min":0,"x_max":874,"o":"m 368 -24 q 231 17 292 -24 q 134 136 169 57 q 99 331 99 215 q 112 460 99 400 q 151 567 125 519 q 217 649 178 615 q 307 702 256 683 q 421 721 358 721 q 512 708 467 721 q 604 667 557 694 l 604 1272 q 613 1292 604 1286 q 640 1299 622 1299 q 668 1292 660 1299 q 676 1272 676 1286 l 676 126 q 692 63 676 83 q 738 42 707 42 q 765 47 751 42 q 792 63 779 51 q 819 88 806 74 q 837 94 828 96 q 854 83 846 93 q 865 66 863 75 q 860 47 867 57 q 822 10 844 26 q 775 -15 800 -6 q 725 -24 750 -24 q 658 -8 685 -24 q 617 37 631 8 q 604 104 604 65 q 604 116 604 110 q 604 128 604 122 q 531 33 572 65 q 448 -12 490 0 q 368 -24 406 -24 m 176 336 q 199 185 176 250 q 267 83 222 119 q 381 46 313 46 q 467 65 425 46 q 545 128 510 83 q 604 251 581 174 l 604 594 q 510 640 556 628 q 419 653 465 653 q 338 640 375 653 q 270 600 300 626 q 219 535 240 574 q 188 447 199 497 q 176 336 176 397 m 0 -569 l 874 -569 l 874 -583 l 0 -583 l 0 -569 m 0 28 l 874 28 l 874 0 l 0 0 l 0 28 m 0 701 l 874 701 l 874 694 l 0 694 l 0 701 m 0 1292 l 874 1292 l 874 1278 l 0 1278 l 0 1292 z "},"e":{"ha":731,"x_min":0,"x_max":731,"o":"m 407 -25 q 235 21 304 -25 q 133 144 167 67 q 99 318 99 222 q 122 483 99 408 q 190 610 146 557 q 294 692 233 664 q 432 721 356 721 q 554 697 507 721 q 625 634 601 674 q 649 546 649 594 q 625 451 649 493 q 558 377 601 408 q 456 325 515 346 q 322 293 396 304 q 167 282 249 282 l 167 346 q 288 352 229 344 q 399 374 347 360 q 489 413 450 389 q 549 468 528 436 q 571 542 571 500 q 533 625 571 597 q 426 653 494 653 q 333 633 378 653 q 252 574 288 614 q 196 475 217 535 q 175 333 175 415 q 207 169 175 233 q 292 74 239 106 q 411 43 346 43 q 501 58 465 43 q 562 97 536 74 q 610 147 588 121 q 633 158 622 158 q 656 149 643 157 q 671 129 667 140 q 665 107 675 118 q 606 43 643 74 q 519 -6 569 13 q 407 -25 469 -25 m 0 -569 l 731 -569 l 731 -583 l 0 -583 l 0 -569 m 0 28 l 731 28 l 731 0 l 0 0 l 0 28 m 0 701 l 731 701 l 731 694 l 0 694 l 0 701 m 0 1292 l 731 1292 l 731 1278 l 0 1278 l 0 1292 z "},"g":{"ha":831,"x_min":0,"x_max":831,"o":"m 390 -610 q 231 -572 294 -610 q 132 -469 168 -533 q 128 -444 125 -456 q 147 -422 131 -433 q 174 -414 164 -411 q 192 -429 185 -417 q 274 -514 226 -486 q 397 -542 321 -542 q 508 -513 461 -542 q 579 -426 554 -485 q 604 -275 604 -368 l 604 128 q 531 33 572 65 q 448 -12 490 0 q 368 -24 406 -24 q 231 17 292 -24 q 134 136 169 57 q 99 331 99 215 q 112 460 99 400 q 151 567 125 519 q 217 649 178 615 q 306 702 256 683 q 418 721 357 721 q 512 708 465 721 q 604 667 558 694 l 604 689 q 613 709 604 703 q 640 715 621 715 q 668 709 660 715 q 676 689 676 703 l 676 -279 q 642 -462 676 -389 q 543 -573 607 -536 q 390 -610 479 -610 m 381 46 q 467 65 425 46 q 545 129 510 85 q 604 251 581 174 l 604 594 q 510 640 556 628 q 419 653 464 653 q 338 640 375 653 q 270 600 300 626 q 219 535 240 574 q 188 447 199 497 q 176 336 176 397 q 199 185 176 250 q 267 83 222 119 q 381 46 313 46 m 0 -569 l 831 -569 l 831 -583 l 0 -583 l 0 -569 m 0 28 l 831 28 l 831 0 l 0 0 l 0 28 m 0 701 l 831 701 l 831 694 l 0 694 l 0 701 m 0 1292 l 831 1292 l 831 1278 l 0 1278 l 0 1292 z "},"h":{"ha":904,"x_min":0,"x_max":906,"o":"m 761 -24 q 711 -15 733 -24 q 674 11 689 -6 q 652 53 660 28 q 644 114 644 79 l 644 453 q 605 599 644 546 q 476 651 565 651 q 401 640 438 651 q 331 605 364 629 q 272 540 299 581 q 229 438 246 499 l 229 6 q 220 -15 229 -8 q 192 -21 211 -21 q 165 -15 174 -21 q 157 6 157 -8 l 157 1272 q 165 1292 157 1286 q 192 1299 174 1299 q 220 1292 211 1299 q 229 1272 229 1286 l 229 563 q 282 638 253 608 q 345 686 311 668 q 415 713 379 704 q 486 721 451 721 q 605 694 553 721 q 687 612 657 668 q 717 464 717 556 l 717 131 q 723 83 717 103 q 742 53 729 64 q 775 43 756 43 q 803 47 790 43 q 831 62 817 51 q 857 86 844 72 q 876 94 867 94 q 893 83 885 93 q 903 66 901 75 q 899 47 906 57 q 860 10 883 26 q 813 -15 838 -7 q 761 -24 788 -24 m 0 -569 l 904 -569 l 904 -583 l 0 -583 l 0 -569 m 0 28 l 904 28 l 904 0 l 0 0 l 0 28 m 0 701 l 904 701 l 904 694 l 0 694 l 0 701 m 0 1292 l 904 1292 l 904 1278 l 0 1278 l 0 1292 z "},"i":{"ha":418,"x_min":0,"x_max":418,"o":"m 267 -24 q 179 11 210 -24 q 149 114 149 46 l 149 689 q 157 709 149 703 q 183 715 165 715 q 212 709 203 715 q 221 689 221 703 l 221 131 q 235 65 221 88 q 281 43 249 43 q 310 48 296 43 q 338 63 324 53 q 365 86 351 72 q 382 94 372 94 q 400 83 392 93 q 410 66 408 75 q 406 47 411 57 q 367 10 390 26 q 319 -15 344 -6 q 267 -24 293 -24 m 185 949 q 139 965 154 949 q 124 1017 124 982 q 139 1069 124 1051 q 185 1086 154 1086 q 229 1069 214 1086 q 244 1017 244 1051 q 230 965 246 982 q 185 949 214 949 m 0 -569 l 418 -569 l 418 -583 l 0 -583 l 0 -569 m 0 28 l 418 28 l 418 0 l 0 0 l 0 28 m 0 701 l 418 701 l 418 694 l 0 694 l 0 701 m 0 1292 l 418 1292 l 418 1278 l 0 1278 l 0 1292 z "},"ı":{"ha":418,"x_min":0,"x_max":418,"o":"m 267 -24 q 216 -15 238 -24 q 179 11 194 -6 q 156 53 164 28 q 149 114 149 79 l 149 689 q 157 709 149 703 q 183 715 165 715 q 212 709 203 715 q 221 689 221 703 l 221 131 q 227 83 221 103 q 247 53 233 64 q 281 43 260 43 q 310 48 296 43 q 338 63 324 53 q 365 88 351 74 q 383 94 374 96 q 400 82 392 93 q 410 67 407 75 q 406 49 413 58 q 367 11 390 28 q 319 -15 344 -6 q 267 -24 293 -24 m 0 -569 l 418 -569 l 418 -583 l 0 -583 l 0 -569 m 0 28 l 418 28 l 418 0 l 0 0 l 0 28 m 0 701 l 418 701 l 418 694 l 0 694 l 0 701 m 0 1292 l 418 1292 l 418 1278 l 0 1278 l 0 1292 z "},"j":{"ha":372,"x_min":-94,"x_max":372,"o":"m 58 -608 q -35 -581 4 -608 q -90 -512 -74 -553 q -92 -490 -94 -500 q -76 -472 -89 -479 q -49 -465 -60 -462 q -31 -481 -39 -468 q 7 -524 -14 -508 q 60 -540 28 -540 q 129 -507 113 -540 q 146 -418 146 -474 l 146 689 q 155 709 146 703 q 182 715 164 715 q 210 709 201 715 q 219 689 219 703 l 219 -418 q 201 -522 219 -479 q 147 -587 182 -565 q 58 -608 111 -608 m 181 949 q 135 965 150 949 q 121 1017 121 982 q 135 1069 121 1051 q 181 1086 150 1086 q 226 1069 211 1086 q 242 1017 242 1051 q 226 965 242 982 q 181 949 211 949 m 0 -569 l 372 -569 l 372 -583 l 0 -583 l 0 -569 m 0 28 l 372 28 l 372 0 l 0 0 l 0 28 m 0 701 l 372 701 l 372 694 l 0 694 l 0 701 m 0 1292 l 372 1292 l 372 1278 l 0 1278 l 0 1292 z "},"ȷ":{"ha":372,"x_min":-93,"x_max":372,"o":"m 58 -608 q -33 -581 4 -608 q -89 -511 -71 -553 q -89 -489 -93 -499 q -74 -472 -85 -479 q -46 -465 -56 -462 q -28 -481 -36 -468 q 8 -525 -12 -510 q 60 -540 28 -540 q 129 -506 113 -540 q 146 -417 146 -472 l 146 689 q 155 709 146 703 q 182 715 164 715 q 210 709 201 715 q 219 689 219 703 l 219 -418 q 201 -522 219 -479 q 147 -587 182 -565 q 58 -608 111 -608 m 0 -569 l 372 -569 l 372 -583 l 0 -583 l 0 -569 m 0 28 l 372 28 l 372 0 l 0 0 l 0 28 m 0 701 l 372 701 l 372 694 l 0 694 l 0 701 m 0 1292 l 372 1292 l 372 1278 l 0 1278 l 0 1292 z "},"k":{"ha":783,"x_min":0,"x_max":785,"o":"m 192 -21 q 165 -15 174 -21 q 157 6 157 -8 l 157 1272 q 165 1292 157 1286 q 192 1299 174 1299 q 220 1292 211 1299 q 229 1272 229 1286 l 229 414 l 593 704 q 620 715 607 715 q 643 700 633 714 q 654 678 651 690 q 642 656 657 667 l 294 381 q 428 204 376 271 q 513 103 481 138 q 567 56 544 68 q 613 44 590 44 q 648 50 631 44 q 685 70 665 56 q 726 110 704 85 q 746 121 736 121 q 767 113 756 121 q 782 94 779 106 q 776 74 785 83 q 711 10 743 31 q 651 -18 679 -11 q 606 -25 624 -25 q 538 -10 569 -25 q 466 45 506 6 q 369 157 426 85 q 229 342 313 229 l 229 6 q 220 -15 229 -8 q 192 -21 211 -21 m 0 -569 l 783 -569 l 783 -583 l 0 -583 l 0 -569 m 0 28 l 783 28 l 783 0 l 0 0 l 0 28 m 0 701 l 783 701 l 783 694 l 0 694 l 0 701 m 0 1292 l 783 1292 l 783 1278 l 0 1278 l 0 1292 z "},"l":{"ha":419,"x_min":0,"x_max":419,"o":"m 267 -24 q 181 11 211 -24 q 150 114 150 46 l 150 1272 q 158 1292 150 1286 q 185 1299 167 1299 q 213 1292 204 1299 q 222 1272 222 1286 l 222 131 q 236 65 222 88 q 281 43 250 43 q 310 47 296 43 q 338 62 324 51 q 365 86 351 72 q 383 94 374 94 q 401 83 392 94 q 410 67 408 76 q 407 49 413 58 q 369 10 392 26 q 319 -15 346 -6 q 267 -24 293 -24 m 0 -569 l 419 -569 l 419 -583 l 0 -583 l 0 -569 m 0 28 l 419 28 l 419 0 l 0 0 l 0 28 m 0 701 l 419 701 l 419 694 l 0 694 l 0 701 m 0 1292 l 419 1292 l 419 1278 l 0 1278 l 0 1292 z "},"m":{"ha":1338,"x_min":0,"x_max":1340,"o":"m 1193 -24 q 1144 -15 1165 -24 q 1108 11 1122 -6 q 1085 53 1093 28 q 1078 114 1078 79 l 1078 453 q 1062 560 1078 515 q 1010 628 1046 604 q 918 651 975 651 q 843 639 881 651 q 772 599 806 626 q 713 524 739 571 q 672 406 688 476 l 639 406 q 676 553 649 493 q 744 650 704 613 q 833 704 785 688 q 929 721 881 721 q 1042 694 992 721 q 1122 612 1092 668 q 1151 464 1151 556 l 1151 131 q 1157 83 1151 103 q 1176 53 1163 64 q 1208 43 1189 43 q 1238 47 1225 43 q 1265 61 1251 51 q 1292 86 1278 71 q 1310 94 1300 94 q 1328 83 1319 93 q 1338 67 1335 76 q 1333 47 1340 57 q 1295 10 1318 26 q 1247 -15 1272 -6 q 1193 -24 1221 -24 m 183 -21 q 157 -15 165 -21 q 149 6 149 -8 l 149 689 q 157 709 149 703 q 183 715 165 715 q 212 709 203 715 q 221 689 221 703 l 221 565 q 273 642 243 611 q 335 690 303 672 q 401 714 368 707 q 464 721 435 721 q 577 694 526 721 q 658 612 628 668 q 688 464 688 556 l 688 6 q 678 -15 688 -8 q 650 -21 669 -21 q 622 -15 631 -21 q 614 6 614 -8 l 614 453 q 598 560 614 515 q 547 628 582 604 q 453 651 511 651 q 385 640 419 651 q 319 605 350 629 q 263 540 288 581 q 221 439 238 499 l 221 6 q 212 -15 221 -8 q 183 -21 203 -21 m 0 -569 l 1338 -569 l 1338 -583 l 0 -583 l 0 -569 m 0 28 l 1338 28 l 1338 0 l 0 0 l 0 28 m 0 701 l 1338 701 l 1338 694 l 0 694 l 0 701 m 0 1292 l 1338 1292 l 1338 1278 l 0 1278 l 0 1292 z "},"n":{"ha":897,"x_min":0,"x_max":899,"o":"m 753 -24 q 703 -15 725 -24 q 665 11 681 -6 q 642 53 650 28 q 635 114 635 79 l 635 453 q 618 560 635 515 q 565 628 601 604 q 468 651 528 651 q 392 640 429 651 q 322 605 354 629 q 263 539 289 581 q 221 436 238 497 l 221 6 q 212 -15 221 -8 q 183 -21 203 -21 q 157 -15 165 -21 q 149 6 149 -8 l 149 689 q 157 709 149 703 q 183 715 165 715 q 212 709 203 715 q 221 689 221 703 l 221 563 q 274 638 244 607 q 337 686 303 668 q 406 713 371 704 q 478 721 442 721 q 597 694 544 721 q 679 612 649 668 q 710 464 710 556 l 710 131 q 715 83 710 103 q 734 53 721 64 q 768 43 747 43 q 796 47 782 43 q 824 62 810 51 q 851 86 838 72 q 869 94 860 94 q 888 83 878 93 q 897 66 896 75 q 892 47 899 57 q 853 10 876 26 q 806 -15 831 -7 q 753 -24 781 -24 m 0 -569 l 897 -569 l 897 -583 l 0 -583 l 0 -569 m 0 28 l 897 28 l 897 0 l 0 0 l 0 28 m 0 701 l 897 701 l 897 694 l 0 694 l 0 701 m 0 1292 l 897 1292 l 897 1278 l 0 1278 l 0 1292 z "},"o":{"ha":818,"x_min":0,"x_max":818,"o":"m 410 -26 q 245 22 315 -26 q 137 153 175 69 q 99 347 99 238 q 122 499 99 431 q 187 617 144 567 q 285 694 229 667 q 410 721 342 721 q 571 674 501 721 q 680 542 640 626 q 719 347 719 457 q 705 224 719 281 q 664 121 690 167 q 600 42 638 75 q 515 -9 563 8 q 410 -26 467 -26 m 410 43 q 507 65 464 43 q 580 127 550 86 q 626 224 610 168 q 643 347 643 281 q 615 506 643 438 q 534 613 586 575 q 410 651 482 651 q 312 630 356 651 q 238 568 268 608 q 192 472 208 528 q 175 347 175 415 q 203 188 175 257 q 285 81 232 119 q 410 43 338 43 m 0 -569 l 818 -569 l 818 -583 l 0 -583 l 0 -569 m 0 28 l 818 28 l 818 0 l 0 0 l 0 28 m 0 701 l 818 701 l 818 694 l 0 694 l 0 701 m 0 1292 l 818 1292 l 818 1278 l 0 1278 l 0 1292 z "},"p":{"ha":831,"x_min":0,"x_max":831,"o":"m 193 -604 q 165 -598 174 -604 q 157 -578 157 -592 l 157 689 q 166 709 157 703 q 194 715 175 715 q 221 709 213 715 q 229 689 229 703 l 229 572 q 303 665 263 633 q 385 709 343 697 q 468 721 428 721 q 658 634 585 721 q 732 369 732 547 q 719 236 732 297 q 679 127 706 175 q 613 46 653 79 q 523 -6 574 13 q 411 -24 472 -24 q 318 -8 363 -24 q 229 38 274 7 l 229 -578 q 220 -598 229 -592 q 193 -604 211 -604 m 229 108 q 324 58 278 74 q 414 43 369 43 q 495 56 458 43 q 561 94 532 68 q 611 158 590 119 q 643 249 632 197 q 654 365 654 301 q 632 519 654 454 q 566 617 610 583 q 456 651 522 651 q 368 633 410 651 q 291 572 326 614 q 229 463 256 531 l 229 108 m 0 -569 l 831 -569 l 831 -583 l 0 -583 l 0 -569 m 0 28 l 831 28 l 831 0 l 0 0 l 0 28 m 0 701 l 831 701 l 831 694 l 0 694 l 0 701 m 0 1292 l 831 1292 l 831 1278 l 0 1278 l 0 1292 z "},"q":{"ha":831,"x_min":0,"x_max":831,"o":"m 368 -24 q 231 17 292 -24 q 134 136 169 57 q 99 331 99 215 q 112 460 99 400 q 151 567 125 519 q 217 649 178 615 q 306 702 256 683 q 418 721 357 721 q 512 708 467 721 q 604 667 557 694 l 604 689 q 613 709 604 703 q 640 715 622 715 q 668 709 660 715 q 676 689 676 703 l 676 -578 q 667 -598 676 -592 q 639 -604 658 -604 q 613 -598 621 -604 q 604 -578 604 -592 l 604 124 q 530 32 571 64 q 447 -12 489 0 q 368 -24 406 -24 m 176 336 q 199 185 176 250 q 267 83 222 119 q 381 46 313 46 q 467 65 425 46 q 545 128 510 83 q 604 251 581 174 l 604 594 q 510 640 556 628 q 419 653 465 653 q 338 640 375 653 q 270 600 300 626 q 219 535 240 574 q 188 447 199 497 q 176 336 176 397 m 0 -569 l 831 -569 l 831 -583 l 0 -583 l 0 -569 m 0 28 l 831 28 l 831 0 l 0 0 l 0 28 m 0 701 l 831 701 l 831 694 l 0 694 l 0 701 m 0 1292 l 831 1292 l 831 1278 l 0 1278 l 0 1292 z "},"r":{"ha":626,"x_min":0,"x_max":626,"o":"m 183 -21 q 157 -15 165 -21 q 149 6 149 -8 l 149 689 q 157 709 149 703 q 183 715 165 715 q 212 709 203 715 q 221 689 221 703 l 221 565 q 269 638 242 608 q 326 685 296 667 q 389 713 357 704 q 450 721 421 721 q 525 710 489 721 q 581 688 561 700 q 594 671 592 681 q 586 643 596 661 q 569 626 579 629 q 547 626 560 622 q 501 642 529 633 q 439 651 472 651 q 372 639 404 651 q 310 601 339 626 q 258 535 281 575 q 221 439 236 494 l 221 6 q 212 -15 221 -8 q 183 -21 203 -21 m 0 -569 l 626 -569 l 626 -583 l 0 -583 l 0 -569 m 0 28 l 626 28 l 626 0 l 0 0 l 0 28 m 0 701 l 626 701 l 626 694 l 0 694 l 0 701 m 0 1292 l 626 1292 l 626 1278 l 0 1278 l 0 1292 z "},"s":{"ha":668,"x_min":0,"x_max":668,"o":"m 346 -26 q 232 -10 282 -26 q 146 28 182 6 q 93 69 110 51 q 85 91 83 81 q 97 115 88 101 q 119 127 108 126 q 140 118 129 128 q 236 60 185 82 q 350 38 288 38 q 434 56 399 38 q 489 108 469 75 q 508 185 508 142 q 481 262 508 235 q 410 304 453 289 q 319 333 367 319 q 227 368 271 347 q 156 426 183 389 q 128 528 128 464 q 156 626 128 583 q 235 695 183 669 q 356 721 286 721 q 450 708 407 721 q 526 674 493 694 q 579 631 558 653 q 586 610 589 619 q 574 589 583 600 q 553 579 565 579 q 531 588 542 579 q 446 639 486 621 q 351 657 406 657 q 241 624 279 657 q 203 535 203 590 q 230 458 203 486 q 301 415 257 431 q 394 385 344 399 q 486 350 443 371 q 557 292 529 329 q 585 192 585 256 q 559 88 585 139 q 481 6 533 38 q 346 -26 429 -26 m 0 -569 l 668 -569 l 668 -583 l 0 -583 l 0 -569 m 0 28 l 668 28 l 668 0 l 0 0 l 0 28 m 0 701 l 668 701 l 668 694 l 0 694 l 0 701 m 0 1292 l 668 1292 l 668 1278 l 0 1278 l 0 1292 z "},"t":{"ha":539,"x_min":0,"x_max":539,"o":"m 333 -24 q 252 -3 285 -24 q 203 56 219 17 q 188 149 188 94 l 188 628 l 79 628 q 59 635 65 628 q 53 660 53 643 q 59 686 53 678 q 79 694 65 694 l 188 694 l 188 988 q 196 1008 188 1001 q 222 1014 204 1014 q 251 1008 242 1014 q 261 988 261 1001 l 261 694 l 450 694 q 472 686 465 694 q 478 660 478 678 q 472 635 478 643 q 450 628 465 628 l 261 628 l 261 165 q 277 76 261 108 q 342 43 293 43 q 401 63 376 43 q 450 110 426 82 q 470 120 460 122 q 492 110 481 118 q 503 90 501 100 q 500 69 506 79 q 455 19 481 40 q 399 -12 429 -1 q 333 -24 368 -24 m 0 -569 l 539 -569 l 539 -583 l 0 -583 l 0 -569 m 0 28 l 539 28 l 539 0 l 0 0 l 0 28 m 0 701 l 539 701 l 539 694 l 0 694 l 0 701 m 0 1292 l 539 1292 l 539 1278 l 0 1278 l 0 1292 z "},"u":{"ha":897,"x_min":0,"x_max":897,"o":"m 375 -25 q 257 2 308 -25 q 177 85 206 29 q 149 231 149 142 l 149 689 q 157 708 149 701 q 183 714 165 714 q 212 708 203 714 q 221 689 221 701 l 221 238 q 238 133 221 176 q 292 65 256 89 q 385 42 328 42 q 463 54 425 42 q 532 92 500 67 q 589 160 564 118 q 628 258 614 201 l 628 689 q 637 709 628 703 q 665 715 646 715 q 692 709 683 715 q 700 689 700 703 l 700 129 q 706 81 700 101 q 726 51 713 61 q 760 40 740 40 q 788 45 774 40 q 815 60 801 50 q 843 85 829 69 q 861 92 851 93 q 879 82 871 92 q 888 65 886 75 q 883 47 890 56 q 846 10 868 26 q 799 -17 824 -7 q 746 -26 774 -26 q 697 -18 718 -26 q 661 7 676 -10 q 638 49 646 24 q 628 106 629 74 l 628 135 q 577 57 607 88 q 514 8 547 26 q 445 -17 481 -10 q 375 -25 410 -25 m 0 -569 l 897 -569 l 897 -583 l 0 -583 l 0 -569 m 0 28 l 897 28 l 897 0 l 0 0 l 0 28 m 0 701 l 897 701 l 897 694 l 0 694 l 0 701 m 0 1292 l 897 1292 l 897 1278 l 0 1278 l 0 1292 z "},"v":{"ha":707,"x_min":0,"x_max":707,"o":"m 353 -21 q 326 -14 333 -21 q 315 6 319 -7 l 47 672 q 51 702 40 689 q 83 715 61 715 q 108 709 100 715 q 119 689 115 703 l 354 92 l 585 689 q 598 709 590 703 q 621 715 606 715 q 657 703 647 715 q 658 672 667 692 l 390 6 q 378 -14 386 -7 q 353 -21 371 -21 m 0 -569 l 707 -569 l 707 -583 l 0 -583 l 0 -569 m 0 28 l 707 28 l 707 0 l 0 0 l 0 28 m 0 701 l 707 701 l 707 694 l 0 694 l 0 701 m 0 1292 l 707 1292 l 707 1278 l 0 1278 l 0 1292 z "},"w":{"ha":1118,"x_min":0,"x_max":1118,"o":"m 306 -21 q 278 -13 286 -21 q 265 6 269 -6 l 47 672 q 50 702 40 689 q 83 715 60 715 q 107 709 99 715 q 118 689 115 703 l 307 92 l 519 689 q 534 709 525 703 q 560 715 543 715 q 583 709 575 715 q 596 689 592 703 l 813 92 l 997 689 q 1010 709 1001 703 q 1033 715 1018 715 q 1067 703 1058 715 q 1068 669 1076 690 l 851 6 q 838 -13 847 -6 q 811 -21 829 -21 q 785 -13 793 -21 q 774 6 778 -6 l 558 597 l 344 6 q 333 -13 342 -6 q 306 -21 324 -21 m 0 -569 l 1118 -569 l 1118 -583 l 0 -583 l 0 -569 m 0 28 l 1118 28 l 1118 0 l 0 0 l 0 28 m 0 701 l 1118 701 l 1118 694 l 0 694 l 0 701 m 0 1292 l 1118 1292 l 1118 1278 l 0 1278 l 0 1292 z "},"x":{"ha":742,"x_min":0,"x_max":742,"o":"m 668 29 q 676 6 678 17 q 663 -12 674 -6 q 639 -19 653 -19 q 616 -15 626 -21 q 592 7 606 -10 l 368 294 l 144 10 q 124 -12 132 -6 q 103 -18 115 -18 q 69 -3 81 -18 q 72 31 57 11 l 325 349 l 78 665 q 69 691 67 681 q 81 708 71 701 q 101 715 90 714 q 128 712 119 718 q 147 693 138 706 l 374 404 l 597 686 q 618 709 610 703 q 639 715 626 715 q 665 709 654 715 q 677 692 675 703 q 668 667 679 681 l 417 350 l 668 29 m 0 -569 l 742 -569 l 742 -583 l 0 -583 l 0 -569 m 0 28 l 742 28 l 742 0 l 0 0 l 0 28 m 0 701 l 742 701 l 742 694 l 0 694 l 0 701 m 0 1292 l 742 1292 l 742 1278 l 0 1278 l 0 1292 z "},"z":{"ha":688,"x_min":0,"x_max":688,"o":"m 119 0 q 90 19 94 0 q 93 50 85 38 l 514 625 l 122 625 q 101 633 108 625 q 94 660 94 640 q 101 686 94 678 q 122 694 108 694 l 593 694 q 614 686 607 694 q 622 666 621 678 q 614 642 622 654 l 197 69 l 610 69 q 631 61 624 69 q 638 32 638 53 q 631 8 638 15 q 610 0 624 0 l 119 0 m 0 -569 l 688 -569 l 688 -583 l 0 -583 l 0 -569 m 0 28 l 688 28 l 688 0 l 0 0 l 0 28 m 0 701 l 688 701 l 688 694 l 0 694 l 0 701 m 0 1292 l 688 1292 l 688 1278 l 0 1278 l 0 1292 z "},"æ":{"ha":1242,"x_min":0,"x_max":1242,"o":"m 99 297 q 115 428 99 365 q 161 544 131 490 q 237 637 192 597 q 340 699 282 676 q 469 721 399 721 q 577 711 529 721 q 670 685 625 701 q 764 647 715 668 q 707 490 728 569 q 686 331 686 411 q 716 168 686 232 q 796 74 746 104 q 904 43 846 43 q 997 58 957 43 q 1068 97 1038 74 q 1121 147 1099 121 q 1143 158 1132 158 q 1165 149 1154 157 q 1181 129 1176 140 q 1176 107 1185 118 q 1112 43 1153 74 q 1018 -6 1071 13 q 903 -25 965 -25 q 747 19 813 -25 q 647 142 682 64 q 613 318 613 219 q 623 447 613 389 q 649 554 633 506 q 682 640 665 603 l 707 589 q 590 635 643 617 q 464 653 536 653 q 347 626 400 653 q 256 553 294 600 q 197 442 218 506 q 176 303 176 378 q 192 166 176 224 q 242 77 208 108 q 326 46 276 46 q 413 71 372 46 q 492 151 454 96 q 567 299 531 207 q 640 525 604 390 l 697 511 q 620 262 660 364 q 535 97 581 160 q 436 5 489 33 q 319 -24 383 -24 q 159 59 219 -24 q 99 297 99 142 m 1160 546 q 1135 448 1160 490 q 1067 374 1111 406 q 961 322 1022 343 q 825 291 900 301 q 665 281 750 281 l 665 346 q 793 351 732 344 q 907 374 854 358 q 999 413 960 389 q 1060 468 1038 436 q 1082 542 1082 500 q 1038 625 1082 597 q 925 653 993 653 q 821 636 872 653 q 725 586 769 619 l 694 650 q 803 702 750 683 q 932 721 857 721 q 1097 674 1035 721 q 1160 546 1160 628 m 0 -569 l 1242 -569 l 1242 -583 l 0 -583 l 0 -569 m 0 28 l 1242 28 l 1242 0 l 0 0 l 0 28 m 0 701 l 1242 701 l 1242 694 l 0 694 l 0 701 m 0 1292 l 1242 1292 l 1242 1278 l 0 1278 l 0 1292 z "},"ð":{"ha":838,"x_min":0,"x_max":838,"o":"m 408 -26 q 248 21 313 -26 q 150 152 183 68 q 117 347 117 236 q 139 498 117 429 q 202 617 161 567 q 299 694 243 667 q 422 721 356 721 q 540 696 486 721 q 638 622 593 671 q 588 799 621 715 q 509 958 556 882 q 403 1106 463 1035 q 274 1246 344 1176 q 263 1268 261 1257 q 278 1292 265 1279 q 322 1294 301 1314 q 465 1143 400 1219 q 581 986 531 1067 q 667 817 632 906 q 719 629 701 729 q 736 417 736 529 q 710 224 736 307 q 639 85 685 142 q 534 1 593 29 q 408 -26 475 -26 m 408 43 q 503 65 458 43 q 584 133 549 88 q 640 249 619 179 q 660 417 660 319 q 658 468 660 443 q 656 517 657 493 q 551 616 610 581 q 422 651 493 651 q 326 628 368 651 q 253 565 283 606 q 208 469 224 524 q 193 347 193 414 q 218 190 193 258 q 291 82 243 121 q 408 43 339 43 m 321 913 q 298 911 308 906 q 281 933 288 917 q 279 956 276 947 q 296 972 282 965 l 672 1149 q 713 1129 700 1163 q 715 1105 718 1114 q 700 1090 713 1096 l 321 913 m 0 -569 l 838 -569 l 838 -583 l 0 -583 l 0 -569 m 0 28 l 838 28 l 838 0 l 0 0 l 0 28 m 0 701 l 838 701 l 838 694 l 0 694 l 0 701 m 0 1292 l 838 1292 l 838 1278 l 0 1278 l 0 1292 z "},"ĳ":{"ha":790,"x_min":0,"x_max":790,"o":"m 267 -24 q 179 11 210 -24 q 149 114 149 46 l 149 689 q 157 709 149 703 q 183 715 165 715 q 212 709 203 715 q 221 689 221 703 l 221 131 q 235 65 221 88 q 281 43 249 43 q 310 48 296 43 q 338 63 324 53 q 365 86 351 72 q 382 94 372 94 q 400 83 392 93 q 410 66 408 75 q 406 47 411 57 q 367 10 390 26 q 319 -15 344 -6 q 267 -24 293 -24 m 185 949 q 139 965 154 949 q 124 1017 124 982 q 139 1069 124 1051 q 185 1086 154 1086 q 229 1069 214 1086 q 244 1017 244 1051 q 230 965 246 982 q 185 949 214 949 m 476 -608 q 383 -581 422 -608 q 328 -512 344 -553 q 327 -490 324 -500 q 343 -472 331 -479 q 369 -465 360 -462 q 388 -481 379 -468 q 425 -524 404 -508 q 478 -540 446 -540 q 547 -507 531 -540 q 564 -418 564 -474 l 564 689 q 573 709 564 703 q 600 715 582 715 q 628 709 619 715 q 638 689 638 703 l 638 -418 q 619 -522 638 -479 q 565 -587 600 -565 q 476 -608 529 -608 m 600 949 q 554 965 569 949 q 539 1017 539 982 q 554 1069 539 1051 q 600 1086 569 1086 q 645 1069 631 1086 q 660 1017 660 1051 q 645 965 660 982 q 600 949 631 949 m 0 -569 l 790 -569 l 790 -583 l 0 -583 l 0 -569 m 0 28 l 790 28 l 790 0 l 0 0 l 0 28 m 0 701 l 790 701 l 790 694 l 0 694 l 0 701 m 0 1292 l 790 1292 l 790 1278 l 0 1278 l 0 1292 z "},"ŋ":{"ha":851,"x_min":0,"x_max":851,"o":"m 710 -164 q 691 -267 710 -225 q 636 -332 672 -310 q 549 -354 600 -354 q 456 -326 494 -354 q 400 -258 417 -299 q 398 -236 394 -247 q 414 -217 401 -225 q 441 -211 431 -208 q 460 -226 451 -214 q 497 -271 476 -254 q 550 -287 518 -287 q 619 -253 603 -287 q 635 -164 635 -219 l 635 453 q 618 560 635 515 q 565 628 601 604 q 468 651 528 651 q 392 640 429 651 q 322 605 354 629 q 263 539 289 581 q 221 436 238 497 l 221 6 q 212 -15 221 -8 q 183 -21 203 -21 q 157 -15 165 -21 q 149 6 149 -8 l 149 689 q 157 709 149 703 q 183 715 165 715 q 212 709 203 715 q 221 689 221 703 l 221 563 q 274 638 244 607 q 337 686 303 668 q 406 713 371 704 q 478 721 442 721 q 597 694 544 721 q 679 612 649 668 q 710 464 710 556 l 710 -164 m 0 -569 l 851 -569 l 851 -583 l 0 -583 l 0 -569 m 0 28 l 851 28 l 851 0 l 0 0 l 0 28 m 0 701 l 851 701 l 851 694 l 0 694 l 0 701 m 0 1292 l 851 1292 l 851 1278 l 0 1278 l 0 1292 z "},"œ":{"ha":1251,"x_min":0,"x_max":1251,"o":"m 406 -26 q 243 22 313 -26 q 136 153 174 69 q 99 347 99 238 q 113 471 99 414 q 155 574 128 528 q 221 653 182 619 q 306 703 260 686 q 406 721 353 721 q 559 674 493 721 q 663 542 625 626 q 700 347 700 457 q 686 224 700 281 q 647 121 672 167 q 586 42 622 75 q 504 -9 550 8 q 406 -26 458 -26 m 406 43 q 501 65 460 43 q 572 127 543 86 q 617 224 601 168 q 633 347 633 281 q 606 506 633 438 q 528 613 579 575 q 406 651 476 651 q 310 630 353 651 q 237 568 267 608 q 191 472 207 528 q 175 347 175 415 q 203 188 175 257 q 283 81 232 119 q 406 43 335 43 m 929 -25 q 772 21 838 -25 q 673 144 707 67 q 639 318 639 222 q 661 483 639 408 q 724 610 683 557 q 824 692 765 664 q 956 721 883 721 q 1076 697 1029 721 q 1147 634 1124 674 q 1169 546 1169 594 q 1146 451 1169 493 q 1079 377 1122 408 q 978 325 1036 346 q 848 293 919 304 q 697 282 776 282 l 697 346 q 815 352 757 344 q 922 374 872 360 q 1010 413 972 389 q 1070 468 1049 436 q 1092 542 1092 500 q 1054 625 1092 597 q 950 653 1017 653 q 859 633 903 653 q 781 574 815 614 q 726 475 746 535 q 706 333 706 415 q 737 169 706 233 q 820 74 768 106 q 935 43 872 43 q 1023 58 988 43 q 1083 97 1058 74 q 1131 147 1108 121 q 1153 158 1143 158 q 1176 149 1164 157 q 1192 129 1188 140 q 1186 107 1196 118 q 1127 43 1164 74 q 1041 -6 1090 13 q 929 -25 992 -25 m 0 -569 l 1251 -569 l 1251 -583 l 0 -583 l 0 -569 m 0 28 l 1251 28 l 1251 0 l 0 0 l 0 28 m 0 701 l 1251 701 l 1251 694 l 0 694 l 0 701 m 0 1292 l 1251 1292 l 1251 1278 l 0 1278 l 0 1292 z "},"þ":{"ha":831,"x_min":0,"x_max":831,"o":"m 193 -604 q 165 -598 174 -604 q 157 -578 157 -592 l 157 1272 q 166 1292 157 1286 q 194 1299 175 1299 q 221 1292 213 1299 q 229 1272 229 1286 l 229 572 q 303 665 263 633 q 385 709 343 697 q 468 721 428 721 q 658 634 585 721 q 732 369 732 547 q 719 236 732 297 q 679 127 706 175 q 613 46 653 79 q 523 -6 574 13 q 411 -24 472 -24 q 318 -8 363 -24 q 229 38 274 7 l 229 -578 q 220 -598 229 -592 q 193 -604 211 -604 m 229 108 q 324 58 278 74 q 414 43 369 43 q 495 56 458 43 q 561 94 532 68 q 611 158 590 119 q 643 249 632 197 q 654 365 654 301 q 632 519 654 454 q 566 617 610 583 q 456 651 522 651 q 368 633 410 651 q 291 572 326 614 q 229 463 256 531 l 229 108 m 0 -569 l 831 -569 l 831 -583 l 0 -583 l 0 -569 m 0 28 l 831 28 l 831 0 l 0 0 l 0 28 m 0 701 l 831 701 l 831 694 l 0 694 l 0 701 m 0 1292 l 831 1292 l 831 1278 l 0 1278 l 0 1292 z "},"ß":{"ha":972,"x_min":0,"x_max":972,"o":"m 221 -604 q 194 -597 203 -604 q 186 -578 186 -590 l 186 918 q 220 1117 186 1031 q 328 1254 254 1204 q 517 1304 401 1304 q 642 1284 586 1304 q 737 1225 697 1264 q 797 1132 776 1186 q 818 1007 818 1078 q 813 935 818 971 q 794 867 807 900 q 763 804 782 833 q 716 750 743 775 q 655 706 689 725 q 578 675 621 688 q 735 615 675 660 q 823 503 794 571 q 851 351 851 435 q 826 194 851 264 q 756 74 801 124 q 648 -1 711 25 q 507 -26 585 -26 q 406 -11 449 -26 q 328 26 363 4 q 316 46 315 35 q 324 69 317 57 q 343 88 332 86 q 367 82 354 90 q 431 53 397 64 q 507 42 464 42 q 615 63 565 42 q 701 123 664 83 q 757 220 738 163 q 776 351 776 278 q 744 501 776 436 q 639 602 711 565 q 444 639 567 639 l 431 639 q 413 646 419 639 q 407 672 407 653 q 413 698 407 690 q 431 706 419 706 l 450 706 q 542 717 500 706 q 617 749 583 728 q 674 797 650 769 q 715 859 699 825 q 738 931 731 893 q 746 1008 746 968 q 717 1130 746 1079 q 638 1208 689 1181 q 517 1235 586 1235 q 364 1192 421 1235 q 283 1076 307 1149 q 258 911 258 1003 l 258 -578 q 250 -597 258 -590 q 221 -604 242 -604 m 0 -569 l 972 -569 l 972 -583 l 0 -583 l 0 -569 m 0 28 l 972 28 l 972 0 l 0 0 l 0 28 m 0 701 l 972 701 l 972 694 l 0 694 l 0 701 m 0 1292 l 972 1292 l 972 1278 l 0 1278 l 0 1292 z "},"$":{"ha":968,"x_min":0,"x_max":968,"o":"m 449 -26 q 348 -18 399 -26 q 250 8 297 -10 q 161 54 203 26 q 89 121 119 82 q 78 144 78 133 q 92 165 78 154 q 114 178 104 178 q 142 161 124 179 q 224 100 178 125 q 328 62 271 75 q 449 49 385 49 q 581 67 522 49 q 682 123 640 86 q 746 213 724 160 q 768 333 768 265 q 745 439 768 396 q 682 513 722 482 q 589 569 642 544 q 478 614 536 593 q 377 656 428 633 q 282 706 326 678 q 203 773 238 735 q 150 864 169 811 q 131 986 131 917 q 158 1117 131 1060 q 233 1216 185 1175 q 345 1278 282 1257 q 481 1299 408 1299 q 618 1278 557 1299 q 729 1226 679 1258 q 819 1157 779 1194 q 831 1135 832 1146 q 821 1114 831 1125 q 796 1100 807 1100 q 769 1111 785 1100 q 686 1170 729 1144 q 592 1210 643 1196 q 481 1225 542 1225 q 368 1208 418 1225 q 283 1160 318 1192 q 230 1085 249 1129 q 211 986 211 1042 q 235 869 211 917 q 301 787 258 821 q 397 728 343 753 q 508 683 450 704 q 630 635 569 661 q 740 569 690 608 q 819 474 789 531 q 849 333 849 417 q 820 185 849 251 q 738 72 792 119 q 611 -1 685 24 q 449 -26 538 -26 m 481 -186 q 444 -160 444 -186 l 444 1451 q 481 1478 444 1478 q 517 1451 517 1478 l 517 -160 q 481 -186 517 -186 m 0 -569 l 968 -569 l 968 -583 l 0 -583 l 0 -569 m 0 28 l 968 28 l 968 0 l 0 0 l 0 28 m 0 701 l 968 701 l 968 694 l 0 694 l 0 701 m 0 1292 l 968 1292 l 968 1278 l 0 1278 l 0 1292 z "},"€":{"ha":1100,"x_min":0,"x_max":1100,"o":"m 651 -26 q 457 21 542 -26 q 315 156 372 68 q 229 366 258 244 q 200 636 200 488 q 216 818 200 732 q 262 978 232 904 q 333 1110 292 1051 q 428 1212 375 1169 q 544 1276 482 1254 q 678 1299 607 1299 q 792 1286 738 1299 q 895 1247 846 1274 q 988 1176 944 1219 q 1000 1153 1001 1164 q 988 1132 999 1143 q 964 1116 974 1118 q 939 1128 954 1114 q 859 1183 901 1161 q 772 1215 817 1204 q 678 1225 728 1225 q 567 1206 618 1225 q 471 1150 515 1188 q 391 1061 426 1113 q 331 944 356 1010 q 294 801 307 878 q 281 636 281 724 q 304 393 281 501 q 376 208 328 285 q 492 89 424 131 q 653 47 561 47 q 740 56 697 47 q 823 81 783 65 q 899 120 863 97 q 969 172 936 143 q 995 183 983 183 q 1021 167 1007 182 q 1030 143 1031 153 q 1015 121 1029 133 q 899 37 958 69 q 778 -11 839 4 q 651 -26 717 -26 m 75 710 q 59 717 65 710 q 53 744 53 725 q 59 770 53 763 q 75 778 65 778 l 822 778 q 840 771 835 778 q 846 744 846 764 q 840 717 846 725 q 822 710 835 710 l 75 710 m 75 515 q 59 523 65 515 q 53 550 53 531 q 59 576 53 568 q 75 583 65 583 l 822 583 q 840 576 835 583 q 846 550 846 569 q 840 523 846 531 q 822 515 835 515 l 75 515 m 0 -569 l 1100 -569 l 1100 -583 l 0 -583 l 0 -569 m 0 28 l 1100 28 l 1100 0 l 0 0 l 0 28 m 0 701 l 1100 701 l 1100 694 l 0 694 l 0 701 m 0 1292 l 1100 1292 l 1100 1278 l 0 1278 l 0 1292 z "},"¢":{"ha":765,"x_min":0,"x_max":765,"o":"m 408 -26 q 238 18 311 -26 q 124 147 164 63 q 83 353 83 232 q 98 486 83 424 q 140 599 113 549 q 207 684 168 649 q 297 739 246 719 q 410 758 349 758 q 497 744 453 758 q 579 706 540 731 q 646 650 618 682 q 653 628 654 639 q 639 606 651 618 q 615 593 626 593 q 596 603 604 593 q 539 649 567 629 q 479 679 511 668 q 404 690 447 690 q 322 676 360 690 q 255 633 285 661 q 204 565 225 606 q 172 473 183 525 q 160 358 160 421 q 188 193 160 264 q 271 82 215 122 q 410 42 326 42 q 490 53 454 42 q 556 90 525 65 q 619 154 586 115 q 640 164 629 164 q 663 154 651 164 q 678 136 674 146 q 674 115 682 126 q 597 35 642 67 q 503 -12 551 3 q 408 -26 456 -26 m 399 -186 q 363 -160 363 -186 l 363 911 q 399 938 363 938 q 435 911 435 938 l 435 -160 q 399 -186 435 -186 m 0 -569 l 765 -569 l 765 -583 l 0 -583 l 0 -569 m 0 28 l 765 28 l 765 0 l 0 0 l 0 28 m 0 701 l 765 701 l 765 694 l 0 694 l 0 701 m 0 1292 l 765 1292 l 765 1278 l 0 1278 l 0 1292 z "},"£":{"ha":975,"x_min":0,"x_max":975,"o":"m 86 0 q 69 9 75 0 q 64 38 64 18 q 70 63 64 56 q 86 69 76 69 l 293 69 l 293 517 l 125 517 q 108 524 114 517 q 101 551 101 532 q 108 578 101 571 q 125 585 114 585 l 293 585 l 293 976 q 331 1149 293 1076 q 438 1260 368 1221 q 599 1299 507 1299 q 759 1271 685 1299 q 896 1192 833 1243 q 910 1170 907 1182 q 901 1143 914 1158 q 877 1127 889 1128 q 849 1136 865 1126 q 724 1206 783 1185 q 600 1226 665 1226 q 429 1160 490 1226 q 368 971 368 1094 l 368 585 l 689 585 q 706 578 700 585 q 711 553 711 571 q 706 525 711 533 q 689 517 700 517 l 368 517 l 368 69 l 911 69 q 928 63 922 69 q 935 38 935 56 q 929 9 935 18 q 911 0 924 0 l 86 0 m 0 -569 l 975 -569 l 975 -583 l 0 -583 l 0 -569 m 0 28 l 975 28 l 975 0 l 0 0 l 0 28 m 0 701 l 975 701 l 975 694 l 0 694 l 0 701 m 0 1292 l 975 1292 l 975 1278 l 0 1278 l 0 1292 z "},"¥":{"ha":967,"x_min":0,"x_max":967,"o":"m 476 -19 q 439 7 439 -19 l 439 340 l 135 340 q 119 348 125 340 q 113 374 113 356 q 119 401 113 394 q 135 408 125 408 l 439 408 l 439 535 l 135 535 q 119 542 125 535 q 113 568 113 550 q 119 596 113 589 q 135 603 125 603 l 413 603 l 58 1253 q 56 1276 51 1267 q 79 1293 61 1285 q 106 1299 97 1301 q 126 1278 115 1296 l 476 628 l 840 1276 q 861 1299 851 1296 q 888 1293 871 1301 q 910 1276 906 1285 q 907 1253 914 1267 l 540 603 l 817 603 q 835 596 829 603 q 842 569 842 589 q 835 543 842 551 q 817 535 829 535 l 514 535 l 514 408 l 817 408 q 835 401 829 408 q 842 375 842 394 q 835 349 842 357 q 817 340 829 340 l 514 340 l 514 7 q 476 -19 514 -19 m 0 -569 l 967 -569 l 967 -583 l 0 -583 l 0 -569 m 0 28 l 967 28 l 967 0 l 0 0 l 0 28 m 0 701 l 967 701 l 967 694 l 0 694 l 0 701 m 0 1292 l 967 1292 l 967 1278 l 0 1278 l 0 1292 z "},"%":{"ha":1190,"x_min":0,"x_max":1190,"o":"m 314 746 q 194 781 246 746 q 113 878 142 815 q 83 1022 83 940 q 94 1113 83 1071 q 126 1190 106 1156 q 175 1248 146 1224 q 239 1285 204 1272 q 314 1299 274 1299 q 433 1263 382 1299 q 514 1166 485 1228 q 543 1022 543 1104 q 533 931 543 974 q 502 853 522 888 q 453 795 482 819 q 390 758 425 771 q 314 746 354 746 m 314 811 q 367 821 343 811 q 411 848 392 831 q 444 891 431 865 q 464 950 457 917 q 471 1022 471 983 q 429 1176 471 1119 q 314 1232 388 1232 q 260 1223 285 1232 q 217 1196 236 1214 q 183 1152 197 1178 q 163 1094 169 1126 q 157 1022 157 1061 q 199 868 157 925 q 314 811 242 811 m 243 -15 q 225 -27 236 -26 q 199 -18 214 -28 q 178 0 182 -8 q 182 19 175 8 l 935 1288 q 951 1299 942 1297 q 978 1289 961 1300 q 997 1271 993 1281 q 996 1251 1001 1261 l 243 -15 m 874 -26 q 752 9 804 -26 q 672 107 700 44 q 643 251 643 169 q 653 342 643 300 q 685 419 664 385 q 734 477 706 453 q 798 515 763 501 q 874 528 833 528 q 992 493 940 528 q 1073 396 1043 458 q 1103 251 1103 333 q 1092 160 1103 203 q 1062 83 1082 117 q 1013 24 1042 49 q 949 -13 983 0 q 874 -26 914 -26 m 874 40 q 927 50 903 40 q 970 78 951 60 q 1003 121 989 96 q 1023 179 1017 146 q 1029 251 1029 213 q 988 405 1029 349 q 874 461 946 461 q 819 451 843 461 q 776 424 794 442 q 743 381 757 407 q 722 322 729 356 q 715 251 715 289 q 758 97 715 154 q 874 40 800 40 m 0 -569 l 1190 -569 l 1190 -583 l 0 -583 l 0 -569 m 0 28 l 1190 28 l 1190 0 l 0 0 l 0 28 m 0 701 l 1190 701 l 1190 694 l 0 694 l 0 701 m 0 1292 l 1190 1292 l 1190 1278 l 0 1278 l 0 1292 z "},".":{"ha":435,"x_min":0,"x_max":435,"o":"m 217 -29 q 168 -10 185 -29 q 151 43 151 8 q 168 97 151 79 q 217 115 185 115 q 267 97 250 115 q 283 43 283 79 q 267 -10 283 8 q 217 -29 250 -29 m 0 -569 l 435 -569 l 435 -583 l 0 -583 l 0 -569 m 0 28 l 435 28 l 435 0 l 0 0 l 0 28 m 0 701 l 435 701 l 435 694 l 0 694 l 0 701 m 0 1292 l 435 1292 l 435 1278 l 0 1278 l 0 1292 z "},",":{"ha":435,"x_min":0,"x_max":435,"o":"m 149 -249 q 120 -240 135 -249 q 106 -219 106 -232 q 110 -207 106 -214 q 118 -192 114 -200 q 149 -120 139 -153 q 163 -47 160 -87 q 167 64 167 -6 q 178 94 167 83 q 215 104 190 104 q 253 92 242 104 q 265 61 265 81 q 257 -44 265 7 q 229 -142 249 -94 q 178 -229 210 -189 q 165 -242 172 -236 q 149 -249 158 -249 m 0 -569 l 435 -569 l 435 -583 l 0 -583 l 0 -569 m 0 28 l 435 28 l 435 0 l 0 0 l 0 28 m 0 701 l 435 701 l 435 694 l 0 694 l 0 701 m 0 1292 l 435 1292 l 435 1278 l 0 1278 l 0 1292 z "},":":{"ha":435,"x_min":0,"x_max":435,"o":"m 217 -29 q 168 -10 185 -29 q 151 43 151 8 q 168 97 151 79 q 217 115 185 115 q 267 97 250 115 q 283 43 283 79 q 267 -10 283 8 q 217 -29 250 -29 m 217 576 q 168 595 185 576 q 151 649 151 614 q 168 703 151 685 q 217 721 185 721 q 267 703 250 721 q 283 649 283 685 q 267 595 283 614 q 217 576 250 576 m 0 -569 l 435 -569 l 435 -583 l 0 -583 l 0 -569 m 0 28 l 435 28 l 435 0 l 0 0 l 0 28 m 0 701 l 435 701 l 435 694 l 0 694 l 0 701 m 0 1292 l 435 1292 l 435 1278 l 0 1278 l 0 1292 z "},";":{"ha":435,"x_min":0,"x_max":435,"o":"m 217 576 q 168 595 185 576 q 151 649 151 614 q 168 703 151 685 q 217 721 185 721 q 267 703 250 721 q 283 649 283 685 q 267 595 283 614 q 217 576 250 576 m 149 -249 q 120 -240 135 -249 q 106 -219 106 -232 q 110 -207 106 -214 q 118 -192 114 -200 q 149 -120 139 -153 q 163 -47 160 -87 q 167 64 167 -6 q 178 94 167 83 q 215 104 190 104 q 253 92 242 104 q 265 61 265 81 q 257 -44 265 7 q 229 -142 249 -94 q 178 -229 210 -189 q 165 -242 172 -236 q 149 -249 158 -249 m 0 -569 l 435 -569 l 435 -583 l 0 -583 l 0 -569 m 0 28 l 435 28 l 435 0 l 0 0 l 0 28 m 0 701 l 435 701 l 435 694 l 0 694 l 0 701 m 0 1292 l 435 1292 l 435 1278 l 0 1278 l 0 1292 z "},"…":{"ha":1178,"x_min":0,"x_max":1178,"o":"m 589 -29 q 540 -10 557 -29 q 524 43 524 8 q 540 97 524 79 q 589 115 557 115 q 639 97 622 115 q 656 43 656 79 q 639 -10 656 8 q 589 -29 622 -29 m 960 -29 q 911 -10 928 -29 q 894 43 894 8 q 911 97 894 79 q 960 115 928 115 q 1010 97 993 115 q 1026 43 1026 79 q 1010 -10 1026 8 q 960 -29 993 -29 m 217 -29 q 168 -10 185 -29 q 151 43 151 8 q 168 97 151 79 q 217 115 185 115 q 267 97 250 115 q 283 43 283 79 q 267 -10 283 8 q 217 -29 250 -29 m 0 -569 l 1178 -569 l 1178 -583 l 0 -583 l 0 -569 m 0 28 l 1178 28 l 1178 0 l 0 0 l 0 28 m 0 701 l 1178 701 l 1178 694 l 0 694 l 0 701 m 0 1292 l 1178 1292 l 1178 1278 l 0 1278 l 0 1292 z "},"!":{"ha":496,"x_min":0,"x_max":496,"o":"m 249 300 q 210 326 210 300 l 210 1272 q 219 1292 210 1286 q 249 1299 229 1299 q 286 1272 286 1299 l 286 326 q 277 307 286 314 q 249 300 268 300 m 249 -19 q 201 -1 218 -19 q 185 51 185 17 q 201 105 185 88 q 249 122 218 122 q 295 105 279 122 q 311 51 311 88 q 295 -1 311 17 q 249 -19 279 -19 m 0 -569 l 496 -569 l 496 -583 l 0 -583 l 0 -569 m 0 28 l 496 28 l 496 0 l 0 0 l 0 28 m 0 701 l 496 701 l 496 694 l 0 694 l 0 701 m 0 1292 l 496 1292 l 496 1278 l 0 1278 l 0 1292 z "},"¡":{"ha":496,"x_min":0,"x_max":496,"o":"m 249 -603 q 210 -576 210 -603 l 210 369 q 219 389 210 382 q 249 396 229 396 q 286 369 286 396 l 286 -576 q 276 -597 286 -590 q 249 -603 267 -603 m 249 574 q 201 592 218 574 q 185 644 185 610 q 201 698 185 681 q 249 715 218 715 q 295 698 279 715 q 311 644 311 681 q 295 592 311 610 q 249 574 279 574 m 0 -569 l 496 -569 l 496 -583 l 0 -583 l 0 -569 m 0 28 l 496 28 l 496 0 l 0 0 l 0 28 m 0 701 l 496 701 l 496 694 l 0 694 l 0 701 m 0 1292 l 496 1292 l 496 1278 l 0 1278 l 0 1292 z "},"?":{"ha":726,"x_min":0,"x_max":726,"o":"m 285 300 q 256 306 265 300 q 246 328 246 313 l 246 600 q 253 622 246 615 q 274 629 261 629 q 400 645 340 629 q 508 697 460 661 q 583 792 556 732 q 610 942 610 853 q 577 1097 610 1033 q 488 1194 544 1161 q 357 1228 431 1228 q 252 1215 300 1228 q 164 1176 204 1201 q 85 1117 124 1151 q 62 1106 74 1107 q 38 1118 50 1106 q 25 1142 25 1131 q 35 1163 25 1154 q 123 1233 72 1203 q 234 1281 174 1264 q 357 1299 294 1299 q 524 1258 449 1299 q 644 1137 599 1217 q 689 939 689 1057 q 659 773 689 842 q 577 660 629 704 q 459 592 525 615 q 322 561 393 568 l 322 326 q 313 306 322 311 q 285 300 304 300 m 285 -19 q 238 -1 254 -19 q 221 51 221 17 q 238 105 221 88 q 285 122 254 122 q 331 105 315 122 q 347 51 347 88 q 331 -1 347 17 q 285 -19 315 -19 m 0 -569 l 726 -569 l 726 -583 l 0 -583 l 0 -569 m 0 28 l 726 28 l 726 0 l 0 0 l 0 28 m 0 701 l 726 701 l 726 694 l 0 694 l 0 701 m 0 1292 l 726 1292 l 726 1278 l 0 1278 l 0 1292 z "},"¿":{"ha":726,"x_min":0,"x_max":726,"o":"m 429 396 q 458 390 450 396 q 467 368 467 385 l 467 96 q 460 74 467 81 q 439 67 453 67 q 313 51 374 67 q 206 -1 253 35 q 131 -97 158 -36 q 103 -246 103 -157 q 136 -401 103 -336 q 227 -499 169 -465 q 356 -532 285 -532 q 462 -518 414 -532 q 551 -480 510 -504 q 629 -421 592 -456 q 652 -410 640 -411 q 676 -422 664 -408 q 688 -446 689 -435 q 679 -467 688 -457 q 590 -537 642 -507 q 480 -585 539 -568 q 356 -603 421 -603 q 190 -562 265 -603 q 69 -441 114 -521 q 25 -243 25 -361 q 55 -77 25 -146 q 136 36 85 -8 q 254 104 188 81 q 392 135 321 128 l 392 369 q 401 390 392 385 q 429 396 410 396 m 429 715 q 476 698 461 715 q 492 644 492 681 q 476 592 492 610 q 429 574 461 574 q 383 592 399 574 q 367 644 367 610 q 383 698 367 681 q 429 715 399 715 m 0 -569 l 726 -569 l 726 -583 l 0 -583 l 0 -569 m 0 28 l 726 28 l 726 0 l 0 0 l 0 28 m 0 701 l 726 701 l 726 694 l 0 694 l 0 701 m 0 1292 l 726 1292 l 726 1278 l 0 1278 l 0 1292 z "},"'":{"ha":235,"x_min":0,"x_max":235,"o":"m 119 929 q 97 939 104 929 q 88 963 89 949 l 72 1256 q 83 1285 71 1272 q 119 1297 94 1297 q 156 1285 144 1297 q 167 1256 168 1272 l 151 965 q 142 940 150 950 q 119 929 135 929 m 0 -569 l 235 -569 l 235 -583 l 0 -583 l 0 -569 m 0 28 l 235 28 l 235 0 l 0 0 l 0 28 m 0 701 l 235 701 l 235 694 l 0 694 l 0 701 m 0 1292 l 235 1292 l 235 1278 l 0 1278 l 0 1292 z "},"\"":{"ha":438,"x_min":0,"x_max":438,"o":"m 119 929 q 97 939 104 929 q 88 963 89 949 l 72 1256 q 83 1285 71 1272 q 119 1297 94 1297 q 156 1285 144 1297 q 167 1256 168 1272 l 151 965 q 142 940 150 950 q 119 929 135 929 m 322 929 q 300 939 307 929 q 292 963 293 949 l 275 1256 q 285 1285 274 1272 q 322 1297 297 1297 q 360 1285 349 1297 q 371 1256 372 1272 l 354 965 q 346 940 353 950 q 322 929 339 929 m 0 -569 l 438 -569 l 438 -583 l 0 -583 l 0 -569 m 0 28 l 438 28 l 438 0 l 0 0 l 0 28 m 0 701 l 438 701 l 438 694 l 0 694 l 0 701 m 0 1292 l 438 1292 l 438 1278 l 0 1278 l 0 1292 z "},"‘":{"ha":276,"x_min":0,"x_max":276,"o":"m 129 929 q 92 942 104 929 q 81 974 81 956 q 85 1058 81 1017 q 100 1137 90 1099 q 126 1210 110 1175 q 164 1276 142 1246 q 178 1291 171 1285 q 194 1297 185 1297 q 222 1288 208 1297 q 235 1268 235 1279 q 231 1256 235 1263 q 222 1239 228 1249 q 192 1165 203 1199 q 178 1088 182 1132 q 175 969 175 1043 q 163 940 175 951 q 129 929 151 929 m 0 -569 l 276 -569 l 276 -583 l 0 -583 l 0 -569 m 0 28 l 276 28 l 276 0 l 0 0 l 0 28 m 0 701 l 276 701 l 276 694 l 0 694 l 0 701 m 0 1292 l 276 1292 l 276 1278 l 0 1278 l 0 1292 z "},"’":{"ha":281,"x_min":0,"x_max":281,"o":"m 151 1297 q 188 1284 176 1297 q 200 1253 200 1271 q 195 1169 200 1210 q 181 1090 190 1128 q 155 1017 171 1053 q 115 950 139 982 q 102 935 110 942 q 85 929 94 929 q 58 938 72 929 q 44 958 44 947 q 48 971 44 964 q 57 988 51 978 q 88 1063 78 1029 q 102 1140 99 1096 q 106 1257 106 1183 q 117 1286 106 1275 q 151 1297 128 1297 m 0 -569 l 281 -569 l 281 -583 l 0 -583 l 0 -569 m 0 28 l 281 28 l 281 0 l 0 0 l 0 28 m 0 701 l 281 701 l 281 694 l 0 694 l 0 701 m 0 1292 l 281 1292 l 281 1278 l 0 1278 l 0 1292 z "},"‚":{"ha":290,"x_min":0,"x_max":290,"o":"m 88 -249 q 60 -240 75 -249 q 46 -219 46 -232 q 49 -207 46 -214 q 58 -192 53 -200 q 88 -120 78 -153 q 103 -47 99 -87 q 107 64 107 -6 q 119 94 107 83 q 156 104 131 104 q 194 92 182 104 q 206 61 206 81 q 197 -44 206 7 q 169 -142 188 -94 q 118 -229 150 -189 q 106 -242 113 -236 q 88 -249 99 -249 m 0 -569 l 290 -569 l 290 -583 l 0 -583 l 0 -569 m 0 28 l 290 28 l 290 0 l 0 0 l 0 28 m 0 701 l 290 701 l 290 694 l 0 694 l 0 701 m 0 1292 l 290 1292 l 290 1278 l 0 1278 l 0 1292 z "},"“":{"ha":500,"x_min":0,"x_max":500,"o":"m 129 929 q 92 942 104 929 q 81 974 81 956 q 85 1058 81 1017 q 100 1137 90 1099 q 126 1210 110 1175 q 164 1276 142 1246 q 178 1291 171 1285 q 194 1297 185 1297 q 222 1288 208 1297 q 235 1268 235 1279 q 231 1256 235 1263 q 222 1239 228 1249 q 192 1165 203 1199 q 178 1088 182 1132 q 175 969 175 1043 q 163 940 175 951 q 129 929 151 929 m 353 929 q 316 942 328 929 q 304 974 304 956 q 308 1058 304 1017 q 323 1137 313 1099 q 349 1210 333 1175 q 386 1276 364 1246 q 401 1291 393 1285 q 418 1297 408 1297 q 444 1288 432 1297 q 457 1268 457 1279 q 453 1256 457 1263 q 446 1239 450 1249 q 415 1165 426 1199 q 401 1088 404 1132 q 399 969 399 1043 q 387 940 399 951 q 353 929 375 929 m 0 -569 l 500 -569 l 500 -583 l 0 -583 l 0 -569 m 0 28 l 500 28 l 500 0 l 0 0 l 0 28 m 0 701 l 500 701 l 500 694 l 0 694 l 0 701 m 0 1292 l 500 1292 l 500 1278 l 0 1278 l 0 1292 z "},"”":{"ha":504,"x_min":0,"x_max":504,"o":"m 375 1297 q 412 1284 400 1297 q 424 1253 424 1271 q 419 1169 424 1210 q 404 1090 414 1128 q 378 1017 394 1053 q 339 950 363 982 q 326 935 333 942 q 308 929 318 929 q 282 938 296 929 q 268 958 268 947 q 272 971 268 964 q 281 988 276 978 q 312 1063 301 1029 q 326 1140 322 1096 q 329 1257 329 1183 q 340 1286 329 1275 q 375 1297 351 1297 m 151 1297 q 188 1284 176 1297 q 200 1253 200 1271 q 195 1169 200 1210 q 181 1090 190 1128 q 155 1017 171 1053 q 115 950 139 982 q 102 935 110 942 q 85 929 94 929 q 58 938 72 929 q 44 958 44 947 q 48 971 44 964 q 57 988 51 978 q 88 1063 78 1029 q 102 1140 99 1096 q 106 1257 106 1183 q 117 1286 106 1275 q 151 1297 128 1297 m 0 -569 l 504 -569 l 504 -583 l 0 -583 l 0 -569 m 0 28 l 504 28 l 504 0 l 0 0 l 0 28 m 0 701 l 504 701 l 504 694 l 0 694 l 0 701 m 0 1292 l 504 1292 l 504 1278 l 0 1278 l 0 1292 z "},"„":{"ha":513,"x_min":0,"x_max":513,"o":"m 310 -249 q 283 -240 297 -249 q 268 -219 268 -232 q 272 -207 268 -214 q 281 -192 275 -200 q 310 -120 300 -153 q 325 -47 321 -87 q 329 64 329 -6 q 341 94 329 83 q 378 104 353 104 q 416 92 404 104 q 428 61 428 81 q 419 -44 428 7 q 391 -142 410 -94 q 340 -229 372 -189 q 327 -242 335 -236 q 310 -249 319 -249 m 88 -249 q 60 -240 75 -249 q 46 -219 46 -232 q 49 -207 46 -214 q 58 -192 53 -200 q 88 -120 78 -153 q 103 -47 99 -87 q 107 64 107 -6 q 119 94 107 83 q 156 104 131 104 q 194 92 182 104 q 206 61 206 81 q 197 -44 206 7 q 169 -142 188 -94 q 118 -229 150 -189 q 106 -242 113 -236 q 88 -249 99 -249 m 0 -569 l 513 -569 l 513 -583 l 0 -583 l 0 -569 m 0 28 l 513 28 l 513 0 l 0 0 l 0 28 m 0 701 l 513 701 l 513 694 l 0 694 l 0 701 m 0 1292 l 513 1292 l 513 1278 l 0 1278 l 0 1292 z "},"«":{"ha":1007,"x_min":0,"x_max":1007,"o":"m 458 -19 q 435 -13 444 -19 q 415 4 425 -7 l 182 303 q 160 331 167 321 q 154 349 154 342 q 160 368 154 358 q 182 396 167 378 l 418 693 q 436 710 425 704 q 460 715 447 715 q 484 708 474 715 q 497 690 494 701 q 488 665 499 679 l 238 349 l 488 32 q 492 -4 504 11 q 458 -19 481 -19 m 806 -19 q 782 -13 792 -19 q 763 4 772 -7 l 529 303 q 508 331 514 321 q 501 349 501 342 q 508 368 501 358 q 529 396 514 378 l 765 693 q 783 710 772 704 q 807 715 794 715 q 831 708 821 715 q 844 690 842 701 q 835 665 846 679 l 585 349 l 835 32 q 840 -4 851 11 q 806 -19 828 -19 m 0 -569 l 1007 -569 l 1007 -583 l 0 -583 l 0 -569 m 0 28 l 1007 28 l 1007 0 l 0 0 l 0 28 m 0 701 l 1007 701 l 1007 694 l 0 694 l 0 701 m 0 1292 l 1007 1292 l 1007 1278 l 0 1278 l 0 1292 z "},"»":{"ha":1007,"x_min":0,"x_max":1007,"o":"m 201 -19 q 176 -12 186 -19 q 164 6 165 -6 q 172 32 163 18 l 422 349 l 172 665 q 167 701 156 686 q 200 715 179 715 q 224 710 214 715 q 243 693 235 704 l 479 396 q 499 368 493 378 q 506 349 506 358 q 499 331 506 342 q 479 303 493 321 l 244 4 q 226 -13 236 -7 q 201 -19 215 -19 m 549 -19 q 523 -12 533 -19 q 511 6 513 -6 q 519 32 510 18 l 769 349 l 519 665 q 515 701 503 686 q 547 715 526 715 q 572 710 561 715 q 590 693 582 704 l 826 396 q 847 368 840 378 q 853 349 853 358 q 847 331 853 342 q 826 303 840 321 l 592 4 q 573 -13 583 -7 q 549 -19 563 -19 m 0 -569 l 1007 -569 l 1007 -583 l 0 -583 l 0 -569 m 0 28 l 1007 28 l 1007 0 l 0 0 l 0 28 m 0 701 l 1007 701 l 1007 694 l 0 694 l 0 701 m 0 1292 l 1007 1292 l 1007 1278 l 0 1278 l 0 1292 z "},"‹":{"ha":660,"x_min":0,"x_max":660,"o":"m 458 -19 q 435 -13 444 -19 q 415 4 425 -7 l 182 303 q 160 331 167 321 q 154 349 154 342 q 160 368 154 358 q 182 396 167 378 l 418 693 q 436 710 425 704 q 460 715 447 715 q 484 708 474 715 q 497 690 494 701 q 488 665 499 679 l 238 349 l 488 32 q 492 -4 504 11 q 458 -19 481 -19 m 0 -569 l 660 -569 l 660 -583 l 0 -583 l 0 -569 m 0 28 l 660 28 l 660 0 l 0 0 l 0 28 m 0 701 l 660 701 l 660 694 l 0 694 l 0 701 m 0 1292 l 660 1292 l 660 1278 l 0 1278 l 0 1292 z "},"›":{"ha":660,"x_min":0,"x_max":660,"o":"m 201 -19 q 176 -12 186 -19 q 164 6 165 -6 q 172 32 163 18 l 422 349 l 172 665 q 167 701 156 686 q 200 715 179 715 q 224 710 214 715 q 243 693 235 704 l 479 396 q 499 368 493 378 q 506 349 506 358 q 499 331 506 342 q 479 303 493 321 l 244 4 q 226 -13 236 -7 q 201 -19 215 -19 m 0 -569 l 660 -569 l 660 -583 l 0 -583 l 0 -569 m 0 28 l 660 28 l 660 0 l 0 0 l 0 28 m 0 701 l 660 701 l 660 694 l 0 694 l 0 701 m 0 1292 l 660 1292 l 660 1278 l 0 1278 l 0 1292 z "},"Á":{"ha":1083,"x_min":0,"x_max":1083,"o":"m 71 -18 q 44 -4 50 -14 q 44 22 39 6 l 496 1267 q 511 1292 501 1285 q 542 1299 521 1299 q 572 1292 563 1299 q 586 1267 581 1285 l 1039 22 q 1040 -4 1046 6 q 1011 -18 1033 -14 q 983 -15 992 -21 q 965 14 974 -8 l 832 385 l 251 385 l 117 14 q 101 -15 110 -8 q 71 -18 92 -21 m 276 454 l 806 454 l 542 1186 l 276 454 m 468 1368 q 446 1381 458 1368 q 433 1401 433 1393 q 434 1410 433 1406 q 440 1419 435 1414 l 653 1621 q 663 1630 660 1626 q 674 1633 667 1633 q 694 1626 683 1633 q 712 1607 704 1618 q 719 1588 719 1596 q 718 1576 719 1581 q 710 1567 717 1572 l 488 1378 q 476 1371 481 1374 q 468 1368 472 1368 m 0 -569 l 1083 -569 l 1083 -583 l 0 -583 l 0 -569 m 0 28 l 1083 28 l 1083 0 l 0 0 l 0 28 m 0 701 l 1083 701 l 1083 694 l 0 694 l 0 701 m 0 1292 l 1083 1292 l 1083 1278 l 0 1278 l 0 1292 z "},"Ă":{"ha":1083,"x_min":0,"x_max":1083,"o":"m 71 -18 q 44 -4 50 -14 q 44 22 39 6 l 496 1267 q 511 1292 501 1285 q 542 1299 521 1299 q 572 1292 563 1299 q 586 1267 581 1285 l 1039 22 q 1040 -4 1046 6 q 1011 -18 1033 -14 q 983 -15 992 -21 q 965 14 974 -8 l 832 385 l 251 385 l 117 14 q 101 -15 110 -8 q 71 -18 92 -21 m 276 454 l 806 454 l 542 1186 l 276 454 m 542 1369 q 376 1428 440 1369 q 307 1604 313 1488 q 315 1626 307 1618 q 340 1633 324 1633 q 363 1626 357 1633 q 372 1604 369 1618 q 424 1486 381 1525 q 542 1447 468 1447 q 659 1486 614 1447 q 713 1604 704 1525 q 720 1626 714 1618 q 742 1633 726 1633 q 769 1626 760 1633 q 776 1604 778 1618 q 742 1476 774 1528 q 660 1397 711 1424 q 542 1369 608 1369 m 0 -569 l 1083 -569 l 1083 -583 l 0 -583 l 0 -569 m 0 28 l 1083 28 l 1083 0 l 0 0 l 0 28 m 0 701 l 1083 701 l 1083 694 l 0 694 l 0 701 m 0 1292 l 1083 1292 l 1083 1278 l 0 1278 l 0 1292 z "},"Ǎ":{"ha":1083,"x_min":0,"x_max":1083,"o":"m 71 -18 q 44 -4 50 -14 q 44 22 39 6 l 496 1267 q 511 1292 501 1285 q 542 1299 521 1299 q 572 1292 563 1299 q 586 1267 581 1285 l 1039 22 q 1040 -4 1046 6 q 1011 -18 1033 -14 q 983 -15 992 -21 q 965 14 974 -8 l 832 385 l 251 385 l 117 14 q 101 -15 110 -8 q 71 -18 92 -21 m 276 454 l 806 454 l 542 1186 l 276 454 m 760 1633 q 781 1623 771 1633 q 792 1600 792 1613 q 790 1592 792 1596 q 783 1582 789 1588 l 576 1385 q 562 1373 569 1378 q 542 1368 554 1368 q 522 1373 529 1368 q 507 1385 515 1378 l 299 1583 q 293 1594 294 1589 q 292 1601 292 1599 q 302 1624 292 1614 q 322 1633 313 1633 q 335 1630 329 1633 q 346 1622 340 1626 l 542 1457 l 736 1622 q 748 1630 743 1626 q 760 1633 753 1633 m 0 -569 l 1083 -569 l 1083 -583 l 0 -583 l 0 -569 m 0 28 l 1083 28 l 1083 0 l 0 0 l 0 28 m 0 701 l 1083 701 l 1083 694 l 0 694 l 0 701 m 0 1292 l 1083 1292 l 1083 1278 l 0 1278 l 0 1292 z "},"Â":{"ha":1083,"x_min":0,"x_max":1083,"o":"m 71 -18 q 44 -4 50 -14 q 44 22 39 6 l 496 1267 q 511 1292 501 1285 q 542 1299 521 1299 q 572 1292 563 1299 q 586 1267 581 1285 l 1039 22 q 1040 -4 1046 6 q 1011 -18 1033 -14 q 983 -15 992 -21 q 965 14 974 -8 l 832 385 l 251 385 l 117 14 q 101 -15 110 -8 q 71 -18 92 -21 m 276 454 l 806 454 l 542 1186 l 276 454 m 322 1367 q 302 1378 313 1367 q 292 1400 292 1389 q 293 1408 292 1404 q 299 1418 294 1413 l 507 1615 q 522 1628 514 1624 q 542 1633 529 1633 q 561 1628 554 1633 q 576 1615 568 1624 l 783 1417 q 790 1408 789 1413 q 792 1399 792 1403 q 781 1377 792 1388 q 760 1367 771 1367 q 748 1370 753 1367 q 736 1379 743 1374 l 542 1544 l 346 1379 q 335 1370 340 1374 q 322 1367 329 1367 m 0 -569 l 1083 -569 l 1083 -583 l 0 -583 l 0 -569 m 0 28 l 1083 28 l 1083 0 l 0 0 l 0 28 m 0 701 l 1083 701 l 1083 694 l 0 694 l 0 701 m 0 1292 l 1083 1292 l 1083 1278 l 0 1278 l 0 1292 z "},"Ä":{"ha":1083,"x_min":0,"x_max":1083,"o":"m 71 -18 q 44 -4 50 -14 q 44 22 39 6 l 496 1267 q 511 1292 501 1285 q 542 1299 521 1299 q 572 1292 563 1299 q 586 1267 581 1285 l 1039 22 q 1040 -4 1046 6 q 1011 -18 1033 -14 q 983 -15 992 -21 q 965 14 974 -8 l 832 385 l 251 385 l 117 14 q 101 -15 110 -8 q 71 -18 92 -21 m 276 454 l 806 454 l 542 1186 l 276 454 m 368 1417 q 323 1433 338 1417 q 308 1483 308 1449 q 323 1536 308 1519 q 368 1553 338 1553 q 414 1536 399 1553 q 429 1483 429 1519 q 415 1433 431 1449 q 368 1417 399 1417 m 715 1417 q 669 1433 685 1417 q 654 1483 654 1449 q 669 1536 654 1519 q 715 1553 685 1553 q 760 1536 744 1553 q 775 1483 775 1519 q 760 1433 776 1449 q 715 1417 744 1417 m 0 -569 l 1083 -569 l 1083 -583 l 0 -583 l 0 -569 m 0 28 l 1083 28 l 1083 0 l 0 0 l 0 28 m 0 701 l 1083 701 l 1083 694 l 0 694 l 0 701 m 0 1292 l 1083 1292 l 1083 1278 l 0 1278 l 0 1292 z "},"Ǽ":{"ha":1392,"x_min":0,"x_max":1392,"o":"m 1303 0 l 751 0 q 722 8 732 0 q 713 32 713 15 l 713 604 l 407 604 l 103 1 q 81 -18 93 -15 q 51 -14 69 -21 q 33 6 36 -6 q 38 32 29 17 l 656 1246 q 676 1270 665 1264 q 708 1276 686 1276 l 1303 1276 q 1319 1269 1314 1276 q 1325 1242 1325 1261 q 1319 1215 1325 1224 q 1303 1207 1314 1207 l 789 1207 l 789 674 l 1211 674 q 1228 666 1222 674 q 1235 639 1235 658 q 1228 612 1235 619 q 1211 604 1222 604 l 789 604 l 789 69 l 1303 69 q 1319 62 1314 69 q 1325 35 1325 54 q 1319 8 1325 15 q 1303 0 1314 0 m 442 674 l 713 674 l 713 1207 l 442 674 m 896 1368 q 874 1381 888 1368 q 861 1401 861 1393 q 863 1410 861 1406 q 869 1419 864 1414 l 1082 1621 q 1092 1630 1088 1626 q 1101 1633 1096 1633 q 1122 1626 1111 1633 q 1141 1607 1133 1618 q 1149 1588 1149 1596 q 1147 1576 1149 1581 q 1138 1567 1144 1572 l 915 1378 q 905 1371 908 1374 q 896 1368 901 1368 m 0 -569 l 1392 -569 l 1392 -583 l 0 -583 l 0 -569 m 0 28 l 1392 28 l 1392 0 l 0 0 l 0 28 m 0 701 l 1392 701 l 1392 694 l 0 694 l 0 701 m 0 1292 l 1392 1292 l 1392 1278 l 0 1278 l 0 1292 z "},"À":{"ha":1083,"x_min":0,"x_max":1083,"o":"m 71 -18 q 44 -4 50 -14 q 44 22 39 6 l 496 1267 q 511 1292 501 1285 q 542 1299 521 1299 q 572 1292 563 1299 q 586 1267 581 1285 l 1039 22 q 1040 -4 1046 6 q 1011 -18 1033 -14 q 983 -15 992 -21 q 965 14 974 -8 l 832 385 l 251 385 l 117 14 q 101 -15 110 -8 q 71 -18 92 -21 m 276 454 l 806 454 l 542 1186 l 276 454 m 614 1368 q 606 1371 610 1368 q 594 1378 601 1374 l 372 1567 q 365 1576 367 1572 q 363 1588 363 1581 q 370 1607 363 1596 q 389 1626 378 1618 q 408 1633 400 1633 q 419 1630 415 1633 q 429 1621 424 1626 l 642 1419 q 648 1410 647 1414 q 649 1401 649 1406 q 637 1381 649 1393 q 614 1368 625 1368 m 0 -569 l 1083 -569 l 1083 -583 l 0 -583 l 0 -569 m 0 28 l 1083 28 l 1083 0 l 0 0 l 0 28 m 0 701 l 1083 701 l 1083 694 l 0 694 l 0 701 m 0 1292 l 1083 1292 l 1083 1278 l 0 1278 l 0 1292 z "},"Ā":{"ha":1083,"x_min":0,"x_max":1083,"o":"m 71 -18 q 44 -4 50 -14 q 44 22 39 6 l 496 1267 q 511 1292 501 1285 q 542 1299 521 1299 q 572 1292 563 1299 q 586 1267 581 1285 l 1039 22 q 1040 -4 1046 6 q 1011 -18 1033 -14 q 983 -15 992 -21 q 965 14 974 -8 l 832 385 l 251 385 l 117 14 q 101 -15 110 -8 q 71 -18 92 -21 m 276 454 l 806 454 l 542 1186 l 276 454 m 353 1467 q 332 1476 338 1467 q 326 1500 326 1485 q 332 1528 326 1518 q 353 1539 338 1539 l 731 1539 q 751 1528 746 1539 q 757 1500 757 1518 q 751 1476 757 1485 q 731 1467 746 1467 l 353 1467 m 0 -569 l 1083 -569 l 1083 -583 l 0 -583 l 0 -569 m 0 28 l 1083 28 l 1083 0 l 0 0 l 0 28 m 0 701 l 1083 701 l 1083 694 l 0 694 l 0 701 m 0 1292 l 1083 1292 l 1083 1278 l 0 1278 l 0 1292 z "},"Ą":{"ha":1083,"x_min":0,"x_max":1083,"o":"m 71 -18 q 44 -4 50 -14 q 44 22 39 6 l 496 1267 q 511 1292 501 1285 q 542 1299 521 1299 q 572 1292 563 1299 q 586 1267 581 1285 l 1039 22 q 1040 -4 1046 6 q 1011 -18 1033 -14 q 983 -15 992 -21 q 965 14 974 -8 l 832 385 l 251 385 l 117 14 q 101 -15 110 -8 q 71 -18 92 -21 m 276 454 l 806 454 l 542 1186 l 276 454 m 908 -364 q 823 -333 857 -364 q 789 -242 789 -303 q 803 -174 789 -207 q 843 -110 818 -142 q 903 -49 868 -79 q 981 11 939 -19 l 1039 11 l 1039 3 q 974 -49 1006 -21 q 916 -106 942 -76 q 875 -165 890 -135 q 860 -225 860 -194 q 875 -281 860 -262 q 918 -299 890 -299 q 969 -286 940 -299 q 1025 -243 997 -274 q 1043 -234 1033 -235 q 1061 -242 1053 -233 q 1074 -262 1072 -251 q 1068 -283 1075 -274 q 1024 -326 1051 -308 q 967 -354 997 -344 q 908 -364 936 -364 m 0 -569 l 1083 -569 l 1083 -583 l 0 -583 l 0 -569 m 0 28 l 1083 28 l 1083 0 l 0 0 l 0 28 m 0 701 l 1083 701 l 1083 694 l 0 694 l 0 701 m 0 1292 l 1083 1292 l 1083 1278 l 0 1278 l 0 1292 z "},"Å":{"ha":1083,"x_min":0,"x_max":1083,"o":"m 71 -18 q 44 -4 50 -14 q 44 22 39 6 l 496 1267 q 511 1292 501 1285 q 542 1299 521 1299 q 572 1292 563 1299 q 586 1267 581 1285 l 1039 22 q 1040 -4 1046 6 q 1011 -18 1033 -14 q 983 -15 992 -21 q 965 14 974 -8 l 832 385 l 251 385 l 117 14 q 101 -15 110 -8 q 71 -18 92 -21 m 276 454 l 806 454 l 542 1186 l 276 454 m 542 1353 q 451 1373 490 1353 q 388 1430 411 1393 q 365 1514 365 1467 q 388 1597 365 1561 q 451 1653 411 1633 q 542 1674 490 1674 q 633 1653 593 1674 q 696 1597 674 1633 q 718 1514 718 1561 q 696 1430 718 1467 q 633 1373 674 1393 q 542 1353 593 1353 m 542 1413 q 619 1440 590 1413 q 649 1514 649 1468 q 619 1585 649 1558 q 542 1613 590 1613 q 464 1585 493 1613 q 435 1514 435 1558 q 464 1440 435 1468 q 542 1413 493 1413 m 0 -569 l 1083 -569 l 1083 -583 l 0 -583 l 0 -569 m 0 28 l 1083 28 l 1083 0 l 0 0 l 0 28 m 0 701 l 1083 701 l 1083 694 l 0 694 l 0 701 m 0 1292 l 1083 1292 l 1083 1278 l 0 1278 l 0 1292 z "},"Ã":{"ha":1083,"x_min":0,"x_max":1083,"o":"m 71 -18 q 44 -4 50 -14 q 44 22 39 6 l 496 1267 q 511 1292 501 1285 q 542 1299 521 1299 q 572 1292 563 1299 q 586 1267 581 1285 l 1039 22 q 1040 -4 1046 6 q 1011 -18 1033 -14 q 983 -15 992 -21 q 965 14 974 -8 l 832 385 l 251 385 l 117 14 q 101 -15 110 -8 q 71 -18 92 -21 m 276 454 l 806 454 l 542 1186 l 276 454 m 322 1410 q 292 1439 292 1410 q 328 1556 294 1514 q 418 1597 361 1597 q 492 1580 460 1597 q 553 1540 525 1563 q 607 1499 581 1517 q 661 1482 633 1482 q 705 1506 689 1482 q 724 1575 721 1531 q 757 1600 725 1600 q 782 1594 775 1600 q 789 1571 789 1588 q 752 1455 786 1496 q 658 1414 718 1414 q 587 1431 619 1414 q 526 1472 554 1449 q 472 1513 499 1494 q 418 1531 446 1531 q 374 1508 390 1531 q 356 1438 358 1485 q 347 1416 354 1422 q 322 1410 340 1410 m 0 -569 l 1083 -569 l 1083 -583 l 0 -583 l 0 -569 m 0 28 l 1083 28 l 1083 0 l 0 0 l 0 28 m 0 701 l 1083 701 l 1083 694 l 0 694 l 0 701 m 0 1292 l 1083 1292 l 1083 1278 l 0 1278 l 0 1292 z "},"Ắ":{"ha":1083,"x_min":0,"x_max":1083,"o":"m 71 -18 q 44 -4 50 -14 q 44 22 39 6 l 496 1267 q 511 1292 501 1285 q 542 1299 521 1299 q 572 1292 563 1299 q 586 1267 581 1285 l 1039 22 q 1040 -4 1046 6 q 1011 -18 1033 -14 q 983 -15 992 -21 q 965 14 974 -8 l 832 385 l 251 385 l 117 14 q 101 -15 110 -8 q 71 -18 92 -21 m 276 454 l 806 454 l 542 1186 l 276 454 m 542 1369 q 376 1428 440 1369 q 307 1604 313 1488 q 315 1626 307 1618 q 340 1633 324 1633 q 363 1626 357 1633 q 372 1604 369 1618 q 424 1486 381 1525 q 542 1447 468 1447 q 659 1486 614 1447 q 713 1604 704 1525 q 720 1626 714 1618 q 742 1633 726 1633 q 769 1626 760 1633 q 776 1604 778 1618 q 742 1476 774 1528 q 660 1397 711 1424 q 542 1369 608 1369 m 468 1618 q 446 1631 458 1618 q 433 1653 433 1643 q 434 1660 433 1656 q 440 1669 435 1665 l 653 1871 q 663 1880 660 1876 q 674 1883 667 1883 q 694 1876 683 1883 q 712 1858 704 1868 q 719 1838 719 1847 q 718 1828 719 1832 q 710 1817 717 1824 l 488 1628 q 476 1621 481 1624 q 468 1618 472 1618 m 0 -569 l 1083 -569 l 1083 -583 l 0 -583 l 0 -569 m 0 28 l 1083 28 l 1083 0 l 0 0 l 0 28 m 0 701 l 1083 701 l 1083 694 l 0 694 l 0 701 m 0 1292 l 1083 1292 l 1083 1278 l 0 1278 l 0 1292 z "},"Ặ":{"ha":1083,"x_min":0,"x_max":1083,"o":"m 71 -18 q 44 -4 50 -14 q 44 22 39 6 l 496 1267 q 511 1292 501 1285 q 542 1299 521 1299 q 572 1292 563 1299 q 586 1267 581 1285 l 1039 22 q 1040 -4 1046 6 q 1011 -18 1033 -14 q 983 -15 992 -21 q 965 14 974 -8 l 832 385 l 251 385 l 117 14 q 101 -15 110 -8 q 71 -18 92 -21 m 276 454 l 806 454 l 542 1186 l 276 454 m 542 -306 q 497 -289 511 -306 q 482 -237 482 -272 q 497 -185 482 -201 q 542 -168 511 -168 q 588 -185 572 -168 q 603 -237 603 -201 q 588 -289 603 -272 q 542 -306 572 -306 m 542 1369 q 376 1428 440 1369 q 307 1604 313 1488 q 315 1626 307 1618 q 340 1633 324 1633 q 363 1626 357 1633 q 372 1604 369 1618 q 424 1486 381 1525 q 542 1447 468 1447 q 659 1486 614 1447 q 713 1604 704 1525 q 720 1626 714 1618 q 742 1633 726 1633 q 769 1626 760 1633 q 776 1604 778 1618 q 742 1476 774 1528 q 660 1397 711 1424 q 542 1369 608 1369 m 0 -569 l 1083 -569 l 1083 -583 l 0 -583 l 0 -569 m 0 28 l 1083 28 l 1083 0 l 0 0 l 0 28 m 0 701 l 1083 701 l 1083 694 l 0 694 l 0 701 m 0 1292 l 1083 1292 l 1083 1278 l 0 1278 l 0 1292 z "},"Ằ":{"ha":1083,"x_min":0,"x_max":1083,"o":"m 71 -18 q 44 -4 50 -14 q 44 22 39 6 l 496 1267 q 511 1292 501 1285 q 542 1299 521 1299 q 572 1292 563 1299 q 586 1267 581 1285 l 1039 22 q 1040 -4 1046 6 q 1011 -18 1033 -14 q 983 -15 992 -21 q 965 14 974 -8 l 832 385 l 251 385 l 117 14 q 101 -15 110 -8 q 71 -18 92 -21 m 276 454 l 806 454 l 542 1186 l 276 454 m 542 1369 q 376 1428 440 1369 q 307 1604 313 1488 q 315 1626 307 1618 q 340 1633 324 1633 q 363 1626 357 1633 q 372 1604 369 1618 q 424 1486 381 1525 q 542 1447 468 1447 q 659 1486 614 1447 q 713 1604 704 1525 q 720 1626 714 1618 q 742 1633 726 1633 q 769 1626 760 1633 q 776 1604 778 1618 q 742 1476 774 1528 q 660 1397 711 1424 q 542 1369 608 1369 m 615 1618 q 607 1621 611 1618 q 596 1628 603 1624 l 374 1817 q 366 1826 368 1822 q 364 1838 364 1831 q 372 1857 364 1846 q 390 1876 379 1868 q 410 1883 400 1883 q 421 1880 417 1883 q 431 1871 425 1876 l 643 1669 q 649 1660 649 1664 q 650 1651 650 1656 q 638 1631 650 1643 q 615 1618 626 1618 m 0 -569 l 1083 -569 l 1083 -583 l 0 -583 l 0 -569 m 0 28 l 1083 28 l 1083 0 l 0 0 l 0 28 m 0 701 l 1083 701 l 1083 694 l 0 694 l 0 701 m 0 1292 l 1083 1292 l 1083 1278 l 0 1278 l 0 1292 z "},"Ẳ":{"ha":1083,"x_min":0,"x_max":1083,"o":"m 71 -18 q 44 -4 50 -14 q 44 22 39 6 l 496 1267 q 511 1292 501 1285 q 542 1299 521 1299 q 572 1292 563 1299 q 586 1267 581 1285 l 1039 22 q 1040 -4 1046 6 q 1011 -18 1033 -14 q 983 -15 992 -21 q 965 14 974 -8 l 832 385 l 251 385 l 117 14 q 101 -15 110 -8 q 71 -18 92 -21 m 276 454 l 806 454 l 542 1186 l 276 454 m 542 1369 q 376 1428 440 1369 q 307 1604 313 1488 q 315 1626 307 1618 q 340 1633 324 1633 q 363 1626 357 1633 q 372 1604 369 1618 q 424 1486 381 1525 q 542 1447 468 1447 q 659 1486 614 1447 q 713 1604 704 1525 q 720 1626 714 1618 q 742 1633 726 1633 q 769 1626 760 1633 q 776 1604 778 1618 q 742 1476 774 1528 q 660 1397 711 1424 q 542 1369 608 1369 m 551 1904 q 650 1874 613 1904 q 688 1797 688 1844 q 671 1741 688 1765 q 615 1689 654 1717 q 581 1658 589 1671 q 583 1624 574 1646 l 586 1615 q 583 1595 590 1604 q 565 1583 576 1586 q 541 1581 553 1579 q 525 1593 529 1582 l 514 1619 q 510 1681 500 1654 q 554 1729 521 1708 q 594 1762 582 1747 q 607 1794 607 1776 q 588 1826 607 1814 q 540 1838 568 1838 q 493 1831 517 1838 q 451 1810 469 1824 q 413 1824 426 1796 q 418 1864 399 1847 q 478 1894 444 1883 q 551 1904 511 1904 m 0 -569 l 1083 -569 l 1083 -583 l 0 -583 l 0 -569 m 0 28 l 1083 28 l 1083 0 l 0 0 l 0 28 m 0 701 l 1083 701 l 1083 694 l 0 694 l 0 701 m 0 1292 l 1083 1292 l 1083 1278 l 0 1278 l 0 1292 z "},"Ẵ":{"ha":1083,"x_min":0,"x_max":1083,"o":"m 71 -18 q 44 -4 50 -14 q 44 22 39 6 l 496 1267 q 511 1292 501 1285 q 542 1299 521 1299 q 572 1292 563 1299 q 586 1267 581 1285 l 1039 22 q 1040 -4 1046 6 q 1011 -18 1033 -14 q 983 -15 992 -21 q 965 14 974 -8 l 832 385 l 251 385 l 117 14 q 101 -15 110 -8 q 71 -18 92 -21 m 276 454 l 806 454 l 542 1186 l 276 454 m 542 1369 q 376 1428 440 1369 q 307 1604 313 1488 q 315 1626 307 1618 q 340 1633 324 1633 q 363 1626 357 1633 q 372 1604 369 1618 q 424 1486 381 1525 q 542 1447 468 1447 q 659 1486 614 1447 q 713 1604 704 1525 q 720 1626 714 1618 q 742 1633 726 1633 q 769 1626 760 1633 q 776 1604 778 1618 q 742 1476 774 1528 q 660 1397 711 1424 q 542 1369 608 1369 m 322 1692 q 292 1721 292 1692 q 328 1838 294 1796 q 418 1879 361 1879 q 492 1862 460 1879 q 553 1822 525 1844 q 607 1781 581 1799 q 661 1764 633 1764 q 705 1788 689 1764 q 724 1857 721 1813 q 757 1882 725 1882 q 782 1876 775 1882 q 789 1853 789 1869 q 752 1737 786 1778 q 658 1696 718 1696 q 587 1713 619 1696 q 526 1753 554 1731 q 472 1794 499 1776 q 418 1813 446 1813 q 374 1790 390 1813 q 356 1719 358 1767 q 347 1698 354 1704 q 322 1692 340 1692 m 0 -569 l 1083 -569 l 1083 -583 l 0 -583 l 0 -569 m 0 28 l 1083 28 l 1083 0 l 0 0 l 0 28 m 0 701 l 1083 701 l 1083 694 l 0 694 l 0 701 m 0 1292 l 1083 1292 l 1083 1278 l 0 1278 l 0 1292 z "},"Ấ":{"ha":1083,"x_min":0,"x_max":1083,"o":"m 71 -18 q 44 -4 50 -14 q 44 22 39 6 l 496 1267 q 511 1292 501 1285 q 542 1299 521 1299 q 572 1292 563 1299 q 586 1267 581 1285 l 1039 22 q 1040 -4 1046 6 q 1011 -18 1033 -14 q 983 -15 992 -21 q 965 14 974 -8 l 832 385 l 251 385 l 117 14 q 101 -15 110 -8 q 71 -18 92 -21 m 276 454 l 806 454 l 542 1186 l 276 454 m 322 1367 q 302 1378 313 1367 q 292 1400 292 1389 q 293 1408 292 1404 q 299 1418 294 1413 l 507 1615 q 522 1628 514 1624 q 542 1633 529 1633 q 561 1628 554 1633 q 576 1615 568 1624 l 783 1417 q 790 1408 789 1413 q 792 1399 792 1403 q 781 1377 792 1388 q 760 1367 771 1367 q 748 1370 753 1367 q 736 1379 743 1374 l 542 1544 l 346 1379 q 335 1370 340 1374 q 322 1367 329 1367 m 747 1578 q 725 1590 738 1578 q 713 1613 713 1603 q 714 1620 713 1617 q 721 1631 715 1624 l 917 1818 q 926 1827 922 1824 q 938 1831 931 1831 q 956 1823 946 1831 q 974 1805 967 1815 q 982 1785 982 1794 q 981 1774 982 1779 q 972 1764 979 1769 l 767 1588 q 756 1581 760 1583 q 747 1578 751 1578 m 0 -569 l 1083 -569 l 1083 -583 l 0 -583 l 0 -569 m 0 28 l 1083 28 l 1083 0 l 0 0 l 0 28 m 0 701 l 1083 701 l 1083 694 l 0 694 l 0 701 m 0 1292 l 1083 1292 l 1083 1278 l 0 1278 l 0 1292 z "},"Ậ":{"ha":1083,"x_min":0,"x_max":1083,"o":"m 71 -18 q 44 -4 50 -14 q 44 22 39 6 l 496 1267 q 511 1292 501 1285 q 542 1299 521 1299 q 572 1292 563 1299 q 586 1267 581 1285 l 1039 22 q 1040 -4 1046 6 q 1011 -18 1033 -14 q 983 -15 992 -21 q 965 14 974 -8 l 832 385 l 251 385 l 117 14 q 101 -15 110 -8 q 71 -18 92 -21 m 276 454 l 806 454 l 542 1186 l 276 454 m 542 -306 q 497 -289 511 -306 q 482 -237 482 -272 q 497 -185 482 -201 q 542 -168 511 -168 q 588 -185 572 -168 q 603 -237 603 -201 q 588 -289 603 -272 q 542 -306 572 -306 m 322 1367 q 302 1378 313 1367 q 292 1400 292 1389 q 293 1408 292 1404 q 299 1418 294 1413 l 507 1615 q 522 1628 514 1624 q 542 1633 529 1633 q 561 1628 554 1633 q 576 1615 568 1624 l 783 1417 q 790 1408 789 1413 q 792 1399 792 1403 q 781 1377 792 1388 q 760 1367 771 1367 q 748 1370 753 1367 q 736 1379 743 1374 l 542 1544 l 346 1379 q 335 1370 340 1374 q 322 1367 329 1367 m 0 -569 l 1083 -569 l 1083 -583 l 0 -583 l 0 -569 m 0 28 l 1083 28 l 1083 0 l 0 0 l 0 28 m 0 701 l 1083 701 l 1083 694 l 0 694 l 0 701 m 0 1292 l 1083 1292 l 1083 1278 l 0 1278 l 0 1292 z "},"Ầ":{"ha":1083,"x_min":0,"x_max":1083,"o":"m 71 -18 q 44 -4 50 -14 q 44 22 39 6 l 496 1267 q 511 1292 501 1285 q 542 1299 521 1299 q 572 1292 563 1299 q 586 1267 581 1285 l 1039 22 q 1040 -4 1046 6 q 1011 -18 1033 -14 q 983 -15 992 -21 q 965 14 974 -8 l 832 385 l 251 385 l 117 14 q 101 -15 110 -8 q 71 -18 92 -21 m 276 454 l 806 454 l 542 1186 l 276 454 m 322 1367 q 302 1378 313 1367 q 292 1400 292 1389 q 293 1408 292 1404 q 299 1418 294 1413 l 507 1615 q 522 1628 514 1624 q 542 1633 529 1633 q 561 1628 554 1633 q 576 1615 568 1624 l 783 1417 q 790 1408 789 1413 q 792 1399 792 1403 q 781 1377 792 1388 q 760 1367 771 1367 q 748 1370 753 1367 q 736 1379 743 1374 l 542 1544 l 346 1379 q 335 1370 340 1374 q 322 1367 329 1367 m 839 1564 q 830 1567 833 1564 q 819 1575 826 1569 l 603 1767 q 594 1777 596 1774 q 593 1788 593 1781 q 601 1807 593 1796 q 619 1826 608 1818 q 639 1833 629 1833 q 649 1830 644 1833 q 660 1821 654 1826 l 865 1615 q 872 1607 871 1611 q 874 1599 874 1603 q 861 1576 874 1589 q 839 1564 849 1564 m 0 -569 l 1083 -569 l 1083 -583 l 0 -583 l 0 -569 m 0 28 l 1083 28 l 1083 0 l 0 0 l 0 28 m 0 701 l 1083 701 l 1083 694 l 0 694 l 0 701 m 0 1292 l 1083 1292 l 1083 1278 l 0 1278 l 0 1292 z "},"Ẩ":{"ha":1083,"x_min":0,"x_max":1083,"o":"m 71 -18 q 44 -4 50 -14 q 44 22 39 6 l 496 1267 q 511 1292 501 1285 q 542 1299 521 1299 q 572 1292 563 1299 q 586 1267 581 1285 l 1039 22 q 1040 -4 1046 6 q 1011 -18 1033 -14 q 983 -15 992 -21 q 965 14 974 -8 l 832 385 l 251 385 l 117 14 q 101 -15 110 -8 q 71 -18 92 -21 m 276 454 l 806 454 l 542 1186 l 276 454 m 322 1367 q 302 1378 313 1367 q 292 1400 292 1389 q 293 1408 292 1404 q 299 1418 294 1413 l 507 1615 q 522 1628 514 1624 q 542 1633 529 1633 q 561 1628 554 1633 q 576 1615 568 1624 l 783 1417 q 790 1408 789 1413 q 792 1399 792 1403 q 781 1377 792 1388 q 760 1367 771 1367 q 748 1370 753 1367 q 736 1379 743 1374 l 542 1544 l 346 1379 q 335 1370 340 1374 q 322 1367 329 1367 m 783 1839 q 883 1809 846 1839 q 919 1732 919 1779 q 903 1676 919 1700 q 847 1624 886 1651 q 813 1593 821 1606 q 815 1558 806 1581 l 818 1550 q 815 1530 822 1539 q 797 1517 808 1521 q 773 1515 785 1514 q 757 1528 761 1517 l 746 1554 q 742 1616 732 1589 q 786 1664 753 1643 q 826 1697 814 1682 q 839 1729 839 1711 q 819 1760 839 1749 q 772 1772 800 1772 q 726 1765 749 1772 q 683 1744 703 1758 q 644 1758 658 1731 q 650 1799 632 1782 q 710 1828 676 1818 q 783 1839 743 1839 m 0 -569 l 1083 -569 l 1083 -583 l 0 -583 l 0 -569 m 0 28 l 1083 28 l 1083 0 l 0 0 l 0 28 m 0 701 l 1083 701 l 1083 694 l 0 694 l 0 701 m 0 1292 l 1083 1292 l 1083 1278 l 0 1278 l 0 1292 z "},"Ẫ":{"ha":1083,"x_min":0,"x_max":1083,"o":"m 71 -18 q 44 -4 50 -14 q 44 22 39 6 l 496 1267 q 511 1292 501 1285 q 542 1299 521 1299 q 572 1292 563 1299 q 586 1267 581 1285 l 1039 22 q 1040 -4 1046 6 q 1011 -18 1033 -14 q 983 -15 992 -21 q 965 14 974 -8 l 832 385 l 251 385 l 117 14 q 101 -15 110 -8 q 71 -18 92 -21 m 276 454 l 806 454 l 542 1186 l 276 454 m 322 1367 q 302 1378 313 1367 q 292 1400 292 1389 q 293 1408 292 1404 q 299 1418 294 1413 l 507 1615 q 522 1628 514 1624 q 542 1633 529 1633 q 561 1628 554 1633 q 576 1615 568 1624 l 783 1417 q 790 1408 789 1413 q 792 1399 792 1403 q 781 1377 792 1388 q 760 1367 771 1367 q 748 1370 753 1367 q 736 1379 743 1374 l 542 1544 l 346 1379 q 335 1370 340 1374 q 322 1367 329 1367 m 325 1651 q 293 1681 293 1651 q 330 1797 296 1756 q 419 1839 364 1839 q 494 1822 461 1839 q 555 1781 526 1804 q 609 1741 583 1758 q 663 1724 635 1724 q 708 1748 692 1724 q 725 1817 724 1772 q 758 1842 726 1842 q 784 1835 778 1842 q 790 1813 790 1829 q 755 1697 789 1738 q 661 1656 721 1656 q 588 1673 621 1656 q 528 1713 556 1690 q 474 1754 500 1736 q 419 1772 449 1772 q 376 1749 392 1772 q 358 1679 361 1726 q 349 1658 357 1664 q 325 1651 342 1651 m 0 -569 l 1083 -569 l 1083 -583 l 0 -583 l 0 -569 m 0 28 l 1083 28 l 1083 0 l 0 0 l 0 28 m 0 701 l 1083 701 l 1083 694 l 0 694 l 0 701 m 0 1292 l 1083 1292 l 1083 1278 l 0 1278 l 0 1292 z "},"Ạ":{"ha":1083,"x_min":0,"x_max":1083,"o":"m 71 -18 q 44 -4 50 -14 q 44 22 39 6 l 496 1267 q 511 1292 501 1285 q 542 1299 521 1299 q 572 1292 563 1299 q 586 1267 581 1285 l 1039 22 q 1040 -4 1046 6 q 1011 -18 1033 -14 q 983 -15 992 -21 q 965 14 974 -8 l 832 385 l 251 385 l 117 14 q 101 -15 110 -8 q 71 -18 92 -21 m 276 454 l 806 454 l 542 1186 l 276 454 m 542 -306 q 497 -289 511 -306 q 482 -237 482 -272 q 497 -185 482 -201 q 542 -168 511 -168 q 588 -185 572 -168 q 603 -237 603 -201 q 588 -289 603 -272 q 542 -306 572 -306 m 0 -569 l 1083 -569 l 1083 -583 l 0 -583 l 0 -569 m 0 28 l 1083 28 l 1083 0 l 0 0 l 0 28 m 0 701 l 1083 701 l 1083 694 l 0 694 l 0 701 m 0 1292 l 1083 1292 l 1083 1278 l 0 1278 l 0 1292 z "},"Ả":{"ha":1083,"x_min":0,"x_max":1083,"o":"m 71 -18 q 44 -4 50 -14 q 44 22 39 6 l 496 1267 q 511 1292 501 1285 q 542 1299 521 1299 q 572 1292 563 1299 q 586 1267 581 1285 l 1039 22 q 1040 -4 1046 6 q 1011 -18 1033 -14 q 983 -15 992 -21 q 965 14 974 -8 l 832 385 l 251 385 l 117 14 q 101 -15 110 -8 q 71 -18 92 -21 m 276 454 l 806 454 l 542 1186 l 276 454 m 554 1671 q 653 1641 615 1671 q 690 1564 690 1611 q 674 1506 690 1531 q 618 1456 657 1482 q 584 1424 592 1438 q 586 1389 576 1411 l 589 1382 q 586 1361 593 1369 q 567 1349 579 1353 q 544 1347 556 1344 q 528 1358 532 1349 l 517 1386 q 513 1448 503 1421 q 557 1496 524 1475 q 597 1528 585 1513 q 610 1560 610 1543 q 590 1592 610 1579 q 543 1604 571 1604 q 496 1597 519 1604 q 454 1576 472 1590 q 415 1589 429 1563 q 421 1629 401 1613 q 481 1660 447 1650 q 554 1671 514 1671 m 0 -569 l 1083 -569 l 1083 -583 l 0 -583 l 0 -569 m 0 28 l 1083 28 l 1083 0 l 0 0 l 0 28 m 0 701 l 1083 701 l 1083 694 l 0 694 l 0 701 m 0 1292 l 1083 1292 l 1083 1278 l 0 1278 l 0 1292 z "},"Ć":{"ha":1119,"x_min":0,"x_max":1119,"o":"m 654 -26 q 438 21 533 -26 q 273 156 342 68 q 167 365 204 243 q 131 636 131 488 q 148 824 131 736 q 199 985 165 911 q 281 1117 233 1058 q 390 1215 329 1175 q 522 1277 450 1256 q 672 1299 593 1299 q 801 1283 738 1299 q 921 1233 864 1267 q 1019 1144 978 1200 q 1030 1123 1032 1132 q 1015 1101 1028 1114 q 991 1090 1001 1090 q 968 1104 981 1090 q 883 1172 931 1144 q 783 1212 836 1199 q 672 1225 729 1225 q 546 1207 606 1225 q 435 1153 486 1189 q 342 1067 383 1118 q 272 951 301 1017 q 226 806 242 885 q 211 636 211 728 q 243 392 211 500 q 333 206 275 283 q 472 89 390 129 q 654 49 554 49 q 756 61 708 49 q 846 97 804 74 q 924 153 888 121 q 997 226 961 186 q 1020 240 1010 239 q 1044 228 1031 240 q 1060 207 1058 217 q 1050 185 1061 197 q 931 68 993 115 q 799 -3 868 21 q 654 -26 731 -26 m 585 1368 q 563 1381 575 1368 q 550 1401 550 1393 q 551 1410 550 1406 q 558 1419 553 1414 l 771 1621 q 781 1630 776 1626 q 790 1633 785 1633 q 811 1626 800 1633 q 830 1607 822 1618 q 838 1588 838 1596 q 835 1576 838 1581 q 826 1567 833 1572 l 604 1378 q 594 1371 597 1374 q 585 1368 590 1368 m 0 -569 l 1119 -569 l 1119 -583 l 0 -583 l 0 -569 m 0 28 l 1119 28 l 1119 0 l 0 0 l 0 28 m 0 701 l 1119 701 l 1119 694 l 0 694 l 0 701 m 0 1292 l 1119 1292 l 1119 1278 l 0 1278 l 0 1292 z "},"Č":{"ha":1119,"x_min":0,"x_max":1119,"o":"m 654 -26 q 438 21 533 -26 q 273 156 342 68 q 167 365 204 243 q 131 636 131 488 q 148 824 131 736 q 199 985 165 911 q 281 1117 233 1058 q 390 1215 329 1175 q 522 1277 450 1256 q 672 1299 593 1299 q 801 1283 738 1299 q 921 1233 864 1267 q 1019 1144 978 1200 q 1030 1123 1032 1132 q 1015 1101 1028 1114 q 991 1090 1001 1090 q 968 1104 981 1090 q 883 1172 931 1144 q 783 1212 836 1199 q 672 1225 729 1225 q 546 1207 606 1225 q 435 1153 486 1189 q 342 1067 383 1118 q 272 951 301 1017 q 226 806 242 885 q 211 636 211 728 q 243 392 211 500 q 333 206 275 283 q 472 89 390 129 q 654 49 554 49 q 756 61 708 49 q 846 97 804 74 q 924 153 888 121 q 997 226 961 186 q 1020 240 1010 239 q 1044 228 1031 240 q 1060 207 1058 217 q 1050 185 1061 197 q 931 68 993 115 q 799 -3 868 21 q 654 -26 731 -26 m 878 1633 q 899 1623 889 1633 q 908 1600 908 1613 q 907 1592 908 1596 q 901 1582 906 1588 l 694 1385 q 679 1373 686 1378 q 658 1368 672 1368 q 639 1373 646 1368 q 625 1385 632 1378 l 417 1583 q 410 1594 411 1589 q 408 1601 408 1599 q 419 1624 408 1614 q 440 1633 431 1633 q 452 1630 447 1633 q 464 1622 457 1626 l 658 1457 l 854 1622 q 865 1630 860 1626 q 878 1633 871 1633 m 0 -569 l 1119 -569 l 1119 -583 l 0 -583 l 0 -569 m 0 28 l 1119 28 l 1119 0 l 0 0 l 0 28 m 0 701 l 1119 701 l 1119 694 l 0 694 l 0 701 m 0 1292 l 1119 1292 l 1119 1278 l 0 1278 l 0 1292 z "},"Ç":{"ha":1119,"x_min":0,"x_max":1119,"o":"m 654 -26 q 438 21 533 -26 q 273 156 342 68 q 167 365 204 243 q 131 636 131 488 q 148 824 131 736 q 199 985 165 911 q 281 1117 233 1058 q 390 1215 329 1175 q 522 1277 450 1256 q 672 1299 593 1299 q 801 1283 738 1299 q 921 1233 864 1267 q 1019 1144 978 1200 q 1030 1123 1032 1132 q 1015 1101 1028 1114 q 991 1090 1001 1090 q 968 1104 981 1090 q 883 1172 931 1144 q 783 1212 836 1199 q 672 1225 729 1225 q 546 1207 606 1225 q 435 1153 486 1189 q 342 1067 383 1118 q 272 951 301 1017 q 226 806 242 885 q 211 636 211 728 q 243 392 211 500 q 333 206 275 283 q 472 89 390 129 q 654 49 554 49 q 756 61 708 49 q 846 97 804 74 q 924 153 888 121 q 997 226 961 186 q 1020 240 1010 239 q 1044 228 1031 240 q 1060 207 1058 217 q 1050 185 1061 197 q 931 68 993 115 q 799 -3 868 21 q 654 -26 731 -26 m 614 -371 q 553 -364 590 -371 q 482 -336 515 -357 q 468 -317 469 -328 q 472 -294 467 -307 q 488 -280 479 -283 q 510 -282 497 -276 q 556 -298 531 -290 q 611 -306 582 -306 q 675 -288 653 -306 q 697 -237 697 -271 q 670 -188 697 -204 q 585 -179 643 -172 q 565 -178 572 -181 q 553 -169 558 -176 q 548 -151 547 -160 q 554 -131 549 -143 l 613 6 l 672 6 l 606 -150 l 583 -131 q 677 -124 635 -115 q 745 -160 719 -132 q 771 -237 771 -189 q 751 -307 771 -276 q 697 -354 732 -337 q 614 -371 663 -371 m 0 -569 l 1119 -569 l 1119 -583 l 0 -583 l 0 -569 m 0 28 l 1119 28 l 1119 0 l 0 0 l 0 28 m 0 701 l 1119 701 l 1119 694 l 0 694 l 0 701 m 0 1292 l 1119 1292 l 1119 1278 l 0 1278 l 0 1292 z "},"Ĉ":{"ha":1119,"x_min":0,"x_max":1119,"o":"m 654 -26 q 438 21 533 -26 q 273 156 342 68 q 167 365 204 243 q 131 636 131 488 q 148 824 131 736 q 199 985 165 911 q 281 1117 233 1058 q 390 1215 329 1175 q 522 1277 450 1256 q 672 1299 593 1299 q 801 1283 738 1299 q 921 1233 864 1267 q 1019 1144 978 1200 q 1030 1123 1032 1132 q 1015 1101 1028 1114 q 991 1090 1001 1090 q 968 1104 981 1090 q 883 1172 931 1144 q 783 1212 836 1199 q 672 1225 729 1225 q 546 1207 606 1225 q 435 1153 486 1189 q 342 1067 383 1118 q 272 951 301 1017 q 226 806 242 885 q 211 636 211 728 q 243 392 211 500 q 333 206 275 283 q 472 89 390 129 q 654 49 554 49 q 756 61 708 49 q 846 97 804 74 q 924 153 888 121 q 997 226 961 186 q 1020 240 1010 239 q 1044 228 1031 240 q 1060 207 1058 217 q 1050 185 1061 197 q 931 68 993 115 q 799 -3 868 21 q 654 -26 731 -26 m 440 1367 q 419 1378 431 1367 q 408 1400 408 1389 q 410 1408 408 1404 q 417 1418 411 1413 l 624 1615 q 638 1628 631 1624 q 658 1633 646 1633 q 678 1628 671 1633 q 693 1615 685 1624 l 901 1417 q 907 1408 906 1413 q 908 1399 908 1403 q 899 1377 908 1388 q 878 1367 889 1367 q 865 1370 871 1367 q 854 1379 860 1374 l 658 1544 l 464 1379 q 452 1370 457 1374 q 440 1367 447 1367 m 0 -569 l 1119 -569 l 1119 -583 l 0 -583 l 0 -569 m 0 28 l 1119 28 l 1119 0 l 0 0 l 0 28 m 0 701 l 1119 701 l 1119 694 l 0 694 l 0 701 m 0 1292 l 1119 1292 l 1119 1278 l 0 1278 l 0 1292 z "},"Ċ":{"ha":1119,"x_min":0,"x_max":1119,"o":"m 654 -26 q 438 21 533 -26 q 273 156 342 68 q 167 365 204 243 q 131 636 131 488 q 148 824 131 736 q 199 985 165 911 q 281 1117 233 1058 q 390 1215 329 1175 q 522 1277 450 1256 q 672 1299 593 1299 q 801 1283 738 1299 q 921 1233 864 1267 q 1019 1144 978 1200 q 1030 1123 1032 1132 q 1015 1101 1028 1114 q 991 1090 1001 1090 q 968 1104 981 1090 q 883 1172 931 1144 q 783 1212 836 1199 q 672 1225 729 1225 q 546 1207 606 1225 q 435 1153 486 1189 q 342 1067 383 1118 q 272 951 301 1017 q 226 806 242 885 q 211 636 211 728 q 243 392 211 500 q 333 206 275 283 q 472 89 390 129 q 654 49 554 49 q 756 61 708 49 q 846 97 804 74 q 924 153 888 121 q 997 226 961 186 q 1020 240 1010 239 q 1044 228 1031 240 q 1060 207 1058 217 q 1050 185 1061 197 q 931 68 993 115 q 799 -3 868 21 q 654 -26 731 -26 m 658 1417 q 613 1433 628 1417 q 599 1483 599 1449 q 613 1536 599 1519 q 658 1553 628 1553 q 704 1536 689 1553 q 719 1483 719 1519 q 704 1433 719 1449 q 658 1417 689 1417 m 0 -569 l 1119 -569 l 1119 -583 l 0 -583 l 0 -569 m 0 28 l 1119 28 l 1119 0 l 0 0 l 0 28 m 0 701 l 1119 701 l 1119 694 l 0 694 l 0 701 m 0 1292 l 1119 1292 l 1119 1278 l 0 1278 l 0 1292 z "},"Ď":{"ha":1254,"x_min":0,"x_max":1254,"o":"m 244 0 q 206 26 206 0 l 206 1250 q 215 1270 206 1264 q 244 1276 225 1276 l 506 1276 q 756 1240 643 1276 q 952 1131 869 1203 q 1080 952 1035 1058 q 1125 704 1125 846 q 1098 480 1125 586 q 1015 286 1071 374 q 876 134 960 199 q 681 35 793 69 q 425 0 568 0 l 244 0 m 283 72 l 425 72 q 650 103 550 72 q 824 190 750 133 q 946 326 897 247 q 1019 500 994 404 q 1043 704 1043 596 q 1003 928 1043 833 q 890 1083 963 1022 q 719 1174 817 1144 q 506 1204 621 1204 l 283 1204 l 283 72 m 797 1633 q 817 1623 807 1633 q 828 1600 828 1613 q 826 1592 828 1596 q 821 1582 825 1588 l 613 1385 q 598 1373 606 1378 q 578 1368 590 1368 q 558 1373 565 1368 q 543 1385 551 1378 l 336 1583 q 329 1594 331 1589 q 328 1601 328 1599 q 339 1624 328 1614 q 360 1633 350 1633 q 372 1630 367 1633 q 383 1622 376 1626 l 578 1457 l 774 1622 q 785 1630 779 1626 q 797 1633 790 1633 m 0 -569 l 1254 -569 l 1254 -583 l 0 -583 l 0 -569 m 0 28 l 1254 28 l 1254 0 l 0 0 l 0 28 m 0 701 l 1254 701 l 1254 694 l 0 694 l 0 701 m 0 1292 l 1254 1292 l 1254 1278 l 0 1278 l 0 1292 z "},"Đ":{"ha":1254,"x_min":0,"x_max":1254,"o":"m 244 0 q 206 26 206 0 l 206 1250 q 215 1270 206 1264 q 244 1276 225 1276 l 506 1276 q 756 1240 643 1276 q 952 1131 869 1203 q 1080 952 1035 1058 q 1125 704 1125 846 q 1098 480 1125 586 q 1015 286 1071 374 q 876 134 960 199 q 681 35 793 69 q 425 0 568 0 l 244 0 m 283 72 l 425 72 q 650 103 550 72 q 824 190 750 133 q 946 326 897 247 q 1019 500 994 404 q 1043 704 1043 596 q 1003 928 1043 833 q 890 1083 963 1022 q 719 1174 817 1144 q 506 1204 621 1204 l 283 1204 l 283 72 m 74 608 q 53 617 58 608 q 47 639 47 625 q 53 664 47 654 q 74 674 58 674 l 592 674 q 613 664 607 674 q 618 639 618 654 q 613 617 618 625 q 592 608 607 608 l 74 608 m 0 -569 l 1254 -569 l 1254 -583 l 0 -583 l 0 -569 m 0 28 l 1254 28 l 1254 0 l 0 0 l 0 28 m 0 701 l 1254 701 l 1254 694 l 0 694 l 0 701 m 0 1292 l 1254 1292 l 1254 1278 l 0 1278 l 0 1292 z "},"É":{"ha":957,"x_min":0,"x_max":957,"o":"m 244 0 q 215 8 225 0 q 206 32 206 15 l 206 1250 q 215 1270 206 1264 q 244 1276 225 1276 l 867 1276 q 884 1269 878 1276 q 890 1242 890 1261 q 884 1215 890 1222 q 867 1207 878 1207 l 282 1207 l 282 710 l 776 710 q 794 702 788 710 q 800 675 800 694 q 794 648 800 656 q 776 640 788 640 l 282 640 l 282 69 l 867 69 q 884 62 878 69 q 890 35 890 54 q 884 8 890 15 q 867 0 878 0 l 244 0 m 485 1368 q 462 1381 475 1368 q 449 1401 449 1393 q 450 1410 449 1406 q 457 1419 451 1414 l 669 1621 q 679 1630 675 1626 q 689 1633 683 1633 q 710 1626 699 1633 q 728 1607 721 1618 q 736 1588 736 1596 q 735 1576 736 1581 q 725 1567 733 1572 l 503 1378 q 493 1371 497 1374 q 485 1368 489 1368 m 0 -569 l 957 -569 l 957 -583 l 0 -583 l 0 -569 m 0 28 l 957 28 l 957 0 l 0 0 l 0 28 m 0 701 l 957 701 l 957 694 l 0 694 l 0 701 m 0 1292 l 957 1292 l 957 1278 l 0 1278 l 0 1292 z "},"Ĕ":{"ha":957,"x_min":0,"x_max":957,"o":"m 244 0 q 215 8 225 0 q 206 32 206 15 l 206 1250 q 215 1270 206 1264 q 244 1276 225 1276 l 867 1276 q 884 1269 878 1276 q 890 1242 890 1261 q 884 1215 890 1222 q 867 1207 878 1207 l 282 1207 l 282 710 l 776 710 q 794 702 788 710 q 800 675 800 694 q 794 648 800 656 q 776 640 788 640 l 282 640 l 282 69 l 867 69 q 884 62 878 69 q 890 35 890 54 q 884 8 890 15 q 867 0 878 0 l 244 0 m 557 1369 q 392 1428 457 1369 q 322 1604 328 1488 q 331 1626 322 1618 q 357 1633 339 1633 q 379 1626 372 1633 q 388 1604 386 1618 q 440 1486 396 1525 q 557 1447 485 1447 q 676 1486 631 1447 q 728 1604 721 1525 q 735 1626 729 1618 q 758 1633 742 1633 q 785 1626 776 1633 q 793 1604 793 1618 q 759 1476 790 1528 q 676 1397 728 1424 q 557 1369 624 1369 m 0 -569 l 957 -569 l 957 -583 l 0 -583 l 0 -569 m 0 28 l 957 28 l 957 0 l 0 0 l 0 28 m 0 701 l 957 701 l 957 694 l 0 694 l 0 701 m 0 1292 l 957 1292 l 957 1278 l 0 1278 l 0 1292 z "},"Ě":{"ha":957,"x_min":0,"x_max":957,"o":"m 244 0 q 215 8 225 0 q 206 32 206 15 l 206 1250 q 215 1270 206 1264 q 244 1276 225 1276 l 867 1276 q 884 1269 878 1276 q 890 1242 890 1261 q 884 1215 890 1222 q 867 1207 878 1207 l 282 1207 l 282 710 l 776 710 q 794 702 788 710 q 800 675 800 694 q 794 648 800 656 q 776 640 788 640 l 282 640 l 282 69 l 867 69 q 884 62 878 69 q 890 35 890 54 q 884 8 890 15 q 867 0 878 0 l 244 0 m 776 1633 q 797 1623 788 1633 q 807 1600 807 1613 q 806 1592 807 1596 q 800 1582 804 1588 l 593 1385 q 578 1373 585 1378 q 557 1368 571 1368 q 538 1373 544 1368 q 524 1385 531 1378 l 315 1583 q 309 1594 310 1589 q 308 1601 308 1599 q 319 1624 308 1614 q 339 1633 329 1633 q 351 1630 346 1633 q 363 1622 357 1626 l 557 1457 l 753 1622 q 764 1630 758 1626 q 776 1633 769 1633 m 0 -569 l 957 -569 l 957 -583 l 0 -583 l 0 -569 m 0 28 l 957 28 l 957 0 l 0 0 l 0 28 m 0 701 l 957 701 l 957 694 l 0 694 l 0 701 m 0 1292 l 957 1292 l 957 1278 l 0 1278 l 0 1292 z "},"Ê":{"ha":957,"x_min":0,"x_max":957,"o":"m 244 0 q 215 8 225 0 q 206 32 206 15 l 206 1250 q 215 1270 206 1264 q 244 1276 225 1276 l 867 1276 q 884 1269 878 1276 q 890 1242 890 1261 q 884 1215 890 1222 q 867 1207 878 1207 l 282 1207 l 282 710 l 776 710 q 794 702 788 710 q 800 675 800 694 q 794 648 800 656 q 776 640 788 640 l 282 640 l 282 69 l 867 69 q 884 62 878 69 q 890 35 890 54 q 884 8 890 15 q 867 0 878 0 l 244 0 m 339 1367 q 319 1378 329 1367 q 308 1400 308 1389 q 309 1408 308 1404 q 315 1418 310 1413 l 522 1615 q 538 1628 531 1624 q 557 1633 544 1633 q 577 1628 569 1633 q 592 1615 585 1624 l 800 1417 q 806 1408 804 1413 q 807 1399 807 1403 q 797 1377 807 1388 q 776 1367 788 1367 q 764 1370 769 1367 q 753 1379 758 1374 l 557 1544 l 363 1379 q 351 1370 357 1374 q 339 1367 346 1367 m 0 -569 l 957 -569 l 957 -583 l 0 -583 l 0 -569 m 0 28 l 957 28 l 957 0 l 0 0 l 0 28 m 0 701 l 957 701 l 957 694 l 0 694 l 0 701 m 0 1292 l 957 1292 l 957 1278 l 0 1278 l 0 1292 z "},"Ë":{"ha":957,"x_min":0,"x_max":957,"o":"m 244 0 q 215 8 225 0 q 206 32 206 17 l 206 1250 q 215 1270 206 1264 q 244 1276 225 1276 l 867 1276 q 884 1269 878 1276 q 890 1242 890 1261 q 884 1215 890 1224 q 867 1207 878 1207 l 282 1207 l 282 710 l 776 710 q 794 702 788 710 q 800 675 800 694 q 794 648 800 656 q 776 640 788 640 l 282 640 l 282 69 l 867 69 q 884 62 878 69 q 890 35 890 54 q 884 8 890 15 q 867 0 878 0 l 244 0 m 385 1417 q 339 1433 354 1417 q 324 1483 324 1449 q 339 1536 324 1519 q 385 1553 354 1553 q 430 1535 415 1553 q 444 1483 444 1518 q 430 1433 446 1449 q 385 1417 414 1417 m 732 1417 q 685 1433 700 1417 q 671 1483 671 1449 q 686 1536 671 1519 q 731 1553 701 1553 q 776 1535 761 1553 q 792 1483 792 1518 q 776 1433 792 1449 q 732 1417 761 1417 m 0 -569 l 957 -569 l 957 -583 l 0 -583 l 0 -569 m 0 28 l 957 28 l 957 0 l 0 0 l 0 28 m 0 701 l 957 701 l 957 694 l 0 694 l 0 701 m 0 1292 l 957 1292 l 957 1278 l 0 1278 l 0 1292 z "},"Ė":{"ha":957,"x_min":0,"x_max":957,"o":"m 244 0 q 215 8 225 0 q 206 32 206 15 l 206 1250 q 215 1270 206 1264 q 244 1276 225 1276 l 867 1276 q 884 1269 878 1276 q 890 1242 890 1261 q 884 1215 890 1222 q 867 1207 878 1207 l 282 1207 l 282 710 l 776 710 q 794 702 788 710 q 800 675 800 694 q 794 648 800 656 q 776 640 788 640 l 282 640 l 282 69 l 867 69 q 884 62 878 69 q 890 35 890 54 q 884 8 890 15 q 867 0 878 0 l 244 0 m 557 1417 q 512 1433 526 1417 q 497 1483 497 1449 q 512 1536 497 1519 q 557 1553 526 1553 q 603 1536 588 1553 q 618 1483 618 1519 q 603 1433 618 1449 q 557 1417 588 1417 m 0 -569 l 957 -569 l 957 -583 l 0 -583 l 0 -569 m 0 28 l 957 28 l 957 0 l 0 0 l 0 28 m 0 701 l 957 701 l 957 694 l 0 694 l 0 701 m 0 1292 l 957 1292 l 957 1278 l 0 1278 l 0 1292 z "},"È":{"ha":957,"x_min":0,"x_max":957,"o":"m 244 0 q 215 8 225 0 q 206 32 206 15 l 206 1250 q 215 1270 206 1264 q 244 1276 225 1276 l 867 1276 q 884 1269 878 1276 q 890 1242 890 1261 q 884 1215 890 1222 q 867 1207 878 1207 l 282 1207 l 282 710 l 776 710 q 794 702 788 710 q 800 675 800 694 q 794 648 800 656 q 776 640 788 640 l 282 640 l 282 69 l 867 69 q 884 62 878 69 q 890 35 890 54 q 884 8 890 15 q 867 0 878 0 l 244 0 m 631 1368 q 622 1371 625 1368 q 611 1378 618 1374 l 389 1567 q 381 1576 382 1572 q 379 1588 379 1581 q 387 1607 379 1596 q 405 1626 394 1618 q 425 1633 415 1633 q 435 1630 431 1633 q 446 1621 440 1626 l 657 1419 q 665 1410 664 1414 q 665 1401 665 1406 q 653 1381 665 1393 q 631 1368 640 1368 m 0 -569 l 957 -569 l 957 -583 l 0 -583 l 0 -569 m 0 28 l 957 28 l 957 0 l 0 0 l 0 28 m 0 701 l 957 701 l 957 694 l 0 694 l 0 701 m 0 1292 l 957 1292 l 957 1278 l 0 1278 l 0 1292 z "},"Ē":{"ha":957,"x_min":0,"x_max":957,"o":"m 244 0 q 215 8 225 0 q 206 32 206 15 l 206 1250 q 215 1270 206 1264 q 244 1276 225 1276 l 867 1276 q 884 1269 878 1276 q 890 1242 890 1261 q 884 1215 890 1222 q 867 1207 878 1207 l 282 1207 l 282 710 l 776 710 q 794 702 788 710 q 800 675 800 694 q 794 648 800 656 q 776 640 788 640 l 282 640 l 282 69 l 867 69 q 884 62 878 69 q 890 35 890 54 q 884 8 890 15 q 867 0 878 0 l 244 0 m 368 1467 q 347 1476 353 1467 q 342 1500 342 1485 q 347 1528 342 1518 q 368 1539 353 1539 l 746 1539 q 767 1528 763 1539 q 772 1500 772 1518 q 767 1476 772 1485 q 746 1467 763 1467 l 368 1467 m 0 -569 l 957 -569 l 957 -583 l 0 -583 l 0 -569 m 0 28 l 957 28 l 957 0 l 0 0 l 0 28 m 0 701 l 957 701 l 957 694 l 0 694 l 0 701 m 0 1292 l 957 1292 l 957 1278 l 0 1278 l 0 1292 z "},"Ę":{"ha":957,"x_min":0,"x_max":957,"o":"m 244 0 q 215 8 225 0 q 206 32 206 15 l 206 1250 q 215 1270 206 1264 q 244 1276 225 1276 l 867 1276 q 884 1269 878 1276 q 890 1242 890 1261 q 884 1215 890 1222 q 867 1207 878 1207 l 282 1207 l 282 710 l 776 710 q 794 702 788 710 q 800 675 800 694 q 794 648 800 656 q 776 640 788 640 l 282 640 l 282 69 l 867 69 q 884 62 878 69 q 890 35 890 54 q 884 8 890 15 q 867 0 878 0 l 244 0 m 753 -351 q 667 -321 701 -351 q 633 -229 633 -290 q 647 -162 633 -194 q 686 -98 661 -129 q 747 -37 711 -67 q 824 24 782 -7 l 882 24 l 882 15 q 817 -36 849 -8 q 759 -93 785 -64 q 718 -152 733 -122 q 703 -212 703 -182 q 718 -268 703 -250 q 763 -286 733 -286 q 812 -274 783 -286 q 868 -232 840 -261 q 886 -222 876 -222 q 904 -229 896 -221 q 917 -250 915 -239 q 913 -272 919 -261 q 867 -314 894 -296 q 810 -342 840 -332 q 753 -351 779 -351 m 0 -569 l 957 -569 l 957 -583 l 0 -583 l 0 -569 m 0 28 l 957 28 l 957 0 l 0 0 l 0 28 m 0 701 l 957 701 l 957 694 l 0 694 l 0 701 m 0 1292 l 957 1292 l 957 1278 l 0 1278 l 0 1292 z "},"Ế":{"ha":957,"x_min":0,"x_max":999,"o":"m 244 0 q 215 8 225 0 q 206 32 206 15 l 206 1250 q 215 1270 206 1264 q 244 1276 225 1276 l 867 1276 q 884 1269 878 1276 q 890 1242 890 1261 q 884 1215 890 1222 q 867 1207 878 1207 l 282 1207 l 282 710 l 776 710 q 794 702 788 710 q 800 675 800 694 q 794 648 800 656 q 776 640 788 640 l 282 640 l 282 69 l 867 69 q 884 62 878 69 q 890 35 890 54 q 884 8 890 15 q 867 0 878 0 l 244 0 m 339 1367 q 319 1378 329 1367 q 308 1400 308 1389 q 309 1408 308 1404 q 315 1418 310 1413 l 522 1615 q 538 1628 531 1624 q 557 1633 544 1633 q 577 1628 569 1633 q 592 1615 585 1624 l 800 1417 q 806 1408 804 1413 q 807 1399 807 1403 q 797 1377 807 1388 q 776 1367 788 1367 q 764 1370 769 1367 q 753 1379 758 1374 l 557 1544 l 363 1379 q 351 1370 357 1374 q 339 1367 346 1367 m 764 1578 q 741 1590 753 1578 q 729 1613 729 1603 q 730 1620 729 1617 q 736 1631 731 1624 l 932 1818 q 943 1827 939 1824 q 953 1831 947 1831 q 973 1823 963 1831 q 991 1805 983 1815 q 999 1785 999 1794 q 997 1774 999 1779 q 988 1764 996 1769 l 782 1588 q 772 1581 776 1583 q 764 1578 767 1578 m 0 -569 l 957 -569 l 957 -583 l 0 -583 l 0 -569 m 0 28 l 957 28 l 957 0 l 0 0 l 0 28 m 0 701 l 957 701 l 957 694 l 0 694 l 0 701 m 0 1292 l 957 1292 l 957 1278 l 0 1278 l 0 1292 z "},"Ệ":{"ha":957,"x_min":0,"x_max":957,"o":"m 244 0 q 215 8 225 0 q 206 32 206 15 l 206 1250 q 215 1270 206 1264 q 244 1276 225 1276 l 867 1276 q 884 1269 878 1276 q 890 1242 890 1261 q 884 1215 890 1222 q 867 1207 878 1207 l 282 1207 l 282 710 l 776 710 q 794 702 788 710 q 800 675 800 694 q 794 648 800 656 q 776 640 788 640 l 282 640 l 282 69 l 867 69 q 884 62 878 69 q 890 35 890 54 q 884 8 890 15 q 867 0 878 0 l 244 0 m 532 -306 q 487 -289 501 -306 q 472 -237 472 -272 q 487 -185 472 -201 q 532 -168 501 -168 q 578 -185 563 -168 q 593 -237 593 -201 q 578 -289 593 -272 q 532 -306 563 -306 m 339 1367 q 319 1378 329 1367 q 308 1400 308 1389 q 309 1408 308 1404 q 315 1418 310 1413 l 522 1615 q 538 1628 531 1624 q 557 1633 544 1633 q 577 1628 569 1633 q 592 1615 585 1624 l 800 1417 q 806 1408 804 1413 q 807 1399 807 1403 q 797 1377 807 1388 q 776 1367 788 1367 q 764 1370 769 1367 q 753 1379 758 1374 l 557 1544 l 363 1379 q 351 1370 357 1374 q 339 1367 346 1367 m 0 -569 l 957 -569 l 957 -583 l 0 -583 l 0 -569 m 0 28 l 957 28 l 957 0 l 0 0 l 0 28 m 0 701 l 957 701 l 957 694 l 0 694 l 0 701 m 0 1292 l 957 1292 l 957 1278 l 0 1278 l 0 1292 z "},"Ề":{"ha":957,"x_min":0,"x_max":957,"o":"m 244 0 q 215 8 225 0 q 206 32 206 15 l 206 1250 q 215 1270 206 1264 q 244 1276 225 1276 l 867 1276 q 884 1269 878 1276 q 890 1242 890 1261 q 884 1215 890 1222 q 867 1207 878 1207 l 282 1207 l 282 710 l 776 710 q 794 702 788 710 q 800 675 800 694 q 794 648 800 656 q 776 640 788 640 l 282 640 l 282 69 l 867 69 q 884 62 878 69 q 890 35 890 54 q 884 8 890 15 q 867 0 878 0 l 244 0 m 339 1367 q 319 1378 329 1367 q 308 1400 308 1389 q 309 1408 308 1404 q 315 1418 310 1413 l 522 1615 q 538 1628 531 1624 q 557 1633 544 1633 q 577 1628 569 1633 q 592 1615 585 1624 l 800 1417 q 806 1408 804 1413 q 807 1399 807 1403 q 797 1377 807 1388 q 776 1367 788 1367 q 764 1370 769 1367 q 753 1379 758 1374 l 557 1544 l 363 1379 q 351 1370 357 1374 q 339 1367 346 1367 m 854 1564 q 846 1567 850 1564 q 835 1575 842 1569 l 619 1767 q 611 1777 613 1774 q 610 1788 610 1781 q 617 1807 610 1796 q 635 1826 624 1818 q 654 1833 646 1833 q 665 1830 661 1833 q 675 1821 669 1826 l 882 1615 q 888 1607 886 1611 q 889 1599 889 1603 q 877 1576 889 1589 q 854 1564 865 1564 m 0 -569 l 957 -569 l 957 -583 l 0 -583 l 0 -569 m 0 28 l 957 28 l 957 0 l 0 0 l 0 28 m 0 701 l 957 701 l 957 694 l 0 694 l 0 701 m 0 1292 l 957 1292 l 957 1278 l 0 1278 l 0 1292 z "},"Ể":{"ha":957,"x_min":0,"x_max":957,"o":"m 244 0 q 215 8 225 0 q 206 32 206 15 l 206 1250 q 215 1270 206 1264 q 244 1276 225 1276 l 867 1276 q 884 1269 878 1276 q 890 1242 890 1261 q 884 1215 890 1222 q 867 1207 878 1207 l 282 1207 l 282 710 l 776 710 q 794 702 788 710 q 800 675 800 694 q 794 648 800 656 q 776 640 788 640 l 282 640 l 282 69 l 867 69 q 884 62 878 69 q 890 35 890 54 q 884 8 890 15 q 867 0 878 0 l 244 0 m 339 1367 q 319 1378 329 1367 q 308 1400 308 1389 q 309 1408 308 1404 q 315 1418 310 1413 l 522 1615 q 538 1628 531 1624 q 557 1633 544 1633 q 577 1628 569 1633 q 592 1615 585 1624 l 800 1417 q 806 1408 804 1413 q 807 1399 807 1403 q 797 1377 807 1388 q 776 1367 788 1367 q 764 1370 769 1367 q 753 1379 758 1374 l 557 1544 l 363 1379 q 351 1370 357 1374 q 339 1367 346 1367 m 799 1839 q 899 1809 861 1839 q 936 1732 936 1779 q 919 1676 936 1700 q 863 1624 901 1651 q 828 1593 836 1606 q 832 1558 821 1581 l 833 1550 q 831 1530 838 1539 q 813 1517 825 1521 q 789 1515 800 1514 q 774 1528 778 1517 l 763 1554 q 759 1616 749 1589 q 801 1664 769 1643 q 842 1697 829 1682 q 856 1729 856 1711 q 836 1760 856 1749 q 788 1772 817 1772 q 741 1765 764 1772 q 699 1744 718 1758 q 660 1758 674 1731 q 667 1799 647 1782 q 726 1828 692 1818 q 799 1839 760 1839 m 0 -569 l 957 -569 l 957 -583 l 0 -583 l 0 -569 m 0 28 l 957 28 l 957 0 l 0 0 l 0 28 m 0 701 l 957 701 l 957 694 l 0 694 l 0 701 m 0 1292 l 957 1292 l 957 1278 l 0 1278 l 0 1292 z "},"Ễ":{"ha":957,"x_min":0,"x_max":957,"o":"m 244 0 q 215 8 225 0 q 206 32 206 15 l 206 1250 q 215 1270 206 1264 q 244 1276 225 1276 l 867 1276 q 884 1269 878 1276 q 890 1242 890 1261 q 884 1215 890 1222 q 867 1207 878 1207 l 282 1207 l 282 710 l 776 710 q 794 702 788 710 q 800 675 800 694 q 794 648 800 656 q 776 640 788 640 l 282 640 l 282 69 l 867 69 q 884 62 878 69 q 890 35 890 54 q 884 8 890 15 q 867 0 878 0 l 244 0 m 339 1367 q 319 1378 329 1367 q 308 1400 308 1389 q 309 1408 308 1404 q 315 1418 310 1413 l 522 1615 q 538 1628 531 1624 q 557 1633 544 1633 q 577 1628 569 1633 q 592 1615 585 1624 l 800 1417 q 806 1408 804 1413 q 807 1399 807 1403 q 797 1377 807 1388 q 776 1367 788 1367 q 764 1370 769 1367 q 753 1379 758 1374 l 557 1544 l 363 1379 q 351 1370 357 1374 q 339 1367 346 1367 m 340 1651 q 310 1681 310 1651 q 346 1797 313 1756 q 436 1839 379 1839 q 510 1822 478 1839 q 571 1781 543 1804 q 625 1741 599 1758 q 679 1724 651 1724 q 723 1748 707 1724 q 742 1817 739 1772 q 775 1842 743 1842 q 800 1835 793 1842 q 807 1813 807 1829 q 771 1697 804 1738 q 678 1656 738 1656 q 605 1673 638 1656 q 544 1713 572 1690 q 490 1754 517 1736 q 436 1772 464 1772 q 392 1749 408 1772 q 374 1679 376 1726 q 365 1658 372 1664 q 340 1651 358 1651 m 0 -569 l 957 -569 l 957 -583 l 0 -583 l 0 -569 m 0 28 l 957 28 l 957 0 l 0 0 l 0 28 m 0 701 l 957 701 l 957 694 l 0 694 l 0 701 m 0 1292 l 957 1292 l 957 1278 l 0 1278 l 0 1292 z "},"Ẹ":{"ha":957,"x_min":0,"x_max":957,"o":"m 244 0 q 215 8 225 0 q 206 32 206 15 l 206 1250 q 215 1270 206 1264 q 244 1276 225 1276 l 867 1276 q 884 1269 878 1276 q 890 1242 890 1261 q 884 1215 890 1222 q 867 1207 878 1207 l 282 1207 l 282 710 l 776 710 q 794 702 788 710 q 800 675 800 694 q 794 648 800 656 q 776 640 788 640 l 282 640 l 282 69 l 867 69 q 884 62 878 69 q 890 35 890 54 q 884 8 890 15 q 867 0 878 0 l 244 0 m 532 -306 q 487 -289 501 -306 q 472 -237 472 -272 q 487 -185 472 -201 q 532 -168 501 -168 q 578 -185 563 -168 q 593 -237 593 -201 q 578 -289 593 -272 q 532 -306 563 -306 m 0 -569 l 957 -569 l 957 -583 l 0 -583 l 0 -569 m 0 28 l 957 28 l 957 0 l 0 0 l 0 28 m 0 701 l 957 701 l 957 694 l 0 694 l 0 701 m 0 1292 l 957 1292 l 957 1278 l 0 1278 l 0 1292 z "},"Ẻ":{"ha":957,"x_min":0,"x_max":957,"o":"m 244 0 q 215 8 225 0 q 206 32 206 15 l 206 1250 q 215 1270 206 1264 q 244 1276 225 1276 l 867 1276 q 884 1269 878 1276 q 890 1242 890 1261 q 884 1215 890 1222 q 867 1207 878 1207 l 282 1207 l 282 710 l 776 710 q 794 702 788 710 q 800 675 800 694 q 794 648 800 656 q 776 640 788 640 l 282 640 l 282 69 l 867 69 q 884 62 878 69 q 890 35 890 54 q 884 8 890 15 q 867 0 878 0 l 244 0 m 569 1671 q 669 1641 632 1671 q 707 1564 707 1611 q 690 1506 707 1531 q 633 1456 672 1482 q 599 1424 607 1438 q 601 1389 592 1411 l 604 1382 q 601 1361 608 1369 q 583 1349 594 1353 q 560 1347 571 1344 q 544 1358 549 1349 l 532 1386 q 529 1448 518 1421 q 572 1496 540 1475 q 613 1528 600 1513 q 626 1560 626 1543 q 607 1592 626 1579 q 558 1604 588 1604 q 512 1597 535 1604 q 469 1576 489 1590 q 431 1589 444 1563 q 438 1629 418 1613 q 497 1660 463 1650 q 569 1671 531 1671 m 0 -569 l 957 -569 l 957 -583 l 0 -583 l 0 -569 m 0 28 l 957 28 l 957 0 l 0 0 l 0 28 m 0 701 l 957 701 l 957 694 l 0 694 l 0 701 m 0 1292 l 957 1292 l 957 1278 l 0 1278 l 0 1292 z "},"Ẽ":{"ha":957,"x_min":0,"x_max":957,"o":"m 244 0 q 215 8 225 0 q 206 32 206 15 l 206 1250 q 215 1270 206 1264 q 244 1276 225 1276 l 867 1276 q 884 1269 878 1276 q 890 1242 890 1261 q 884 1215 890 1222 q 867 1207 878 1207 l 282 1207 l 282 710 l 776 710 q 794 702 788 710 q 800 675 800 694 q 794 648 800 656 q 776 640 788 640 l 282 640 l 282 69 l 867 69 q 884 62 878 69 q 890 35 890 54 q 884 8 890 15 q 867 0 878 0 l 244 0 m 339 1410 q 307 1439 307 1410 q 343 1556 310 1514 q 433 1597 376 1597 q 508 1580 475 1597 q 569 1540 540 1563 q 623 1499 597 1517 q 676 1482 649 1482 q 722 1506 706 1482 q 739 1575 738 1531 q 772 1600 740 1600 q 798 1594 792 1600 q 804 1571 804 1588 q 769 1455 803 1496 q 675 1414 735 1414 q 602 1431 635 1414 q 542 1472 569 1449 q 488 1513 514 1494 q 433 1531 463 1531 q 390 1508 406 1531 q 372 1438 375 1485 q 363 1416 371 1422 q 339 1410 356 1410 m 0 -569 l 957 -569 l 957 -583 l 0 -583 l 0 -569 m 0 28 l 957 28 l 957 0 l 0 0 l 0 28 m 0 701 l 957 701 l 957 694 l 0 694 l 0 701 m 0 1292 l 957 1292 l 957 1278 l 0 1278 l 0 1292 z "},"Ğ":{"ha":1249,"x_min":0,"x_max":1249,"o":"m 638 -26 q 431 22 524 -26 q 270 156 338 69 q 167 365 203 243 q 131 638 131 488 q 148 824 131 736 q 199 985 165 911 q 281 1117 233 1060 q 390 1215 329 1175 q 522 1277 450 1256 q 672 1299 593 1299 q 798 1283 738 1299 q 912 1233 858 1267 q 1008 1144 965 1200 q 1017 1123 1019 1132 q 1003 1101 1015 1114 q 978 1090 988 1090 q 956 1104 968 1090 q 874 1172 918 1144 q 780 1212 831 1199 q 672 1225 729 1225 q 546 1207 606 1225 q 435 1153 486 1189 q 342 1067 383 1118 q 272 951 301 1017 q 226 807 242 886 q 211 638 211 728 q 242 392 211 500 q 331 206 274 283 q 466 89 388 129 q 638 49 544 49 q 767 67 707 49 q 876 126 826 86 q 960 230 925 165 q 1015 385 996 294 q 1035 599 1035 476 l 679 599 q 662 606 668 599 q 656 633 656 614 q 662 660 656 653 q 679 668 668 668 l 1082 668 q 1106 661 1100 668 q 1113 636 1113 654 q 1078 335 1113 460 q 980 129 1043 210 q 829 11 917 49 q 638 -26 742 -26 m 650 1369 q 485 1428 549 1369 q 415 1604 421 1488 q 424 1626 415 1618 q 449 1633 432 1633 q 472 1626 465 1633 q 481 1604 478 1618 q 533 1486 489 1525 q 650 1447 576 1447 q 767 1486 722 1447 q 821 1604 813 1525 q 828 1626 822 1618 q 850 1633 835 1633 q 877 1626 868 1633 q 885 1604 886 1618 q 851 1476 882 1528 q 768 1397 819 1424 q 650 1369 717 1369 m 0 -569 l 1249 -569 l 1249 -583 l 0 -583 l 0 -569 m 0 28 l 1249 28 l 1249 0 l 0 0 l 0 28 m 0 701 l 1249 701 l 1249 694 l 0 694 l 0 701 m 0 1292 l 1249 1292 l 1249 1278 l 0 1278 l 0 1292 z "},"Ĝ":{"ha":1249,"x_min":0,"x_max":1249,"o":"m 638 -26 q 431 22 524 -26 q 270 156 338 69 q 167 365 203 243 q 131 638 131 488 q 148 824 131 736 q 199 985 165 911 q 281 1117 233 1060 q 390 1215 329 1175 q 521 1277 450 1256 q 672 1299 592 1299 q 798 1283 738 1299 q 912 1233 858 1267 q 1008 1144 965 1200 q 1017 1123 1019 1132 q 1003 1101 1015 1114 q 978 1090 988 1090 q 956 1104 968 1090 q 874 1172 918 1144 q 780 1212 831 1199 q 672 1225 729 1225 q 546 1207 606 1225 q 435 1153 486 1189 q 342 1067 383 1118 q 272 951 301 1017 q 226 807 242 886 q 211 638 211 728 q 242 392 211 500 q 331 206 274 283 q 466 89 388 129 q 638 49 544 49 q 767 67 707 49 q 876 126 826 86 q 960 230 925 165 q 1015 385 996 294 q 1035 599 1035 476 l 679 599 q 662 606 668 599 q 656 633 656 614 q 662 660 656 653 q 679 668 668 668 l 1082 668 q 1106 661 1100 668 q 1113 636 1113 654 q 1078 335 1113 460 q 980 129 1043 210 q 829 11 917 49 q 638 -26 742 -26 m 431 1367 q 410 1378 421 1367 q 400 1400 400 1389 q 401 1408 400 1404 q 407 1418 403 1413 l 615 1615 q 630 1628 622 1624 q 650 1633 638 1633 q 669 1628 663 1633 q 685 1615 676 1624 l 892 1417 q 899 1408 897 1413 q 900 1399 900 1403 q 890 1377 900 1388 q 868 1367 879 1367 q 856 1370 861 1367 q 844 1379 851 1374 l 650 1544 l 454 1379 q 443 1370 449 1374 q 431 1367 438 1367 m 0 -569 l 1249 -569 l 1249 -583 l 0 -583 l 0 -569 m 0 28 l 1249 28 l 1249 0 l 0 0 l 0 28 m 0 701 l 1249 701 l 1249 694 l 0 694 l 0 701 m 0 1292 l 1249 1292 l 1249 1278 l 0 1278 l 0 1292 z "},"Ģ":{"ha":1249,"x_min":0,"x_max":1249,"o":"m 638 -26 q 431 22 524 -26 q 270 156 338 69 q 167 365 203 243 q 131 638 131 488 q 148 824 131 736 q 199 985 165 911 q 281 1117 233 1060 q 390 1215 329 1175 q 522 1277 450 1256 q 672 1299 593 1299 q 798 1283 738 1299 q 912 1233 858 1267 q 1008 1144 965 1200 q 1017 1123 1019 1132 q 1003 1101 1015 1114 q 978 1090 988 1090 q 956 1104 968 1090 q 874 1172 918 1144 q 780 1212 831 1199 q 672 1225 729 1225 q 546 1207 606 1225 q 435 1153 486 1189 q 342 1067 383 1118 q 272 951 301 1017 q 226 807 242 886 q 211 638 211 728 q 242 392 211 500 q 331 206 274 283 q 466 89 388 129 q 638 49 544 49 q 767 67 707 49 q 876 126 826 86 q 960 230 925 165 q 1015 385 996 294 q 1035 599 1035 476 l 679 599 q 662 606 668 599 q 656 633 656 614 q 662 660 656 653 q 679 668 668 668 l 1082 668 q 1106 661 1100 668 q 1113 636 1113 654 q 1078 335 1113 460 q 980 129 1043 210 q 829 11 917 49 q 638 -26 742 -26 m 558 -390 q 542 -376 543 -385 q 549 -349 540 -367 q 576 -285 567 -314 q 590 -224 586 -257 q 594 -143 594 -190 q 602 -118 594 -128 q 629 -108 610 -108 q 660 -119 650 -108 q 671 -147 671 -131 q 663 -224 671 -185 q 639 -301 654 -264 q 603 -372 624 -339 q 583 -392 593 -386 q 558 -390 574 -397 m 0 -569 l 1249 -569 l 1249 -583 l 0 -583 l 0 -569 m 0 28 l 1249 28 l 1249 0 l 0 0 l 0 28 m 0 701 l 1249 701 l 1249 694 l 0 694 l 0 701 m 0 1292 l 1249 1292 l 1249 1278 l 0 1278 l 0 1292 z "},"Ġ":{"ha":1249,"x_min":0,"x_max":1249,"o":"m 638 -26 q 431 22 524 -26 q 270 156 338 69 q 167 365 203 243 q 131 638 131 488 q 148 824 131 736 q 199 985 165 911 q 281 1117 233 1060 q 390 1215 329 1175 q 522 1277 450 1256 q 672 1299 593 1299 q 798 1283 738 1299 q 912 1233 858 1267 q 1008 1144 965 1200 q 1017 1123 1019 1132 q 1003 1101 1015 1114 q 978 1090 988 1090 q 956 1104 968 1090 q 874 1172 918 1144 q 780 1212 831 1199 q 672 1225 729 1225 q 546 1207 606 1225 q 435 1153 486 1189 q 342 1067 383 1118 q 272 951 301 1017 q 226 807 242 886 q 211 638 211 728 q 242 392 211 500 q 331 206 274 283 q 466 89 388 129 q 638 49 544 49 q 767 67 707 49 q 876 126 826 86 q 960 230 925 165 q 1015 385 996 294 q 1035 599 1035 476 l 679 599 q 662 606 668 599 q 656 633 656 614 q 662 660 656 653 q 679 668 668 668 l 1082 668 q 1106 661 1100 668 q 1113 636 1113 654 q 1078 335 1113 460 q 980 129 1043 210 q 829 11 917 49 q 638 -26 742 -26 m 650 1417 q 605 1433 619 1417 q 590 1483 590 1449 q 605 1536 590 1519 q 650 1553 619 1553 q 696 1536 681 1553 q 711 1483 711 1519 q 696 1433 711 1449 q 650 1417 681 1417 m 0 -569 l 1249 -569 l 1249 -583 l 0 -583 l 0 -569 m 0 28 l 1249 28 l 1249 0 l 0 0 l 0 28 m 0 701 l 1249 701 l 1249 694 l 0 694 l 0 701 m 0 1292 l 1249 1292 l 1249 1278 l 0 1278 l 0 1292 z "},"Ħ":{"ha":1282,"x_min":0,"x_max":1282,"o":"m 244 -19 q 206 7 206 -19 l 206 1272 q 215 1292 206 1286 q 244 1299 225 1299 q 282 1272 282 1299 l 282 704 l 1000 704 l 1000 1272 q 1010 1292 1000 1286 q 1039 1299 1019 1299 q 1076 1272 1076 1299 l 1076 7 q 1067 -13 1076 -7 q 1039 -19 1058 -19 q 1000 7 1000 -19 l 1000 635 l 282 635 l 282 7 q 273 -13 282 -7 q 244 -19 264 -19 m 81 953 q 59 961 64 953 q 54 985 54 969 q 59 1012 54 1003 q 81 1021 64 1021 l 1203 1021 q 1224 1012 1219 1021 q 1229 985 1229 1003 q 1224 961 1229 969 q 1203 953 1219 953 l 81 953 m 0 -569 l 1282 -569 l 1282 -583 l 0 -583 l 0 -569 m 0 28 l 1282 28 l 1282 0 l 0 0 l 0 28 m 0 701 l 1282 701 l 1282 694 l 0 694 l 0 701 m 0 1292 l 1282 1292 l 1282 1278 l 0 1278 l 0 1292 z "},"Ĥ":{"ha":1282,"x_min":0,"x_max":1282,"o":"m 244 -19 q 206 7 206 -19 l 206 1272 q 215 1292 206 1286 q 244 1299 225 1299 q 282 1272 282 1299 l 282 704 l 1000 704 l 1000 1272 q 1010 1292 1000 1286 q 1039 1299 1019 1299 q 1076 1272 1076 1299 l 1076 7 q 1067 -13 1076 -7 q 1039 -19 1058 -19 q 1000 7 1000 -19 l 1000 635 l 282 635 l 282 7 q 273 -13 282 -7 q 244 -19 264 -19 m 422 1367 q 402 1378 413 1367 q 392 1400 392 1389 q 392 1408 392 1404 q 399 1418 393 1413 l 606 1615 q 622 1628 614 1624 q 642 1633 629 1633 q 661 1628 654 1633 q 676 1615 668 1624 l 883 1417 q 890 1408 889 1413 q 890 1399 890 1403 q 881 1377 890 1388 q 860 1367 871 1367 q 848 1370 853 1367 q 836 1379 843 1374 l 642 1544 l 446 1379 q 435 1370 440 1374 q 422 1367 429 1367 m 0 -569 l 1282 -569 l 1282 -583 l 0 -583 l 0 -569 m 0 28 l 1282 28 l 1282 0 l 0 0 l 0 28 m 0 701 l 1282 701 l 1282 694 l 0 694 l 0 701 m 0 1292 l 1282 1292 l 1282 1278 l 0 1278 l 0 1292 z "},"Í":{"ha":488,"x_min":0,"x_max":488,"o":"m 244 -19 q 215 -12 225 -19 q 206 7 206 -6 l 206 1272 q 215 1292 206 1286 q 243 1299 225 1299 q 272 1292 263 1299 q 282 1272 282 1286 l 282 7 q 273 -12 282 -6 q 244 -19 264 -19 m 171 1368 q 149 1381 161 1368 q 136 1401 136 1393 q 137 1410 136 1406 q 143 1419 138 1414 l 356 1621 q 366 1630 363 1626 q 376 1633 369 1633 q 396 1626 385 1633 q 415 1607 407 1618 q 422 1588 422 1596 q 421 1576 422 1581 q 413 1567 419 1572 l 189 1378 q 179 1371 183 1374 q 171 1368 175 1368 m 0 -569 l 488 -569 l 488 -583 l 0 -583 l 0 -569 m 0 28 l 488 28 l 488 0 l 0 0 l 0 28 m 0 701 l 488 701 l 488 694 l 0 694 l 0 701 m 0 1292 l 488 1292 l 488 1278 l 0 1278 l 0 1292 z "},"Ĭ":{"ha":488,"x_min":0,"x_max":488,"o":"m 244 -19 q 215 -13 225 -19 q 206 7 206 -7 l 206 1272 q 215 1292 206 1286 q 244 1299 225 1299 q 272 1292 263 1299 q 282 1272 282 1286 l 282 7 q 273 -13 282 -7 q 244 -19 264 -19 m 244 1369 q 79 1428 143 1369 q 10 1604 15 1488 q 17 1626 8 1618 q 43 1633 25 1633 q 66 1626 60 1633 q 75 1604 72 1618 q 126 1486 82 1525 q 244 1447 171 1447 q 362 1486 317 1447 q 414 1604 407 1525 q 423 1626 417 1618 q 444 1633 429 1633 q 471 1626 463 1633 q 479 1604 479 1618 q 445 1476 476 1528 q 362 1397 414 1424 q 244 1369 310 1369 m 0 -569 l 488 -569 l 488 -583 l 0 -583 l 0 -569 m 0 28 l 488 28 l 488 0 l 0 0 l 0 28 m 0 701 l 488 701 l 488 694 l 0 694 l 0 701 m 0 1292 l 488 1292 l 488 1278 l 0 1278 l 0 1292 z "},"Ǐ":{"ha":488,"x_min":-6,"x_max":493,"o":"m 244 -19 q 215 -13 225 -19 q 206 7 206 -7 l 206 1272 q 215 1292 206 1286 q 244 1299 225 1299 q 272 1292 263 1299 q 282 1272 282 1286 l 282 7 q 273 -13 282 -7 q 244 -19 264 -19 m 463 1633 q 483 1623 474 1633 q 493 1600 493 1613 q 492 1592 493 1596 q 486 1582 492 1588 l 279 1385 q 264 1373 271 1378 q 244 1368 257 1368 q 224 1373 232 1368 q 210 1385 217 1378 l 1 1583 q -4 1594 -3 1589 q -6 1601 -6 1599 q 5 1624 -6 1614 q 25 1633 15 1633 q 38 1630 32 1633 q 49 1622 43 1626 l 244 1457 l 439 1622 q 451 1630 446 1626 q 463 1633 456 1633 m 0 -569 l 488 -569 l 488 -583 l 0 -583 l 0 -569 m 0 28 l 488 28 l 488 0 l 0 0 l 0 28 m 0 701 l 488 701 l 488 694 l 0 694 l 0 701 m 0 1292 l 488 1292 l 488 1278 l 0 1278 l 0 1292 z "},"Î":{"ha":488,"x_min":-6,"x_max":493,"o":"m 244 -19 q 215 -13 225 -19 q 206 7 206 -7 l 206 1272 q 215 1292 206 1286 q 244 1299 225 1299 q 272 1292 263 1299 q 282 1272 282 1286 l 282 7 q 273 -13 282 -7 q 244 -19 264 -19 m 25 1367 q 5 1378 15 1367 q -6 1400 -6 1389 q -4 1408 -6 1404 q 1 1418 -3 1413 l 208 1615 q 224 1628 217 1624 q 244 1633 232 1633 q 264 1628 257 1633 q 279 1615 271 1624 l 486 1417 q 492 1408 492 1413 q 493 1399 493 1403 q 483 1377 493 1388 q 463 1367 474 1367 q 451 1370 456 1367 q 439 1379 446 1374 l 244 1544 l 49 1379 q 38 1370 43 1374 q 25 1367 32 1367 m 0 -569 l 488 -569 l 488 -583 l 0 -583 l 0 -569 m 0 28 l 488 28 l 488 0 l 0 0 l 0 28 m 0 701 l 488 701 l 488 694 l 0 694 l 0 701 m 0 1292 l 488 1292 l 488 1278 l 0 1278 l 0 1292 z "},"Ï":{"ha":488,"x_min":0,"x_max":488,"o":"m 244 -19 q 215 -12 225 -19 q 206 7 206 -6 l 206 1272 q 215 1292 206 1286 q 243 1299 225 1299 q 272 1292 263 1299 q 282 1272 282 1286 l 282 7 q 273 -12 282 -6 q 244 -19 264 -19 m 71 1417 q 26 1433 40 1417 q 11 1483 11 1449 q 26 1536 11 1519 q 71 1553 40 1553 q 117 1535 101 1553 q 132 1483 132 1518 q 117 1433 132 1449 q 71 1417 101 1417 m 418 1417 q 372 1433 388 1417 q 357 1483 357 1449 q 372 1536 357 1519 q 418 1553 388 1553 q 463 1535 447 1553 q 478 1483 478 1518 q 463 1433 479 1449 q 418 1417 447 1417 m 0 -569 l 488 -569 l 488 -583 l 0 -583 l 0 -569 m 0 28 l 488 28 l 488 0 l 0 0 l 0 28 m 0 701 l 488 701 l 488 694 l 0 694 l 0 701 m 0 1292 l 488 1292 l 488 1278 l 0 1278 l 0 1292 z "},"İ":{"ha":488,"x_min":0,"x_max":488,"o":"m 244 -19 q 215 -12 225 -19 q 206 7 206 -6 l 206 1272 q 215 1292 206 1286 q 243 1299 225 1299 q 272 1292 263 1299 q 282 1272 282 1286 l 282 7 q 273 -12 282 -6 q 244 -19 264 -19 m 244 1417 q 199 1433 214 1417 q 183 1483 183 1449 q 199 1536 183 1519 q 244 1553 214 1553 q 289 1535 274 1553 q 304 1483 304 1518 q 290 1433 306 1449 q 244 1417 274 1417 m 0 -569 l 488 -569 l 488 -583 l 0 -583 l 0 -569 m 0 28 l 488 28 l 488 0 l 0 0 l 0 28 m 0 701 l 488 701 l 488 694 l 0 694 l 0 701 m 0 1292 l 488 1292 l 488 1278 l 0 1278 l 0 1292 z "},"Ì":{"ha":488,"x_min":0,"x_max":488,"o":"m 244 -19 q 215 -12 225 -19 q 206 7 206 -6 l 206 1272 q 215 1292 206 1286 q 243 1299 225 1299 q 272 1292 263 1299 q 282 1272 282 1286 l 282 7 q 273 -12 282 -6 q 244 -19 264 -19 m 317 1368 q 308 1371 313 1368 q 297 1378 304 1374 l 75 1567 q 67 1576 69 1572 q 65 1588 65 1581 q 73 1606 65 1596 q 91 1625 81 1617 q 111 1633 101 1633 q 122 1630 117 1633 q 132 1621 126 1626 l 344 1419 q 351 1410 350 1414 q 351 1401 351 1406 q 339 1381 351 1393 q 317 1368 326 1368 m 0 -569 l 488 -569 l 488 -583 l 0 -583 l 0 -569 m 0 28 l 488 28 l 488 0 l 0 0 l 0 28 m 0 701 l 488 701 l 488 694 l 0 694 l 0 701 m 0 1292 l 488 1292 l 488 1278 l 0 1278 l 0 1292 z "},"Ī":{"ha":488,"x_min":0,"x_max":488,"o":"m 244 -19 q 215 -13 225 -19 q 206 7 206 -7 l 206 1272 q 215 1292 206 1286 q 244 1299 225 1299 q 272 1292 263 1299 q 282 1272 282 1286 l 282 7 q 273 -13 282 -7 q 244 -19 264 -19 m 56 1467 q 35 1476 40 1467 q 29 1500 29 1485 q 35 1528 29 1518 q 56 1539 40 1539 l 433 1539 q 454 1528 449 1539 q 460 1500 460 1518 q 454 1476 460 1485 q 433 1467 449 1467 l 56 1467 m 0 -569 l 488 -569 l 488 -583 l 0 -583 l 0 -569 m 0 28 l 488 28 l 488 0 l 0 0 l 0 28 m 0 701 l 488 701 l 488 694 l 0 694 l 0 701 m 0 1292 l 488 1292 l 488 1278 l 0 1278 l 0 1292 z "},"Į":{"ha":488,"x_min":0,"x_max":488,"o":"m 244 -19 q 215 -13 225 -19 q 206 7 206 -7 l 206 1272 q 215 1292 206 1286 q 244 1299 225 1299 q 272 1292 263 1299 q 282 1272 282 1286 l 282 7 q 273 -13 282 -7 q 244 -19 264 -19 m 147 -368 q 63 -337 96 -368 q 29 -246 29 -306 q 43 -178 29 -211 q 82 -115 57 -146 q 142 -53 107 -83 q 219 7 178 -24 l 278 7 l 278 -1 q 213 -53 244 -25 q 155 -110 181 -81 q 114 -169 129 -139 q 99 -229 99 -199 q 114 -284 99 -265 q 157 -303 129 -303 q 208 -290 179 -303 q 264 -247 236 -276 q 282 -238 272 -239 q 300 -246 292 -237 q 313 -266 311 -254 q 307 -287 314 -278 q 263 -331 290 -312 q 206 -358 236 -349 q 147 -368 175 -368 m 0 -569 l 488 -569 l 488 -583 l 0 -583 l 0 -569 m 0 28 l 488 28 l 488 0 l 0 0 l 0 28 m 0 701 l 488 701 l 488 694 l 0 694 l 0 701 m 0 1292 l 488 1292 l 488 1278 l 0 1278 l 0 1292 z "},"Ĩ":{"ha":488,"x_min":-7,"x_max":492,"o":"m 244 -19 q 215 -13 225 -19 q 206 7 206 -7 l 206 1272 q 215 1292 206 1286 q 244 1299 225 1299 q 272 1292 263 1299 q 282 1272 282 1286 l 282 7 q 273 -13 282 -7 q 244 -19 264 -19 m 25 1410 q -7 1439 -7 1410 q 30 1556 -4 1514 q 119 1597 64 1597 q 194 1580 163 1597 q 255 1540 226 1563 q 309 1499 283 1517 q 363 1482 335 1482 q 408 1506 392 1482 q 425 1575 424 1531 q 458 1600 426 1600 q 485 1594 478 1600 q 492 1571 492 1588 q 455 1455 489 1496 q 361 1414 421 1414 q 290 1431 322 1414 q 228 1472 257 1449 q 174 1513 200 1494 q 119 1531 149 1531 q 77 1508 93 1531 q 58 1438 61 1485 q 49 1416 57 1422 q 25 1410 42 1410 m 0 -569 l 488 -569 l 488 -583 l 0 -583 l 0 -569 m 0 28 l 488 28 l 488 0 l 0 0 l 0 28 m 0 701 l 488 701 l 488 694 l 0 694 l 0 701 m 0 1292 l 488 1292 l 488 1278 l 0 1278 l 0 1292 z "},"Ị":{"ha":488,"x_min":0,"x_max":488,"o":"m 244 -19 q 215 -12 225 -19 q 206 7 206 -6 l 206 1272 q 215 1292 206 1286 q 243 1299 225 1299 q 272 1292 263 1299 q 282 1272 282 1286 l 282 7 q 273 -12 282 -6 q 244 -19 264 -19 m 244 -306 q 199 -289 214 -306 q 183 -237 183 -272 q 199 -185 183 -201 q 244 -168 214 -168 q 289 -185 274 -168 q 304 -237 304 -201 q 290 -289 306 -272 q 244 -306 274 -306 m 0 -569 l 488 -569 l 488 -583 l 0 -583 l 0 -569 m 0 28 l 488 28 l 488 0 l 0 0 l 0 28 m 0 701 l 488 701 l 488 694 l 0 694 l 0 701 m 0 1292 l 488 1292 l 488 1278 l 0 1278 l 0 1292 z "},"Ỉ":{"ha":488,"x_min":0,"x_max":488,"o":"m 244 -19 q 215 -13 225 -19 q 206 7 206 -7 l 206 1272 q 215 1292 206 1286 q 244 1299 225 1299 q 272 1292 263 1299 q 282 1272 282 1286 l 282 7 q 273 -13 282 -7 q 244 -19 264 -19 m 257 1671 q 356 1641 318 1671 q 393 1564 393 1611 q 376 1506 393 1531 q 319 1456 360 1482 q 285 1424 293 1438 q 289 1389 278 1411 l 290 1382 q 288 1361 294 1369 q 269 1349 282 1353 q 246 1347 257 1344 q 231 1358 235 1349 l 219 1386 q 216 1448 206 1421 q 258 1496 226 1475 q 300 1528 288 1513 q 313 1560 313 1543 q 293 1592 313 1579 q 246 1604 274 1604 q 198 1597 221 1604 q 156 1576 175 1590 q 117 1589 131 1563 q 124 1629 104 1613 q 183 1660 150 1650 q 257 1671 217 1671 m 0 -569 l 488 -569 l 488 -583 l 0 -583 l 0 -569 m 0 28 l 488 28 l 488 0 l 0 0 l 0 28 m 0 701 l 488 701 l 488 694 l 0 694 l 0 701 m 0 1292 l 488 1292 l 488 1278 l 0 1278 l 0 1292 z "},"Ĵ":{"ha":939,"x_min":0,"x_max":972,"o":"m 417 -26 q 262 2 329 -26 q 149 87 194 31 q 81 226 104 143 q 82 253 76 244 q 104 265 88 261 q 131 267 121 271 q 146 244 140 263 q 202 133 169 176 q 287 69 235 89 q 417 49 339 49 q 510 62 468 49 q 585 101 553 75 q 640 168 618 128 q 672 263 661 208 q 683 385 683 317 l 683 1272 q 693 1292 683 1286 q 722 1299 703 1299 q 751 1292 742 1299 q 760 1272 760 1286 l 760 388 q 745 240 760 306 q 701 124 731 174 q 631 40 672 74 q 535 -10 589 7 q 417 -26 482 -26 m 503 1367 q 483 1378 493 1367 q 472 1400 472 1389 q 474 1408 472 1404 q 479 1418 475 1413 l 686 1615 q 702 1628 694 1624 q 722 1633 710 1633 q 742 1628 735 1633 q 757 1615 749 1624 l 964 1417 q 971 1408 969 1413 q 972 1399 972 1403 q 962 1377 972 1388 q 940 1367 951 1367 q 928 1370 933 1367 q 917 1379 924 1374 l 722 1544 l 526 1379 q 515 1370 521 1374 q 503 1367 510 1367 m 0 -569 l 939 -569 l 939 -583 l 0 -583 l 0 -569 m 0 28 l 939 28 l 939 0 l 0 0 l 0 28 m 0 701 l 939 701 l 939 694 l 0 694 l 0 701 m 0 1292 l 939 1292 l 939 1278 l 0 1278 l 0 1292 z "},"Ķ":{"ha":993,"x_min":0,"x_max":993,"o":"m 244 -19 q 215 -13 225 -19 q 206 7 206 -7 l 206 1272 q 244 1299 206 1299 q 282 1272 282 1299 l 282 701 l 889 1289 q 910 1300 900 1301 q 933 1285 921 1299 q 948 1262 947 1271 q 939 1242 949 1253 l 351 675 q 545 447 446 560 q 749 229 644 333 q 958 38 854 125 q 970 17 969 29 q 954 -11 971 6 q 930 -23 942 -24 q 906 -11 918 -22 q 740 138 824 57 q 575 305 656 218 q 420 479 494 392 q 282 649 346 567 l 282 7 q 273 -13 282 -7 q 244 -19 264 -19 m 476 -390 q 459 -376 461 -385 q 467 -349 457 -367 q 493 -285 483 -314 q 507 -224 503 -257 q 511 -143 511 -190 q 519 -118 511 -128 q 547 -108 528 -108 q 578 -119 568 -108 q 589 -147 589 -131 q 581 -224 589 -185 q 557 -301 572 -264 q 521 -372 542 -339 q 501 -392 511 -386 q 476 -390 492 -397 m 0 -569 l 993 -569 l 993 -583 l 0 -583 l 0 -569 m 0 28 l 993 28 l 993 0 l 0 0 l 0 28 m 0 701 l 993 701 l 993 694 l 0 694 l 0 701 m 0 1292 l 993 1292 l 993 1278 l 0 1278 l 0 1292 z "},"Ĺ":{"ha":903,"x_min":0,"x_max":903,"o":"m 244 0 q 206 32 206 0 l 206 1272 q 215 1292 206 1286 q 244 1299 225 1299 q 273 1292 264 1299 q 282 1272 282 1286 l 282 69 l 843 69 q 861 62 856 69 q 867 35 867 54 q 861 8 867 15 q 843 0 856 0 l 244 0 m 171 1368 q 149 1381 161 1368 q 136 1401 136 1393 q 137 1410 136 1406 q 143 1419 138 1414 l 356 1621 q 366 1630 363 1626 q 376 1633 369 1633 q 396 1626 385 1633 q 415 1607 407 1618 q 422 1588 422 1596 q 421 1576 422 1581 q 413 1567 419 1572 l 189 1378 q 179 1371 183 1374 q 171 1368 175 1368 m 0 -569 l 903 -569 l 903 -583 l 0 -583 l 0 -569 m 0 28 l 903 28 l 903 0 l 0 0 l 0 28 m 0 701 l 903 701 l 903 694 l 0 694 l 0 701 m 0 1292 l 903 1292 l 903 1278 l 0 1278 l 0 1292 z "},"Ľ":{"ha":903,"x_min":0,"x_max":903,"o":"m 244 0 q 206 32 206 0 l 206 1272 q 215 1292 206 1286 q 244 1299 225 1299 q 273 1292 264 1299 q 282 1272 282 1286 l 282 69 l 843 69 q 861 62 856 69 q 867 35 867 54 q 861 8 867 15 q 843 0 856 0 l 244 0 m 456 979 q 437 993 440 985 q 438 1017 433 1001 q 456 1094 447 1049 q 472 1188 465 1140 q 481 1272 479 1236 q 488 1294 481 1285 q 518 1304 496 1304 q 549 1294 539 1304 q 558 1272 560 1285 q 547 1182 557 1233 q 524 1081 538 1131 q 496 996 510 1031 q 483 979 490 985 q 456 979 475 974 m 0 -569 l 903 -569 l 903 -583 l 0 -583 l 0 -569 m 0 28 l 903 28 l 903 0 l 0 0 l 0 28 m 0 701 l 903 701 l 903 694 l 0 694 l 0 701 m 0 1292 l 903 1292 l 903 1278 l 0 1278 l 0 1292 z "},"Ļ":{"ha":903,"x_min":0,"x_max":903,"o":"m 244 0 q 206 32 206 0 l 206 1272 q 215 1292 206 1286 q 244 1299 225 1299 q 273 1292 264 1299 q 282 1272 282 1286 l 282 69 l 843 69 q 861 62 856 69 q 867 35 867 54 q 861 8 867 15 q 843 0 856 0 l 244 0 m 467 -390 q 451 -376 453 -385 q 457 -349 449 -367 q 485 -285 475 -314 q 499 -224 494 -257 q 503 -143 503 -190 q 511 -118 503 -128 q 538 -108 519 -108 q 569 -119 558 -108 q 579 -147 579 -131 q 572 -224 579 -185 q 549 -301 564 -264 q 511 -372 533 -339 q 493 -392 503 -386 q 467 -390 483 -397 m 0 -569 l 903 -569 l 903 -583 l 0 -583 l 0 -569 m 0 28 l 903 28 l 903 0 l 0 0 l 0 28 m 0 701 l 903 701 l 903 694 l 0 694 l 0 701 m 0 1292 l 903 1292 l 903 1278 l 0 1278 l 0 1292 z "},"Ŀ":{"ha":903,"x_min":0,"x_max":903,"o":"m 244 0 q 206 32 206 0 l 206 1272 q 215 1292 206 1286 q 244 1299 225 1299 q 273 1292 264 1299 q 282 1272 282 1286 l 282 69 l 843 69 q 861 62 856 69 q 867 35 867 54 q 861 8 867 15 q 843 0 856 0 l 244 0 m 672 599 q 626 616 642 599 q 611 668 611 633 q 626 719 611 703 q 672 736 642 736 q 717 719 701 736 q 732 668 732 703 q 717 615 732 632 q 672 599 701 599 m 0 -569 l 903 -569 l 903 -583 l 0 -583 l 0 -569 m 0 28 l 903 28 l 903 0 l 0 0 l 0 28 m 0 701 l 903 701 l 903 694 l 0 694 l 0 701 m 0 1292 l 903 1292 l 903 1278 l 0 1278 l 0 1292 z "},"Ł":{"ha":903,"x_min":0,"x_max":903,"o":"m 244 0 q 206 32 206 0 l 206 1272 q 215 1292 206 1286 q 244 1299 225 1299 q 273 1292 264 1299 q 282 1272 282 1286 l 282 69 l 843 69 q 861 62 856 69 q 867 35 867 54 q 861 8 867 15 q 843 0 856 0 l 244 0 m 92 529 q 69 526 79 522 q 51 544 60 531 q 44 568 44 557 q 58 588 44 579 l 494 833 q 517 838 508 842 q 533 819 525 833 q 529 778 550 790 l 92 529 m 0 -569 l 903 -569 l 903 -583 l 0 -583 l 0 -569 m 0 28 l 903 28 l 903 0 l 0 0 l 0 28 m 0 701 l 903 701 l 903 694 l 0 694 l 0 701 m 0 1292 l 903 1292 l 903 1278 l 0 1278 l 0 1292 z "},"Ń":{"ha":1282,"x_min":0,"x_max":1282,"o":"m 244 -19 q 206 7 206 -19 l 206 1272 q 215 1292 206 1286 q 243 1299 225 1299 q 269 1294 260 1299 q 286 1276 278 1289 l 1000 139 l 1000 1272 q 1010 1292 1000 1286 q 1039 1299 1019 1299 q 1076 1272 1076 1299 l 1076 7 q 1067 -13 1076 -7 q 1040 -19 1057 -19 q 1016 -15 1024 -19 q 1000 3 1008 -10 l 282 1146 l 282 7 q 273 -13 282 -7 q 244 -19 264 -19 m 568 1368 q 546 1381 558 1368 q 533 1401 533 1393 q 534 1410 533 1406 q 540 1419 535 1414 l 753 1621 q 763 1630 760 1626 q 774 1633 767 1633 q 793 1626 782 1633 q 812 1607 804 1618 q 819 1588 819 1596 q 818 1576 819 1581 q 808 1567 817 1572 l 586 1378 q 576 1371 581 1374 q 568 1368 572 1368 m 0 -569 l 1282 -569 l 1282 -583 l 0 -583 l 0 -569 m 0 28 l 1282 28 l 1282 0 l 0 0 l 0 28 m 0 701 l 1282 701 l 1282 694 l 0 694 l 0 701 m 0 1292 l 1282 1292 l 1282 1278 l 0 1278 l 0 1292 z "},"Ň":{"ha":1282,"x_min":0,"x_max":1282,"o":"m 244 -19 q 206 7 206 -19 l 206 1272 q 215 1292 206 1286 q 243 1299 225 1299 q 269 1294 260 1299 q 286 1276 278 1289 l 1000 139 l 1000 1272 q 1010 1292 1000 1286 q 1039 1299 1019 1299 q 1076 1272 1076 1299 l 1076 7 q 1067 -13 1076 -7 q 1040 -19 1057 -19 q 1016 -15 1024 -19 q 1000 3 1008 -10 l 282 1146 l 282 7 q 273 -13 282 -7 q 244 -19 264 -19 m 860 1633 q 881 1623 871 1633 q 890 1600 890 1613 q 890 1592 890 1596 q 883 1582 889 1588 l 676 1385 q 661 1373 668 1378 q 642 1368 654 1368 q 622 1373 629 1368 q 607 1385 614 1378 l 399 1583 q 392 1594 393 1589 q 392 1601 392 1599 q 402 1624 392 1614 q 422 1633 413 1633 q 435 1630 429 1633 q 446 1622 440 1626 l 642 1457 l 836 1622 q 848 1630 843 1626 q 860 1633 853 1633 m 0 -569 l 1282 -569 l 1282 -583 l 0 -583 l 0 -569 m 0 28 l 1282 28 l 1282 0 l 0 0 l 0 28 m 0 701 l 1282 701 l 1282 694 l 0 694 l 0 701 m 0 1292 l 1282 1292 l 1282 1278 l 0 1278 l 0 1292 z "},"Ņ":{"ha":1282,"x_min":0,"x_max":1282,"o":"m 244 -19 q 206 7 206 -19 l 206 1272 q 215 1292 206 1286 q 243 1299 225 1299 q 269 1294 260 1299 q 286 1276 278 1289 l 1000 139 l 1000 1272 q 1010 1292 1000 1286 q 1039 1299 1019 1299 q 1076 1272 1076 1299 l 1076 7 q 1067 -13 1076 -7 q 1040 -19 1057 -19 q 1016 -15 1024 -19 q 1000 3 1008 -10 l 282 1146 l 282 7 q 273 -13 282 -7 q 244 -19 264 -19 m 567 -390 q 551 -376 553 -385 q 557 -349 549 -367 q 585 -285 575 -314 q 599 -224 594 -257 q 603 -143 603 -190 q 610 -118 603 -128 q 638 -108 618 -108 q 669 -119 658 -108 q 679 -147 679 -131 q 672 -224 679 -185 q 649 -301 664 -264 q 611 -372 633 -339 q 593 -392 603 -386 q 567 -390 583 -397 m 0 -569 l 1282 -569 l 1282 -583 l 0 -583 l 0 -569 m 0 28 l 1282 28 l 1282 0 l 0 0 l 0 28 m 0 701 l 1282 701 l 1282 694 l 0 694 l 0 701 m 0 1292 l 1282 1292 l 1282 1278 l 0 1278 l 0 1292 z "},"Ñ":{"ha":1282,"x_min":0,"x_max":1282,"o":"m 244 -19 q 206 7 206 -19 l 206 1272 q 215 1292 206 1286 q 243 1299 225 1299 q 269 1294 260 1299 q 286 1276 278 1289 l 1000 139 l 1000 1272 q 1010 1292 1000 1286 q 1039 1299 1019 1299 q 1076 1272 1076 1299 l 1076 7 q 1067 -13 1076 -7 q 1040 -19 1057 -19 q 1016 -15 1024 -19 q 1000 3 1008 -10 l 282 1146 l 282 7 q 273 -13 282 -7 q 244 -19 264 -19 m 422 1410 q 390 1439 390 1410 q 427 1556 393 1514 q 517 1597 461 1597 q 592 1580 560 1597 q 652 1540 624 1563 q 706 1499 681 1517 q 760 1482 732 1482 q 805 1506 789 1482 q 822 1575 821 1531 q 856 1600 824 1600 q 882 1594 875 1600 q 889 1571 889 1588 q 852 1455 886 1496 q 758 1414 818 1414 q 687 1431 719 1414 q 626 1472 654 1449 q 572 1513 597 1494 q 517 1531 546 1531 q 474 1508 490 1531 q 456 1438 458 1485 q 447 1416 454 1422 q 422 1410 439 1410 m 0 -569 l 1282 -569 l 1282 -583 l 0 -583 l 0 -569 m 0 28 l 1282 28 l 1282 0 l 0 0 l 0 28 m 0 701 l 1282 701 l 1282 694 l 0 694 l 0 701 m 0 1292 l 1282 1292 l 1282 1278 l 0 1278 l 0 1292 z "},"Ó":{"ha":1336,"x_min":0,"x_max":1336,"o":"m 669 -26 q 451 21 550 -26 q 280 156 351 68 q 169 365 208 243 q 131 638 131 488 q 148 824 131 736 q 199 985 165 911 q 280 1117 232 1058 q 388 1215 328 1175 q 519 1277 449 1256 q 669 1299 590 1299 q 887 1251 789 1299 q 1056 1117 985 1204 q 1167 908 1128 1029 q 1206 638 1206 786 q 1188 450 1206 538 q 1137 288 1169 363 q 1056 156 1104 214 q 949 57 1008 97 q 819 -5 889 17 q 669 -26 749 -26 m 669 49 q 795 67 736 49 q 905 120 854 85 q 996 206 956 156 q 1065 323 1036 257 q 1108 467 1093 389 q 1124 638 1124 546 q 1090 882 1124 774 q 996 1067 1057 990 q 852 1185 935 1144 q 669 1225 769 1225 q 543 1207 603 1225 q 432 1153 483 1189 q 340 1067 381 1118 q 271 951 300 1017 q 226 806 242 885 q 211 638 211 728 q 245 392 211 500 q 340 206 279 283 q 485 89 401 129 q 669 49 569 49 m 596 1368 q 574 1381 586 1368 q 561 1401 561 1393 q 562 1410 561 1406 q 568 1419 563 1414 l 781 1621 q 790 1630 786 1626 q 800 1633 794 1633 q 821 1626 810 1633 q 840 1607 832 1618 q 847 1588 847 1596 q 846 1576 847 1581 q 836 1567 844 1572 l 614 1378 q 604 1371 608 1374 q 596 1368 600 1368 m 0 -569 l 1336 -569 l 1336 -583 l 0 -583 l 0 -569 m 0 28 l 1336 28 l 1336 0 l 0 0 l 0 28 m 0 701 l 1336 701 l 1336 694 l 0 694 l 0 701 m 0 1292 l 1336 1292 l 1336 1278 l 0 1278 l 0 1292 z "},"Ŏ":{"ha":1336,"x_min":0,"x_max":1336,"o":"m 669 -26 q 451 21 550 -26 q 280 156 351 68 q 169 365 208 243 q 131 638 131 488 q 148 824 131 736 q 199 985 165 911 q 280 1117 232 1058 q 388 1215 328 1175 q 519 1277 449 1256 q 669 1299 590 1299 q 887 1251 789 1299 q 1056 1117 985 1204 q 1167 908 1128 1029 q 1206 638 1206 786 q 1188 450 1206 538 q 1137 288 1169 363 q 1056 156 1104 214 q 949 57 1008 97 q 819 -5 889 17 q 669 -26 749 -26 m 669 49 q 795 67 736 49 q 905 120 854 85 q 996 206 956 156 q 1065 323 1036 257 q 1108 467 1093 389 q 1124 638 1124 546 q 1090 882 1124 774 q 996 1067 1057 990 q 852 1185 935 1144 q 669 1225 769 1225 q 543 1207 603 1225 q 432 1153 483 1189 q 340 1067 381 1118 q 271 951 300 1017 q 226 806 242 885 q 211 638 211 728 q 245 392 211 500 q 340 206 279 283 q 485 89 401 129 q 669 49 569 49 m 668 1369 q 503 1428 568 1369 q 435 1604 439 1488 q 442 1626 433 1618 q 468 1633 450 1633 q 491 1626 485 1633 q 499 1604 497 1618 q 551 1486 507 1525 q 668 1447 596 1447 q 787 1486 742 1447 q 839 1604 832 1525 q 847 1626 840 1618 q 869 1633 853 1633 q 896 1626 888 1633 q 904 1604 904 1618 q 870 1476 901 1528 q 787 1397 839 1424 q 668 1369 735 1369 m 0 -569 l 1336 -569 l 1336 -583 l 0 -583 l 0 -569 m 0 28 l 1336 28 l 1336 0 l 0 0 l 0 28 m 0 701 l 1336 701 l 1336 694 l 0 694 l 0 701 m 0 1292 l 1336 1292 l 1336 1278 l 0 1278 l 0 1292 z "},"Ǒ":{"ha":1336,"x_min":0,"x_max":1336,"o":"m 669 -26 q 451 21 550 -26 q 280 156 351 68 q 169 365 208 243 q 131 638 131 488 q 148 824 131 736 q 199 985 165 911 q 280 1117 232 1058 q 388 1215 328 1175 q 519 1277 449 1256 q 669 1299 590 1299 q 887 1251 789 1299 q 1056 1117 985 1204 q 1167 908 1128 1029 q 1206 638 1206 786 q 1188 450 1206 538 q 1137 288 1169 363 q 1056 156 1104 214 q 949 57 1008 97 q 819 -5 889 17 q 669 -26 749 -26 m 669 49 q 795 67 736 49 q 905 120 854 85 q 996 206 956 156 q 1065 323 1036 257 q 1108 467 1093 389 q 1124 638 1124 546 q 1090 882 1124 774 q 996 1067 1057 990 q 852 1185 935 1144 q 669 1225 769 1225 q 543 1207 603 1225 q 432 1153 483 1189 q 340 1067 381 1118 q 271 951 300 1017 q 226 806 242 885 q 211 638 211 728 q 245 392 211 500 q 340 206 279 283 q 485 89 401 129 q 669 49 569 49 m 888 1633 q 908 1623 899 1633 q 918 1600 918 1613 q 917 1592 918 1596 q 911 1582 917 1588 l 704 1385 q 689 1373 696 1378 q 668 1368 682 1368 q 649 1373 656 1368 q 635 1385 642 1378 l 426 1583 q 420 1594 421 1589 q 419 1601 419 1599 q 430 1624 419 1614 q 450 1633 440 1633 q 463 1630 457 1633 q 474 1622 468 1626 l 668 1457 l 864 1622 q 876 1630 871 1626 q 888 1633 881 1633 m 0 -569 l 1336 -569 l 1336 -583 l 0 -583 l 0 -569 m 0 28 l 1336 28 l 1336 0 l 0 0 l 0 28 m 0 701 l 1336 701 l 1336 694 l 0 694 l 0 701 m 0 1292 l 1336 1292 l 1336 1278 l 0 1278 l 0 1292 z "},"Ô":{"ha":1336,"x_min":0,"x_max":1336,"o":"m 669 -26 q 451 21 550 -26 q 280 156 351 68 q 169 365 208 243 q 131 638 131 488 q 148 824 131 736 q 199 985 165 911 q 280 1117 232 1058 q 388 1215 328 1175 q 519 1277 449 1256 q 669 1299 590 1299 q 887 1251 789 1299 q 1056 1117 985 1204 q 1167 908 1128 1029 q 1206 638 1206 786 q 1188 450 1206 538 q 1137 288 1169 363 q 1056 156 1104 214 q 949 57 1008 97 q 819 -5 889 17 q 669 -26 749 -26 m 669 49 q 795 67 736 49 q 905 120 854 85 q 996 206 956 156 q 1065 323 1036 257 q 1108 467 1093 389 q 1124 638 1124 546 q 1090 882 1124 774 q 996 1067 1057 990 q 852 1185 935 1144 q 669 1225 769 1225 q 543 1207 603 1225 q 432 1153 483 1189 q 340 1067 381 1118 q 271 951 300 1017 q 226 806 242 885 q 211 638 211 728 q 245 392 211 500 q 340 206 279 283 q 485 89 401 129 q 669 49 569 49 m 450 1367 q 430 1378 440 1367 q 419 1400 419 1389 q 420 1408 419 1404 q 426 1418 421 1413 l 633 1615 q 649 1628 642 1624 q 668 1633 656 1633 q 688 1628 681 1633 q 703 1615 696 1624 l 911 1417 q 917 1408 917 1413 q 918 1399 918 1403 q 908 1377 918 1388 q 888 1367 899 1367 q 876 1370 881 1367 q 864 1379 871 1374 l 668 1544 l 474 1379 q 463 1370 468 1374 q 450 1367 457 1367 m 0 -569 l 1336 -569 l 1336 -583 l 0 -583 l 0 -569 m 0 28 l 1336 28 l 1336 0 l 0 0 l 0 28 m 0 701 l 1336 701 l 1336 694 l 0 694 l 0 701 m 0 1292 l 1336 1292 l 1336 1278 l 0 1278 l 0 1292 z "},"Ö":{"ha":1336,"x_min":0,"x_max":1336,"o":"m 669 -26 q 451 21 550 -26 q 280 156 351 68 q 169 365 208 243 q 131 638 131 488 q 148 824 131 736 q 199 985 165 911 q 280 1117 232 1058 q 388 1215 328 1175 q 519 1277 449 1256 q 669 1299 590 1299 q 887 1251 789 1299 q 1056 1117 985 1204 q 1167 908 1128 1029 q 1206 638 1206 786 q 1188 450 1206 538 q 1137 288 1169 363 q 1056 156 1104 214 q 949 57 1008 97 q 819 -5 889 17 q 669 -26 749 -26 m 669 49 q 795 67 736 49 q 905 120 854 85 q 996 206 956 156 q 1065 323 1036 257 q 1108 467 1093 389 q 1124 638 1124 546 q 1090 882 1124 774 q 996 1067 1057 990 q 852 1185 935 1144 q 669 1225 769 1225 q 543 1207 603 1225 q 432 1153 483 1189 q 340 1067 381 1118 q 271 951 300 1017 q 226 806 242 885 q 211 638 211 728 q 245 392 211 500 q 340 206 279 283 q 485 89 401 129 q 669 49 569 49 m 496 1417 q 450 1433 465 1417 q 435 1483 435 1449 q 450 1536 435 1519 q 496 1553 465 1553 q 541 1536 526 1553 q 556 1483 556 1519 q 542 1433 557 1449 q 496 1417 526 1417 m 842 1417 q 797 1433 811 1417 q 782 1483 782 1449 q 797 1536 782 1519 q 842 1553 811 1553 q 888 1536 872 1553 q 903 1483 903 1519 q 888 1433 903 1449 q 842 1417 872 1417 m 0 -569 l 1336 -569 l 1336 -583 l 0 -583 l 0 -569 m 0 28 l 1336 28 l 1336 0 l 0 0 l 0 28 m 0 701 l 1336 701 l 1336 694 l 0 694 l 0 701 m 0 1292 l 1336 1292 l 1336 1278 l 0 1278 l 0 1292 z "},"Ò":{"ha":1336,"x_min":0,"x_max":1336,"o":"m 669 -26 q 451 21 550 -26 q 280 156 351 68 q 169 365 208 243 q 131 638 131 488 q 148 824 131 736 q 199 985 165 911 q 280 1117 232 1058 q 388 1215 328 1175 q 519 1277 449 1256 q 669 1299 590 1299 q 887 1251 789 1299 q 1056 1117 985 1204 q 1167 908 1128 1029 q 1206 638 1206 786 q 1188 450 1206 538 q 1137 288 1169 363 q 1056 156 1104 214 q 949 57 1008 97 q 819 -5 889 17 q 669 -26 749 -26 m 669 49 q 795 67 736 49 q 905 120 854 85 q 996 206 956 156 q 1065 323 1036 257 q 1108 467 1093 389 q 1124 638 1124 546 q 1090 882 1124 774 q 996 1067 1057 990 q 852 1185 935 1144 q 669 1225 769 1225 q 543 1207 603 1225 q 432 1153 483 1189 q 340 1067 381 1118 q 271 951 300 1017 q 226 806 242 885 q 211 638 211 728 q 245 392 211 500 q 340 206 279 283 q 485 89 401 129 q 669 49 569 49 m 742 1368 q 733 1371 736 1368 q 722 1378 729 1374 l 500 1567 q 492 1576 494 1572 q 490 1588 490 1581 q 498 1607 490 1596 q 516 1626 506 1618 q 536 1633 526 1633 q 547 1630 542 1633 q 557 1621 551 1626 l 768 1419 q 776 1410 775 1414 q 776 1401 776 1406 q 764 1381 776 1393 q 742 1368 751 1368 m 0 -569 l 1336 -569 l 1336 -583 l 0 -583 l 0 -569 m 0 28 l 1336 28 l 1336 0 l 0 0 l 0 28 m 0 701 l 1336 701 l 1336 694 l 0 694 l 0 701 m 0 1292 l 1336 1292 l 1336 1278 l 0 1278 l 0 1292 z "},"Ő":{"ha":1336,"x_min":0,"x_max":1336,"o":"m 669 -26 q 451 21 550 -26 q 280 156 351 68 q 169 365 208 243 q 131 636 131 488 q 148 824 131 736 q 199 985 165 911 q 280 1117 232 1058 q 388 1215 328 1175 q 519 1277 449 1256 q 669 1299 590 1299 q 887 1251 789 1299 q 1056 1117 985 1204 q 1167 908 1128 1029 q 1206 638 1206 786 q 1188 450 1206 538 q 1137 288 1169 363 q 1056 156 1104 214 q 949 57 1008 97 q 819 -5 889 17 q 669 -26 749 -26 m 669 49 q 795 67 736 49 q 905 120 854 85 q 996 206 956 156 q 1065 323 1036 257 q 1108 467 1093 389 q 1124 638 1124 546 q 1090 882 1124 774 q 996 1067 1057 990 q 852 1185 935 1144 q 669 1225 769 1225 q 543 1207 603 1225 q 432 1153 483 1189 q 340 1067 381 1118 q 271 951 300 1017 q 226 806 242 885 q 211 636 211 728 q 245 392 211 500 q 340 206 279 283 q 485 89 401 129 q 669 49 569 49 m 525 1368 q 503 1381 515 1368 q 490 1401 490 1393 q 491 1410 490 1406 q 497 1419 492 1414 l 704 1621 q 715 1630 711 1626 q 725 1633 719 1633 q 745 1626 735 1633 q 763 1608 756 1618 q 769 1588 769 1597 q 768 1577 769 1582 q 760 1567 767 1572 l 544 1378 q 533 1371 538 1374 q 525 1368 529 1368 m 767 1368 q 744 1381 756 1368 q 732 1401 732 1393 q 733 1410 732 1406 q 739 1419 733 1414 l 947 1621 q 958 1630 953 1626 q 969 1633 964 1633 q 989 1626 979 1633 q 1006 1608 999 1618 q 1013 1588 1013 1597 q 1011 1577 1013 1582 q 1003 1567 1010 1572 l 785 1378 q 775 1371 779 1374 q 767 1368 771 1368 m 0 -569 l 1336 -569 l 1336 -583 l 0 -583 l 0 -569 m 0 28 l 1336 28 l 1336 0 l 0 0 l 0 28 m 0 701 l 1336 701 l 1336 694 l 0 694 l 0 701 m 0 1292 l 1336 1292 l 1336 1278 l 0 1278 l 0 1292 z "},"Ō":{"ha":1336,"x_min":0,"x_max":1336,"o":"m 669 -26 q 451 21 550 -26 q 280 156 351 68 q 169 365 208 243 q 131 638 131 488 q 148 824 131 736 q 199 985 165 911 q 280 1117 232 1058 q 388 1215 328 1175 q 519 1277 449 1256 q 669 1299 590 1299 q 887 1251 789 1299 q 1056 1117 985 1204 q 1167 908 1128 1029 q 1206 638 1206 786 q 1188 450 1206 538 q 1137 288 1169 363 q 1056 156 1104 214 q 949 57 1008 97 q 819 -5 889 17 q 669 -26 749 -26 m 669 49 q 795 67 736 49 q 905 120 854 85 q 996 206 956 156 q 1065 323 1036 257 q 1108 467 1093 389 q 1124 638 1124 546 q 1090 882 1124 774 q 996 1067 1057 990 q 852 1185 935 1144 q 669 1225 769 1225 q 543 1207 603 1225 q 432 1153 483 1189 q 340 1067 381 1118 q 271 951 300 1017 q 226 806 242 885 q 211 638 211 728 q 245 392 211 500 q 340 206 279 283 q 485 89 401 129 q 669 49 569 49 m 479 1467 q 458 1476 464 1467 q 453 1500 453 1485 q 458 1528 453 1518 q 479 1539 464 1539 l 857 1539 q 878 1528 874 1539 q 883 1500 883 1518 q 878 1476 883 1485 q 857 1467 874 1467 l 479 1467 m 0 -569 l 1336 -569 l 1336 -583 l 0 -583 l 0 -569 m 0 28 l 1336 28 l 1336 0 l 0 0 l 0 28 m 0 701 l 1336 701 l 1336 694 l 0 694 l 0 701 m 0 1292 l 1336 1292 l 1336 1278 l 0 1278 l 0 1292 z "},"Ø":{"ha":1336,"x_min":0,"x_max":1336,"o":"m 669 -26 q 451 21 550 -26 q 280 156 351 68 q 169 365 208 243 q 131 638 131 488 q 148 824 131 736 q 199 985 165 911 q 280 1117 232 1058 q 388 1215 328 1175 q 519 1277 449 1256 q 669 1299 590 1299 q 887 1251 789 1299 q 1056 1117 985 1204 q 1167 908 1128 1029 q 1206 638 1206 786 q 1188 450 1206 538 q 1137 288 1169 363 q 1056 156 1104 214 q 949 57 1008 97 q 819 -5 889 17 q 669 -26 749 -26 m 669 49 q 795 67 736 49 q 905 120 854 85 q 996 206 956 156 q 1065 323 1036 257 q 1108 467 1093 389 q 1124 638 1124 546 q 1090 882 1124 774 q 996 1067 1057 990 q 852 1185 935 1144 q 669 1225 769 1225 q 543 1207 603 1225 q 432 1153 483 1189 q 340 1067 381 1118 q 271 951 300 1017 q 226 806 242 885 q 211 638 211 728 q 245 392 211 500 q 340 206 279 283 q 485 89 401 129 q 669 49 569 49 m 306 -75 q 288 -91 299 -87 q 258 -85 276 -94 q 242 -42 226 -67 l 1036 1342 q 1056 1356 1043 1354 q 1083 1349 1068 1358 q 1102 1331 1099 1342 q 1099 1306 1106 1321 l 306 -75 m 0 -569 l 1336 -569 l 1336 -583 l 0 -583 l 0 -569 m 0 28 l 1336 28 l 1336 0 l 0 0 l 0 28 m 0 701 l 1336 701 l 1336 694 l 0 694 l 0 701 m 0 1292 l 1336 1292 l 1336 1278 l 0 1278 l 0 1292 z "},"Õ":{"ha":1336,"x_min":0,"x_max":1336,"o":"m 669 -26 q 451 21 550 -26 q 280 156 351 68 q 169 365 208 243 q 131 638 131 488 q 148 824 131 736 q 199 985 165 911 q 280 1117 232 1058 q 388 1215 328 1175 q 519 1277 449 1256 q 669 1299 590 1299 q 887 1251 789 1299 q 1056 1117 985 1204 q 1167 908 1128 1029 q 1206 638 1206 786 q 1188 450 1206 538 q 1137 288 1169 363 q 1056 156 1104 214 q 949 57 1008 97 q 819 -5 889 17 q 669 -26 749 -26 m 669 49 q 795 67 736 49 q 905 120 854 85 q 996 206 956 156 q 1065 323 1036 257 q 1108 467 1093 389 q 1124 638 1124 546 q 1090 882 1124 774 q 996 1067 1057 990 q 852 1185 935 1144 q 669 1225 769 1225 q 543 1207 603 1225 q 432 1153 483 1189 q 340 1067 381 1118 q 271 951 300 1017 q 226 806 242 885 q 211 638 211 728 q 245 392 211 500 q 340 206 279 283 q 485 89 401 129 q 669 49 569 49 m 450 1410 q 418 1439 418 1410 q 454 1556 421 1514 q 544 1597 488 1597 q 619 1580 586 1597 q 680 1540 651 1563 q 734 1499 708 1517 q 788 1482 760 1482 q 833 1506 817 1482 q 850 1575 849 1531 q 883 1600 851 1600 q 909 1594 903 1600 q 915 1571 915 1588 q 880 1455 914 1496 q 786 1414 846 1414 q 713 1431 746 1414 q 653 1472 681 1449 q 599 1513 625 1494 q 544 1531 574 1531 q 501 1508 517 1531 q 483 1438 486 1485 q 474 1416 482 1422 q 450 1410 467 1410 m 0 -569 l 1336 -569 l 1336 -583 l 0 -583 l 0 -569 m 0 28 l 1336 28 l 1336 0 l 0 0 l 0 28 m 0 701 l 1336 701 l 1336 694 l 0 694 l 0 701 m 0 1292 l 1336 1292 l 1336 1278 l 0 1278 l 0 1292 z "},"Ố":{"ha":1336,"x_min":0,"x_max":1336,"o":"m 669 -26 q 451 21 550 -26 q 280 156 351 68 q 169 365 208 243 q 131 638 131 488 q 148 824 131 736 q 199 985 165 911 q 280 1117 232 1058 q 388 1215 328 1175 q 519 1277 449 1256 q 669 1299 590 1299 q 887 1251 789 1299 q 1056 1117 985 1204 q 1167 908 1128 1029 q 1206 638 1206 786 q 1188 450 1206 538 q 1137 288 1169 363 q 1056 156 1104 214 q 949 57 1008 97 q 819 -5 889 17 q 669 -26 749 -26 m 669 49 q 795 67 736 49 q 905 120 854 85 q 996 206 956 156 q 1065 323 1036 257 q 1108 467 1093 389 q 1124 638 1124 546 q 1090 882 1124 774 q 996 1067 1057 990 q 852 1185 935 1144 q 669 1225 769 1225 q 543 1207 603 1225 q 432 1153 483 1189 q 340 1067 381 1118 q 271 951 300 1017 q 226 806 242 885 q 211 638 211 728 q 245 392 211 500 q 340 206 279 283 q 485 89 401 129 q 669 49 569 49 m 450 1367 q 430 1378 440 1367 q 419 1400 419 1389 q 420 1408 419 1404 q 426 1418 421 1413 l 633 1615 q 649 1628 642 1624 q 668 1633 656 1633 q 688 1628 681 1633 q 703 1615 696 1624 l 911 1417 q 917 1408 917 1413 q 918 1399 918 1403 q 908 1377 918 1388 q 888 1367 899 1367 q 876 1370 881 1367 q 864 1379 871 1374 l 668 1544 l 474 1379 q 463 1370 468 1374 q 450 1367 457 1367 m 875 1578 q 852 1590 864 1578 q 840 1613 840 1603 q 841 1620 840 1617 q 847 1631 842 1624 l 1043 1818 q 1054 1827 1050 1824 q 1064 1831 1058 1831 q 1084 1823 1074 1831 q 1102 1805 1094 1815 q 1110 1785 1110 1794 q 1108 1774 1110 1779 q 1099 1764 1107 1769 l 894 1588 q 883 1581 888 1583 q 875 1578 878 1578 m 0 -569 l 1336 -569 l 1336 -583 l 0 -583 l 0 -569 m 0 28 l 1336 28 l 1336 0 l 0 0 l 0 28 m 0 701 l 1336 701 l 1336 694 l 0 694 l 0 701 m 0 1292 l 1336 1292 l 1336 1278 l 0 1278 l 0 1292 z "},"Ộ":{"ha":1336,"x_min":0,"x_max":1336,"o":"m 669 -26 q 451 21 550 -26 q 280 156 351 68 q 169 365 208 243 q 131 638 131 488 q 148 824 131 736 q 199 985 165 911 q 280 1117 232 1058 q 388 1215 328 1175 q 519 1277 449 1256 q 669 1299 590 1299 q 887 1251 789 1299 q 1056 1117 985 1204 q 1167 908 1128 1029 q 1206 638 1206 786 q 1188 450 1206 538 q 1137 288 1169 363 q 1056 156 1104 214 q 949 57 1008 97 q 819 -5 889 17 q 669 -26 749 -26 m 669 49 q 795 67 736 49 q 905 120 854 85 q 996 206 956 156 q 1065 323 1036 257 q 1108 467 1093 389 q 1124 638 1124 546 q 1090 882 1124 774 q 996 1067 1057 990 q 852 1185 935 1144 q 669 1225 769 1225 q 543 1207 603 1225 q 432 1153 483 1189 q 340 1067 381 1118 q 271 951 300 1017 q 226 806 242 885 q 211 638 211 728 q 245 392 211 500 q 340 206 279 283 q 485 89 401 129 q 669 49 569 49 m 668 -306 q 623 -289 638 -306 q 608 -237 608 -272 q 623 -185 608 -201 q 668 -168 638 -168 q 714 -185 699 -168 q 729 -237 729 -201 q 714 -289 729 -272 q 668 -306 699 -306 m 450 1367 q 430 1378 440 1367 q 419 1400 419 1389 q 420 1408 419 1404 q 426 1418 421 1413 l 633 1615 q 649 1628 642 1624 q 668 1633 656 1633 q 688 1628 681 1633 q 703 1615 696 1624 l 911 1417 q 917 1408 917 1413 q 918 1399 918 1403 q 908 1377 918 1388 q 888 1367 899 1367 q 876 1370 881 1367 q 864 1379 871 1374 l 668 1544 l 474 1379 q 463 1370 468 1374 q 450 1367 457 1367 m 0 -569 l 1336 -569 l 1336 -583 l 0 -583 l 0 -569 m 0 28 l 1336 28 l 1336 0 l 0 0 l 0 28 m 0 701 l 1336 701 l 1336 694 l 0 694 l 0 701 m 0 1292 l 1336 1292 l 1336 1278 l 0 1278 l 0 1292 z "},"Ồ":{"ha":1336,"x_min":0,"x_max":1336,"o":"m 669 -26 q 451 21 550 -26 q 280 156 351 68 q 169 365 208 243 q 131 638 131 488 q 148 824 131 736 q 199 985 165 911 q 280 1117 232 1058 q 388 1215 328 1175 q 519 1277 449 1256 q 669 1299 590 1299 q 887 1251 789 1299 q 1056 1117 985 1204 q 1167 908 1128 1029 q 1206 638 1206 786 q 1188 450 1206 538 q 1137 288 1169 363 q 1056 156 1104 214 q 949 57 1008 97 q 819 -5 889 17 q 669 -26 749 -26 m 669 49 q 795 67 736 49 q 905 120 854 85 q 996 206 956 156 q 1065 323 1036 257 q 1108 467 1093 389 q 1124 638 1124 546 q 1090 882 1124 774 q 996 1067 1057 990 q 852 1185 935 1144 q 669 1225 769 1225 q 543 1207 603 1225 q 432 1153 483 1189 q 340 1067 381 1118 q 271 951 300 1017 q 226 806 242 885 q 211 638 211 728 q 245 392 211 500 q 340 206 279 283 q 485 89 401 129 q 669 49 569 49 m 450 1367 q 430 1378 440 1367 q 419 1400 419 1389 q 420 1408 419 1404 q 426 1418 421 1413 l 633 1615 q 649 1628 642 1624 q 668 1633 656 1633 q 688 1628 681 1633 q 703 1615 696 1624 l 911 1417 q 917 1408 917 1413 q 918 1399 918 1403 q 908 1377 918 1388 q 888 1367 899 1367 q 876 1370 881 1367 q 864 1379 871 1374 l 668 1544 l 474 1379 q 463 1370 468 1374 q 450 1367 457 1367 m 965 1564 q 957 1567 961 1564 q 946 1575 953 1569 l 731 1767 q 722 1777 724 1774 q 721 1788 721 1781 q 728 1807 721 1796 q 746 1826 735 1818 q 765 1833 757 1833 q 776 1830 772 1833 q 786 1821 781 1826 l 993 1615 q 999 1607 997 1611 q 1000 1599 1000 1603 q 988 1576 1000 1589 q 965 1564 976 1564 m 0 -569 l 1336 -569 l 1336 -583 l 0 -583 l 0 -569 m 0 28 l 1336 28 l 1336 0 l 0 0 l 0 28 m 0 701 l 1336 701 l 1336 694 l 0 694 l 0 701 m 0 1292 l 1336 1292 l 1336 1278 l 0 1278 l 0 1292 z "},"Ổ":{"ha":1336,"x_min":0,"x_max":1336,"o":"m 669 -26 q 451 21 550 -26 q 280 156 351 68 q 169 365 208 243 q 131 638 131 488 q 148 824 131 736 q 199 985 165 911 q 280 1117 232 1058 q 388 1215 328 1175 q 519 1277 449 1256 q 669 1299 590 1299 q 887 1251 789 1299 q 1056 1117 985 1204 q 1167 908 1128 1029 q 1206 638 1206 786 q 1188 450 1206 538 q 1137 288 1169 363 q 1056 156 1104 214 q 949 57 1008 97 q 819 -5 889 17 q 669 -26 749 -26 m 669 49 q 795 67 736 49 q 905 120 854 85 q 996 206 956 156 q 1065 323 1036 257 q 1108 467 1093 389 q 1124 638 1124 546 q 1090 882 1124 774 q 996 1067 1057 990 q 852 1185 935 1144 q 669 1225 769 1225 q 543 1207 603 1225 q 432 1153 483 1189 q 340 1067 381 1118 q 271 951 300 1017 q 226 806 242 885 q 211 638 211 728 q 245 392 211 500 q 340 206 279 283 q 485 89 401 129 q 669 49 569 49 m 450 1367 q 430 1378 440 1367 q 419 1400 419 1389 q 420 1408 419 1404 q 426 1418 421 1413 l 633 1615 q 649 1628 642 1624 q 668 1633 656 1633 q 688 1628 681 1633 q 703 1615 696 1624 l 911 1417 q 917 1408 917 1413 q 918 1399 918 1403 q 908 1377 918 1388 q 888 1367 899 1367 q 876 1370 881 1367 q 864 1379 871 1374 l 668 1544 l 474 1379 q 463 1370 468 1374 q 450 1367 457 1367 m 910 1839 q 1010 1809 972 1839 q 1047 1732 1047 1779 q 1030 1676 1047 1700 q 974 1624 1013 1651 q 940 1593 947 1606 q 943 1558 932 1581 l 944 1550 q 942 1530 949 1539 q 924 1517 936 1521 q 900 1515 911 1514 q 885 1528 889 1517 l 874 1554 q 870 1616 860 1589 q 913 1664 881 1643 q 954 1697 942 1682 q 967 1729 967 1711 q 947 1760 967 1749 q 900 1772 928 1772 q 852 1765 875 1772 q 810 1744 829 1758 q 771 1758 785 1731 q 778 1799 758 1782 q 837 1828 803 1818 q 910 1839 871 1839 m 0 -569 l 1336 -569 l 1336 -583 l 0 -583 l 0 -569 m 0 28 l 1336 28 l 1336 0 l 0 0 l 0 28 m 0 701 l 1336 701 l 1336 694 l 0 694 l 0 701 m 0 1292 l 1336 1292 l 1336 1278 l 0 1278 l 0 1292 z "},"Ỗ":{"ha":1336,"x_min":0,"x_max":1336,"o":"m 669 -26 q 451 21 550 -26 q 280 156 351 68 q 169 365 208 243 q 131 638 131 488 q 148 824 131 736 q 199 985 165 911 q 280 1117 232 1058 q 388 1215 328 1175 q 519 1277 449 1256 q 669 1299 590 1299 q 887 1251 789 1299 q 1056 1117 985 1204 q 1167 908 1128 1029 q 1206 638 1206 786 q 1188 450 1206 538 q 1137 288 1169 363 q 1056 156 1104 214 q 949 57 1008 97 q 819 -5 889 17 q 669 -26 749 -26 m 669 49 q 795 67 736 49 q 905 120 854 85 q 996 206 956 156 q 1065 323 1036 257 q 1108 467 1093 389 q 1124 638 1124 546 q 1090 882 1124 774 q 996 1067 1057 990 q 852 1185 935 1144 q 669 1225 769 1225 q 543 1207 603 1225 q 432 1153 483 1189 q 340 1067 381 1118 q 271 951 300 1017 q 226 806 242 885 q 211 638 211 728 q 245 392 211 500 q 340 206 279 283 q 485 89 401 129 q 669 49 569 49 m 450 1367 q 430 1378 440 1367 q 419 1400 419 1389 q 420 1408 419 1404 q 426 1418 421 1413 l 633 1615 q 649 1628 642 1624 q 668 1633 656 1633 q 688 1628 681 1633 q 703 1615 696 1624 l 911 1417 q 917 1408 917 1413 q 918 1399 918 1403 q 908 1377 918 1388 q 888 1367 899 1367 q 876 1370 881 1367 q 864 1379 871 1374 l 668 1544 l 474 1379 q 463 1370 468 1374 q 450 1367 457 1367 m 451 1651 q 421 1681 421 1651 q 457 1797 424 1756 q 547 1839 490 1839 q 622 1822 589 1839 q 682 1781 654 1804 q 736 1741 710 1758 q 790 1724 763 1724 q 834 1748 818 1724 q 853 1817 850 1772 q 886 1842 854 1842 q 911 1835 904 1842 q 918 1813 918 1829 q 882 1697 915 1738 q 789 1656 849 1656 q 716 1673 749 1656 q 656 1713 683 1690 q 601 1754 628 1736 q 547 1772 575 1772 q 503 1749 519 1772 q 485 1679 488 1726 q 476 1658 483 1664 q 451 1651 469 1651 m 0 -569 l 1336 -569 l 1336 -583 l 0 -583 l 0 -569 m 0 28 l 1336 28 l 1336 0 l 0 0 l 0 28 m 0 701 l 1336 701 l 1336 694 l 0 694 l 0 701 m 0 1292 l 1336 1292 l 1336 1278 l 0 1278 l 0 1292 z "},"Ọ":{"ha":1336,"x_min":0,"x_max":1336,"o":"m 669 -26 q 451 21 550 -26 q 280 156 351 68 q 169 365 208 243 q 131 638 131 488 q 148 824 131 736 q 199 985 165 911 q 280 1117 232 1058 q 388 1215 328 1175 q 519 1277 449 1256 q 669 1299 590 1299 q 887 1251 789 1299 q 1056 1117 985 1204 q 1167 908 1128 1029 q 1206 638 1206 786 q 1188 450 1206 538 q 1137 288 1169 363 q 1056 156 1104 214 q 949 57 1008 97 q 819 -5 889 17 q 669 -26 749 -26 m 669 49 q 795 67 736 49 q 905 120 854 85 q 996 206 956 156 q 1065 323 1036 257 q 1108 467 1093 389 q 1124 638 1124 546 q 1090 882 1124 774 q 996 1067 1057 990 q 852 1185 935 1144 q 669 1225 769 1225 q 543 1207 603 1225 q 432 1153 483 1189 q 340 1067 381 1118 q 271 951 300 1017 q 226 806 242 885 q 211 638 211 728 q 245 392 211 500 q 340 206 279 283 q 485 89 401 129 q 669 49 569 49 m 668 -306 q 623 -289 638 -306 q 608 -237 608 -272 q 623 -185 608 -201 q 668 -168 638 -168 q 714 -185 699 -168 q 729 -237 729 -201 q 714 -289 729 -272 q 668 -306 699 -306 m 0 -569 l 1336 -569 l 1336 -583 l 0 -583 l 0 -569 m 0 28 l 1336 28 l 1336 0 l 0 0 l 0 28 m 0 701 l 1336 701 l 1336 694 l 0 694 l 0 701 m 0 1292 l 1336 1292 l 1336 1278 l 0 1278 l 0 1292 z "},"Ỏ":{"ha":1336,"x_min":0,"x_max":1336,"o":"m 669 -26 q 451 21 550 -26 q 280 156 351 68 q 169 365 208 243 q 131 638 131 488 q 148 824 131 736 q 199 985 165 911 q 280 1117 232 1058 q 388 1215 328 1175 q 519 1277 449 1256 q 669 1299 590 1299 q 887 1251 789 1299 q 1056 1117 985 1204 q 1167 908 1128 1029 q 1206 638 1206 786 q 1188 450 1206 538 q 1137 288 1169 363 q 1056 156 1104 214 q 949 57 1008 97 q 819 -5 889 17 q 669 -26 749 -26 m 669 49 q 795 67 736 49 q 905 120 854 85 q 996 206 956 156 q 1065 323 1036 257 q 1108 467 1093 389 q 1124 638 1124 546 q 1090 882 1124 774 q 996 1067 1057 990 q 852 1185 935 1144 q 669 1225 769 1225 q 543 1207 603 1225 q 432 1153 483 1189 q 340 1067 381 1118 q 271 951 300 1017 q 226 806 242 885 q 211 638 211 728 q 245 392 211 500 q 340 206 279 283 q 485 89 401 129 q 669 49 569 49 m 681 1671 q 781 1641 743 1671 q 818 1564 818 1611 q 801 1506 818 1531 q 744 1456 783 1482 q 710 1424 718 1438 q 713 1389 703 1411 l 715 1382 q 713 1361 719 1369 q 694 1349 706 1353 q 671 1347 682 1344 q 656 1358 660 1349 l 643 1386 q 640 1448 629 1421 q 683 1496 651 1475 q 724 1528 711 1513 q 738 1560 738 1543 q 718 1592 738 1579 q 669 1604 699 1604 q 623 1597 646 1604 q 581 1576 600 1590 q 542 1589 556 1563 q 549 1629 529 1613 q 608 1660 574 1650 q 681 1671 642 1671 m 0 -569 l 1336 -569 l 1336 -583 l 0 -583 l 0 -569 m 0 28 l 1336 28 l 1336 0 l 0 0 l 0 28 m 0 701 l 1336 701 l 1336 694 l 0 694 l 0 701 m 0 1292 l 1336 1292 l 1336 1278 l 0 1278 l 0 1292 z "},"Ơ":{"ha":1336,"x_min":0,"x_max":1336,"o":"m 669 -26 q 451 21 550 -26 q 280 156 351 68 q 169 365 208 243 q 131 638 131 488 q 148 824 131 736 q 199 985 165 911 q 280 1117 232 1058 q 388 1215 328 1175 q 519 1277 449 1256 q 669 1299 590 1299 q 756 1292 715 1299 q 835 1271 796 1285 q 972 1293 922 1274 q 1039 1344 1021 1313 q 1048 1417 1057 1376 q 1011 1500 1039 1457 q 1008 1527 1003 1514 q 1027 1549 1014 1540 q 1056 1558 1040 1558 q 1081 1543 1071 1557 q 1126 1440 1114 1492 q 1122 1342 1138 1388 q 1060 1265 1106 1297 q 933 1225 1014 1233 q 1133 994 1060 1147 q 1206 638 1206 842 q 1188 450 1206 538 q 1137 288 1169 363 q 1056 156 1104 214 q 949 57 1008 97 q 819 -5 889 17 q 669 -26 749 -26 m 669 49 q 795 67 736 49 q 905 120 854 85 q 996 206 956 156 q 1065 323 1036 257 q 1108 467 1093 389 q 1124 638 1124 546 q 1090 882 1124 774 q 996 1067 1057 990 q 852 1185 935 1144 q 669 1225 769 1225 q 543 1207 603 1225 q 432 1153 483 1189 q 340 1067 381 1118 q 271 951 300 1017 q 226 806 242 885 q 211 638 211 728 q 245 392 211 500 q 340 206 279 283 q 485 89 401 129 q 669 49 569 49 m 0 -569 l 1336 -569 l 1336 -583 l 0 -583 l 0 -569 m 0 28 l 1336 28 l 1336 0 l 0 0 l 0 28 m 0 701 l 1336 701 l 1336 694 l 0 694 l 0 701 m 0 1292 l 1336 1292 l 1336 1278 l 0 1278 l 0 1292 z "},"Ớ":{"ha":1336,"x_min":0,"x_max":1336,"o":"m 669 -26 q 451 21 550 -26 q 280 156 351 68 q 169 365 208 243 q 131 638 131 488 q 148 824 131 736 q 199 985 165 911 q 280 1117 232 1058 q 388 1215 328 1175 q 519 1277 449 1256 q 669 1299 590 1299 q 756 1292 715 1299 q 835 1271 796 1285 q 972 1293 922 1274 q 1039 1344 1021 1313 q 1048 1417 1057 1376 q 1011 1500 1039 1457 q 1008 1527 1003 1514 q 1027 1549 1014 1540 q 1056 1558 1040 1558 q 1081 1543 1071 1557 q 1126 1440 1114 1492 q 1122 1342 1138 1388 q 1060 1265 1106 1297 q 933 1225 1014 1233 q 1133 994 1060 1147 q 1206 638 1206 842 q 1188 450 1206 538 q 1137 288 1169 363 q 1056 156 1104 214 q 949 57 1008 97 q 819 -5 889 17 q 669 -26 749 -26 m 669 49 q 795 67 736 49 q 905 120 854 85 q 996 206 956 156 q 1065 323 1036 257 q 1108 467 1093 389 q 1124 638 1124 546 q 1090 882 1124 774 q 996 1067 1057 990 q 852 1185 935 1144 q 669 1225 769 1225 q 543 1207 603 1225 q 432 1153 483 1189 q 340 1067 381 1118 q 271 951 300 1017 q 226 806 242 885 q 211 638 211 728 q 245 392 211 500 q 340 206 279 283 q 485 89 401 129 q 669 49 569 49 m 596 1368 q 574 1381 586 1368 q 561 1401 561 1393 q 562 1410 561 1406 q 568 1419 563 1414 l 781 1621 q 790 1630 786 1626 q 800 1633 794 1633 q 821 1626 810 1633 q 840 1607 832 1618 q 847 1588 847 1596 q 846 1576 847 1581 q 836 1567 844 1572 l 614 1378 q 604 1371 608 1374 q 596 1368 600 1368 m 0 -569 l 1336 -569 l 1336 -583 l 0 -583 l 0 -569 m 0 28 l 1336 28 l 1336 0 l 0 0 l 0 28 m 0 701 l 1336 701 l 1336 694 l 0 694 l 0 701 m 0 1292 l 1336 1292 l 1336 1278 l 0 1278 l 0 1292 z "},"Ợ":{"ha":1336,"x_min":0,"x_max":1336,"o":"m 669 -26 q 451 21 550 -26 q 280 156 351 68 q 169 365 208 243 q 131 638 131 488 q 148 824 131 736 q 199 985 165 911 q 280 1117 232 1058 q 388 1215 328 1175 q 519 1277 449 1256 q 669 1299 590 1299 q 756 1292 715 1299 q 835 1271 796 1285 q 972 1293 922 1274 q 1039 1344 1021 1313 q 1048 1417 1057 1376 q 1011 1500 1039 1457 q 1008 1527 1003 1514 q 1027 1549 1014 1540 q 1056 1558 1040 1558 q 1081 1543 1071 1557 q 1126 1440 1114 1492 q 1122 1342 1138 1388 q 1060 1265 1106 1297 q 933 1225 1014 1233 q 1133 994 1060 1147 q 1206 638 1206 842 q 1188 450 1206 538 q 1137 288 1169 363 q 1056 156 1104 214 q 949 57 1008 97 q 819 -5 889 17 q 669 -26 749 -26 m 669 49 q 795 67 736 49 q 905 120 854 85 q 996 206 956 156 q 1065 323 1036 257 q 1108 467 1093 389 q 1124 638 1124 546 q 1090 882 1124 774 q 996 1067 1057 990 q 852 1185 935 1144 q 669 1225 769 1225 q 543 1207 603 1225 q 432 1153 483 1189 q 340 1067 381 1118 q 271 951 300 1017 q 226 806 242 885 q 211 638 211 728 q 245 392 211 500 q 340 206 279 283 q 485 89 401 129 q 669 49 569 49 m 668 -306 q 623 -289 638 -306 q 608 -237 608 -272 q 623 -185 608 -201 q 668 -168 638 -168 q 714 -185 699 -168 q 729 -237 729 -201 q 714 -289 729 -272 q 668 -306 699 -306 m 0 -569 l 1336 -569 l 1336 -583 l 0 -583 l 0 -569 m 0 28 l 1336 28 l 1336 0 l 0 0 l 0 28 m 0 701 l 1336 701 l 1336 694 l 0 694 l 0 701 m 0 1292 l 1336 1292 l 1336 1278 l 0 1278 l 0 1292 z "},"Ờ":{"ha":1336,"x_min":0,"x_max":1336,"o":"m 669 -26 q 451 21 550 -26 q 280 156 351 68 q 169 365 208 243 q 131 638 131 488 q 148 824 131 736 q 199 985 165 911 q 280 1117 232 1058 q 388 1215 328 1175 q 519 1277 449 1256 q 669 1299 590 1299 q 756 1292 715 1299 q 835 1271 796 1285 q 972 1293 922 1274 q 1039 1344 1021 1313 q 1048 1417 1057 1376 q 1011 1500 1039 1457 q 1008 1527 1003 1514 q 1027 1549 1014 1540 q 1056 1558 1040 1558 q 1081 1543 1071 1557 q 1126 1440 1114 1492 q 1122 1342 1138 1388 q 1060 1265 1106 1297 q 933 1225 1014 1233 q 1133 994 1060 1147 q 1206 638 1206 842 q 1188 450 1206 538 q 1137 288 1169 363 q 1056 156 1104 214 q 949 57 1008 97 q 819 -5 889 17 q 669 -26 749 -26 m 669 49 q 795 67 736 49 q 905 120 854 85 q 996 206 956 156 q 1065 323 1036 257 q 1108 467 1093 389 q 1124 638 1124 546 q 1090 882 1124 774 q 996 1067 1057 990 q 852 1185 935 1144 q 669 1225 769 1225 q 543 1207 603 1225 q 432 1153 483 1189 q 340 1067 381 1118 q 271 951 300 1017 q 226 806 242 885 q 211 638 211 728 q 245 392 211 500 q 340 206 279 283 q 485 89 401 129 q 669 49 569 49 m 742 1368 q 733 1371 736 1368 q 722 1378 729 1374 l 500 1567 q 492 1576 494 1572 q 490 1588 490 1581 q 498 1607 490 1596 q 516 1626 506 1618 q 536 1633 526 1633 q 547 1630 542 1633 q 557 1621 551 1626 l 768 1419 q 776 1410 775 1414 q 776 1401 776 1406 q 764 1381 776 1393 q 742 1368 751 1368 m 0 -569 l 1336 -569 l 1336 -583 l 0 -583 l 0 -569 m 0 28 l 1336 28 l 1336 0 l 0 0 l 0 28 m 0 701 l 1336 701 l 1336 694 l 0 694 l 0 701 m 0 1292 l 1336 1292 l 1336 1278 l 0 1278 l 0 1292 z "},"Ở":{"ha":1336,"x_min":0,"x_max":1336,"o":"m 669 -26 q 451 21 550 -26 q 280 156 351 68 q 169 365 208 243 q 131 638 131 488 q 148 824 131 736 q 199 985 165 911 q 280 1117 232 1058 q 388 1215 328 1175 q 519 1277 449 1256 q 669 1299 590 1299 q 756 1292 715 1299 q 835 1271 796 1285 q 972 1293 922 1274 q 1039 1344 1021 1313 q 1048 1417 1057 1376 q 1011 1500 1039 1457 q 1008 1527 1003 1514 q 1027 1549 1014 1540 q 1056 1558 1040 1558 q 1081 1543 1071 1557 q 1126 1440 1114 1492 q 1122 1342 1138 1388 q 1060 1265 1106 1297 q 933 1225 1014 1233 q 1133 994 1060 1147 q 1206 638 1206 842 q 1188 450 1206 538 q 1137 288 1169 363 q 1056 156 1104 214 q 949 57 1008 97 q 819 -5 889 17 q 669 -26 749 -26 m 669 49 q 795 67 736 49 q 905 120 854 85 q 996 206 956 156 q 1065 323 1036 257 q 1108 467 1093 389 q 1124 638 1124 546 q 1090 882 1124 774 q 996 1067 1057 990 q 852 1185 935 1144 q 669 1225 769 1225 q 543 1207 603 1225 q 432 1153 483 1189 q 340 1067 381 1118 q 271 951 300 1017 q 226 806 242 885 q 211 638 211 728 q 245 392 211 500 q 340 206 279 283 q 485 89 401 129 q 669 49 569 49 m 681 1671 q 781 1641 743 1671 q 818 1564 818 1611 q 801 1506 818 1531 q 744 1456 783 1482 q 710 1424 718 1438 q 713 1389 703 1411 l 715 1382 q 713 1361 719 1369 q 694 1349 706 1353 q 671 1347 682 1344 q 656 1358 660 1349 l 643 1386 q 640 1448 629 1421 q 683 1496 651 1475 q 724 1528 711 1513 q 738 1560 738 1543 q 718 1592 738 1579 q 669 1604 699 1604 q 623 1597 646 1604 q 581 1576 600 1590 q 542 1589 556 1563 q 549 1629 529 1613 q 608 1660 574 1650 q 681 1671 642 1671 m 0 -569 l 1336 -569 l 1336 -583 l 0 -583 l 0 -569 m 0 28 l 1336 28 l 1336 0 l 0 0 l 0 28 m 0 701 l 1336 701 l 1336 694 l 0 694 l 0 701 m 0 1292 l 1336 1292 l 1336 1278 l 0 1278 l 0 1292 z "},"Ỡ":{"ha":1336,"x_min":0,"x_max":1336,"o":"m 669 -26 q 451 21 550 -26 q 280 156 351 68 q 169 365 208 243 q 131 638 131 488 q 148 824 131 736 q 199 985 165 911 q 280 1117 232 1058 q 388 1215 328 1175 q 519 1277 449 1256 q 669 1299 590 1299 q 756 1292 715 1299 q 835 1271 796 1285 q 972 1293 922 1274 q 1039 1344 1021 1313 q 1048 1417 1057 1376 q 1011 1500 1039 1457 q 1008 1527 1003 1514 q 1027 1549 1014 1540 q 1056 1558 1040 1558 q 1081 1543 1071 1557 q 1126 1440 1114 1492 q 1122 1342 1138 1388 q 1060 1265 1106 1297 q 933 1225 1014 1233 q 1133 994 1060 1147 q 1206 638 1206 842 q 1188 450 1206 538 q 1137 288 1169 363 q 1056 156 1104 214 q 949 57 1008 97 q 819 -5 889 17 q 669 -26 749 -26 m 669 49 q 795 67 736 49 q 905 120 854 85 q 996 206 956 156 q 1065 323 1036 257 q 1108 467 1093 389 q 1124 638 1124 546 q 1090 882 1124 774 q 996 1067 1057 990 q 852 1185 935 1144 q 669 1225 769 1225 q 543 1207 603 1225 q 432 1153 483 1189 q 340 1067 381 1118 q 271 951 300 1017 q 226 806 242 885 q 211 638 211 728 q 245 392 211 500 q 340 206 279 283 q 485 89 401 129 q 669 49 569 49 m 450 1410 q 418 1439 418 1410 q 454 1556 421 1514 q 544 1597 488 1597 q 619 1580 586 1597 q 680 1540 651 1563 q 734 1499 708 1517 q 788 1482 760 1482 q 833 1506 817 1482 q 850 1575 849 1531 q 883 1600 851 1600 q 909 1594 903 1600 q 915 1571 915 1588 q 880 1455 914 1496 q 786 1414 846 1414 q 713 1431 746 1414 q 653 1472 681 1449 q 599 1513 625 1494 q 544 1531 574 1531 q 501 1508 517 1531 q 483 1438 486 1485 q 474 1416 482 1422 q 450 1410 467 1410 m 0 -569 l 1336 -569 l 1336 -583 l 0 -583 l 0 -569 m 0 28 l 1336 28 l 1336 0 l 0 0 l 0 28 m 0 701 l 1336 701 l 1336 694 l 0 694 l 0 701 m 0 1292 l 1336 1292 l 1336 1278 l 0 1278 l 0 1292 z "},"Ŕ":{"ha":1001,"x_min":0,"x_max":1001,"o":"m 244 -19 q 215 -13 225 -19 q 206 8 206 -7 l 206 1250 q 216 1270 206 1264 q 246 1276 226 1276 l 482 1276 q 716 1247 624 1276 q 855 1153 808 1217 q 901 983 901 1089 q 881 860 901 915 q 822 764 860 806 q 733 692 783 722 q 622 640 682 661 q 497 608 563 619 q 367 590 432 596 q 544 401 451 496 q 735 214 636 306 q 938 38 835 122 q 949 17 949 29 q 933 -11 950 6 q 909 -22 921 -22 q 885 -11 897 -22 q 671 177 776 78 q 467 378 565 276 q 282 581 369 479 l 282 8 q 273 -13 282 -7 q 244 -19 264 -19 m 282 650 q 394 657 338 651 q 503 675 450 663 q 604 705 557 688 q 692 748 651 722 q 761 808 732 774 q 807 885 790 842 q 824 983 824 929 q 787 1112 824 1063 q 676 1184 750 1161 q 488 1207 601 1207 l 282 1207 l 282 650 m 429 1368 q 407 1381 419 1368 q 394 1401 394 1393 q 395 1410 394 1406 q 401 1419 396 1414 l 614 1621 q 624 1630 621 1626 q 635 1633 628 1633 q 655 1626 644 1633 q 673 1607 665 1618 q 681 1588 681 1596 q 679 1576 681 1581 q 671 1567 678 1572 l 449 1378 q 438 1371 442 1374 q 429 1368 433 1368 m 0 -569 l 1001 -569 l 1001 -583 l 0 -583 l 0 -569 m 0 28 l 1001 28 l 1001 0 l 0 0 l 0 28 m 0 701 l 1001 701 l 1001 694 l 0 694 l 0 701 m 0 1292 l 1001 1292 l 1001 1278 l 0 1278 l 0 1292 z "},"Ř":{"ha":1001,"x_min":0,"x_max":1001,"o":"m 244 -19 q 215 -13 225 -19 q 206 8 206 -7 l 206 1250 q 216 1270 206 1264 q 246 1276 226 1276 l 482 1276 q 716 1247 624 1276 q 855 1153 808 1217 q 901 983 901 1089 q 881 860 901 915 q 822 764 860 806 q 733 692 783 722 q 622 640 682 661 q 497 608 563 619 q 367 590 432 596 q 544 401 451 496 q 735 214 636 306 q 938 38 835 122 q 949 17 949 29 q 933 -11 950 6 q 909 -22 921 -22 q 885 -11 897 -22 q 671 177 776 78 q 467 378 565 276 q 282 581 369 479 l 282 8 q 273 -13 282 -7 q 244 -19 264 -19 m 282 650 q 394 657 338 651 q 503 675 450 663 q 604 705 557 688 q 692 748 651 722 q 761 808 732 774 q 807 885 790 842 q 824 983 824 929 q 787 1112 824 1063 q 676 1184 750 1161 q 488 1207 601 1207 l 282 1207 l 282 650 m 721 1633 q 742 1623 732 1633 q 753 1600 753 1613 q 751 1592 753 1596 q 744 1582 750 1588 l 538 1385 q 522 1373 529 1378 q 503 1368 515 1368 q 483 1373 490 1368 q 468 1385 475 1378 l 260 1583 q 254 1594 256 1589 q 253 1601 253 1599 q 263 1624 253 1614 q 283 1633 274 1633 q 296 1630 290 1633 q 307 1622 301 1626 l 503 1457 l 697 1622 q 709 1630 704 1626 q 721 1633 714 1633 m 0 -569 l 1001 -569 l 1001 -583 l 0 -583 l 0 -569 m 0 28 l 1001 28 l 1001 0 l 0 0 l 0 28 m 0 701 l 1001 701 l 1001 694 l 0 694 l 0 701 m 0 1292 l 1001 1292 l 1001 1278 l 0 1278 l 0 1292 z "},"Ŗ":{"ha":1001,"x_min":0,"x_max":1001,"o":"m 244 -19 q 215 -13 225 -19 q 206 8 206 -7 l 206 1250 q 216 1270 206 1264 q 246 1276 226 1276 l 482 1276 q 716 1247 624 1276 q 855 1153 808 1217 q 901 983 901 1089 q 881 860 901 915 q 822 764 860 806 q 733 692 783 722 q 622 640 682 661 q 497 608 563 619 q 367 590 432 596 q 544 401 451 496 q 735 214 636 306 q 938 38 835 122 q 949 17 949 29 q 933 -11 950 6 q 909 -22 921 -22 q 885 -11 897 -22 q 671 177 776 78 q 467 378 565 276 q 282 581 369 479 l 282 8 q 273 -13 282 -7 q 244 -19 264 -19 m 282 650 q 394 657 338 651 q 503 675 450 663 q 604 705 557 688 q 692 748 651 722 q 761 808 732 774 q 807 885 790 842 q 824 983 824 929 q 787 1112 824 1063 q 676 1184 750 1161 q 488 1207 601 1207 l 282 1207 l 282 650 m 482 -390 q 465 -376 467 -385 q 472 -349 463 -367 q 500 -285 490 -314 q 513 -224 510 -257 q 517 -143 517 -190 q 525 -118 517 -128 q 553 -108 533 -108 q 584 -119 574 -108 q 594 -147 594 -131 q 586 -224 594 -185 q 563 -301 578 -264 q 526 -372 547 -339 q 507 -392 517 -386 q 482 -390 497 -397 m 0 -569 l 1001 -569 l 1001 -583 l 0 -583 l 0 -569 m 0 28 l 1001 28 l 1001 0 l 0 0 l 0 28 m 0 701 l 1001 701 l 1001 694 l 0 694 l 0 701 m 0 1292 l 1001 1292 l 1001 1278 l 0 1278 l 0 1292 z "}}}
